<svg xmlns="http://www.w3.org/2000/svg" xmlns:xlink="http://www.w3.org/1999/xlink" viewBox="0,0,256,256" width="500px" height="500px" fill-rule="nonzero"><g fill="#ffffff" fill-rule="nonzero" stroke="none" stroke-width="1" stroke-linecap="butt" stroke-linejoin="miter" stroke-miterlimit="10" stroke-dasharray="" stroke-dashoffset="0" font-family="none" font-weight="none" font-size="none" text-anchor="none" style="mix-blend-mode: normal"><g transform="scale(5.12,5.12)"><path d="M32.246,22.112c-2.048,0 -2.783,2.66 -2.783,5.763c0,3.264 0.801,6.389 2.593,6.389c0.768,0 1.761,-0.4 2.305,-2.639c0.096,-0.288 0.125,-0.875 0.125,-0.875v-4.563c0,-0.319 0.032,-0.711 0,-1.062c-0.128,-1.6 -1.056,-3.013 -2.24,-3.013zM44,4h-38c-1.103,0 -2,0.897 -2,2v38c0,1.103 0.897,2 2,2h38c1.103,0 2,-0.897 2,-2v-38c0,-1.103 -0.897,-2 -2,-2zM26.5,36h-2.5l-4.243,-8.127l-4.257,8.127h-2.464l5.482,-10.5l-5.482,-10.5h2.464l4.257,8.127l4.243,-8.127h2.5l-5.5,10.5zM37,32.625c0,1.056 -0.032,2.479 0,3.375h-2.5v-1.625c-0.48,1.088 -1.388,1.937 -3.019,1.937c-2.624,0 -4.481,-3.316 -4.481,-8.437c0,-5.503 2.303,-7.875 4.703,-7.875c1.12,0 2.19,0.564 2.797,1.875v-0.007v-7.868h2.5z"></path></g></g></svg>