<svg xmlns="http://www.w3.org/2000/svg" xmlns:xlink="http://www.w3.org/1999/xlink" viewBox="0,0,256,256" width="500px" height="500px" fill-rule="nonzero"><g fill="#ffffff" fill-rule="nonzero" stroke="none" stroke-width="1" stroke-linecap="butt" stroke-linejoin="miter" stroke-miterlimit="10" stroke-dasharray="" stroke-dashoffset="0" font-family="none" font-weight="none" font-size="none" text-anchor="none" style="mix-blend-mode: normal"><g transform="scale(5.12,5.12)"><path d="M6,4c-1.1,0 -2,0.9 -2,2v38c0,1.1 0.9,2 2,2h38c1.1,0 2,-0.9 2,-2v-38c0,-1.1 -0.9,-2 -2,-2zM17.92969,14h2.7207l4.79883,22h-2.43945l-1.39062,-6.42969h-4.79883l-1.41992,6.42969h-2.40039zM19.23047,16.43945c-0.26,1.63 -0.58039,3.49094 -0.90039,4.96094l-1.09961,5.59961h4.08984l-1.13086,-5.63086c-0.32,-1.54 -0.60914,-3.32969 -0.86914,-4.92969zM32.51953,20c4.34,0 5.48047,4.62031 5.48047,7.07031v1h-9c0,1.21 0.19063,3.39047 1.39063,4.73047c0.73,0.81 1.7093,1.19922 3.0293,1.19922c1.52,0 3.13063,-0.75953 3.14063,-0.76953l0.86914,1.79883c-0.08,0.04 -2.01977,0.9707 -4.00977,0.9707c-1.89,0 -3.40953,-0.62914 -4.51953,-1.86914c-2.22,-2.48 -1.91133,-6.55109 -1.86133,-7.12109c0.02,-2.45 1.18047,-7.00977 5.48047,-7.00977zM32.51953,22c-2.49,0 -3.20039,2.59031 -3.40039,4.07031h6.80078c-0.2,-1.48 -0.90039,-4.07031 -3.40039,-4.07031z"></path></g></g></svg>