<svg width="36" height="36" viewBox="0 0 36 36" fill="none" xmlns="http://www.w3.org/2000/svg">
<g clip-path="url(#clip0_172_812)">
<path d="M34.0751 11.0742C34.9509 11.5894 35.2132 12.3852 35.4607 13.3206C35.6655 14.1238 35.8242 14.928 35.9296 15.75C35.9357 15.797 35.9419 15.8441 35.9482 15.8926C35.9963 16.2901 36.0132 16.6827 36.0167 17.0829C36.0174 17.1485 36.0181 17.2141 36.0188 17.2816C36.0309 18.7387 36.0203 20.1539 35.7187 21.5859C35.6961 21.6947 35.6961 21.6947 35.673 21.8056C34.9585 25.1337 33.2926 28.1428 30.9374 30.5859C30.8999 30.625 30.8623 30.6641 30.8236 30.7044C30.3274 31.2184 29.8185 31.6984 29.2499 32.1328C29.203 32.1691 29.1561 32.2055 29.1077 32.2429C25.9076 34.7103 22.0733 36.0373 18.0307 36.022C17.959 36.0218 17.8872 36.0217 17.8133 36.0215C16.7848 36.018 15.7758 36.0006 14.7656 35.789C14.6628 35.7681 14.6628 35.7681 14.5579 35.7467C12.112 35.2351 9.81096 34.3018 7.73433 32.9062C7.69291 32.9493 7.69291 32.9493 7.65066 32.9933C7.52384 33.1245 7.39619 33.2549 7.26851 33.3852C7.22509 33.4304 7.18168 33.4756 7.13694 33.5222C6.84851 33.8151 6.58584 34.0524 6.16822 34.132C5.77103 34.1328 5.4529 34.0658 5.13276 33.8203C4.74244 33.3747 4.77337 32.7581 4.75386 32.1954C4.75179 32.1415 4.74972 32.0876 4.74759 32.032C4.74088 31.8555 4.73453 31.679 4.72819 31.5025C4.72358 31.3787 4.71895 31.2549 4.7143 31.1311C4.70464 30.8723 4.69514 30.6135 4.68577 30.3547C4.67381 30.0243 4.66153 29.694 4.64913 29.3637C4.63956 29.1082 4.63012 28.8527 4.62072 28.5973C4.61624 28.4755 4.61172 28.3538 4.60718 28.2321C4.60084 28.0613 4.59465 27.8906 4.58851 27.7199C4.58665 27.6704 4.58479 27.621 4.58287 27.5701C4.57781 27.4269 4.57375 27.2838 4.57026 27.1406C4.56877 27.0848 4.56729 27.0289 4.56575 26.9714C4.56487 26.9152 4.56399 26.859 4.56308 26.8012C4.56212 26.7501 4.56117 26.6991 4.56018 26.6465C4.57508 26.4415 4.65346 26.3135 4.7812 26.1562C5.37292 25.8604 6.51719 26.1122 7.17265 26.1579C7.2842 26.1654 7.39575 26.173 7.5073 26.1805C7.73912 26.1962 7.97092 26.2122 8.2027 26.2284C8.49742 26.2489 8.79219 26.2688 9.08697 26.2884C9.31664 26.3038 9.54629 26.3196 9.77594 26.3355C9.88454 26.343 9.99315 26.3503 10.1018 26.3575C11.9518 26.481 11.9518 26.481 12.356 26.8901C12.5924 27.1811 12.603 27.4552 12.6114 27.8171C12.5322 28.3361 12.1588 28.6478 11.7993 28.9951C11.7466 29.0469 11.6939 29.0986 11.6396 29.1519C11.5102 29.2789 11.3803 29.4053 11.25 29.5312C13.0966 31.1544 16.4544 31.548 18.8056 31.3985C20.0522 31.3024 21.2507 31.0745 22.4296 30.6562C22.5544 30.6122 22.5544 30.6122 22.6818 30.5672C25.1339 29.6417 27.3967 27.9657 28.8984 25.8047C28.9742 25.6966 28.9742 25.6966 29.0516 25.5863C30.5721 23.3218 31.3921 20.7721 31.3857 18.0439C31.3857 17.9562 31.3857 17.9562 31.3856 17.8666C31.3824 16.5779 31.2093 15.3896 30.8387 14.1553C30.6484 13.4881 30.576 12.7195 30.9193 12.0904C30.9485 12.0451 30.9777 11.9998 31.0078 11.9531C31.0384 11.9034 31.069 11.8538 31.1006 11.8026C31.7431 10.8546 33.0557 10.6005 34.0751 11.0742ZM32.2325 12.3376C31.9015 12.7267 31.8852 13.005 31.9218 13.5C31.9725 13.7596 32.0452 14.0109 32.1196 14.2646C33.1279 17.9295 32.5966 21.9295 30.7482 25.2455C28.7732 28.6784 25.5988 31.0671 21.7968 32.1328C20.8087 32.3763 19.8127 32.5611 18.7934 32.5714C18.7369 32.5721 18.6803 32.5728 18.622 32.5735C15.5908 32.6029 12.1079 32.0681 9.70308 30.0234C9.59698 29.8112 9.59759 29.6984 9.63276 29.4609C9.76859 29.2478 9.94721 29.077 10.125 28.8984C10.1634 28.8595 10.2019 28.8205 10.2415 28.7804C10.4937 28.5252 10.7475 28.2716 11.0028 28.0194C11.109 27.9144 11.2147 27.8088 11.3203 27.7031C11.0589 27.6247 10.801 27.6106 10.5295 27.5925C10.4787 27.5891 10.4279 27.5857 10.3755 27.5821C10.2082 27.5708 10.0408 27.5599 9.87336 27.549C9.75711 27.5413 9.64086 27.5335 9.5246 27.5257C9.21899 27.5052 8.91336 27.4851 8.60773 27.465C8.29571 27.4444 7.98371 27.4236 7.6717 27.4028C7.05978 27.362 6.44784 27.3215 5.83589 27.2812C5.82488 28.5019 5.85615 29.718 5.9062 30.9375C5.91301 31.1093 5.91978 31.2812 5.92653 31.453C5.94284 31.8671 5.95952 32.2812 5.97651 32.6953C6.28728 32.6953 6.42748 32.4953 6.64009 32.291C6.68038 32.2531 6.72066 32.2152 6.76217 32.1762C6.93103 32.0169 7.09595 31.8575 7.25395 31.6873C7.43031 31.5271 7.58985 31.5058 7.82414 31.5165C8.12521 31.6011 8.34886 31.7869 8.59378 31.9737C11.8112 34.4161 16.3291 35.249 20.2631 34.7212C24.2022 34.1403 28.0847 32.2065 30.6562 29.1094C30.7112 29.0481 30.7662 28.9868 30.8229 28.9237C33.464 25.9588 34.8431 21.9653 34.8266 18.0264C34.8265 17.9612 34.8263 17.8959 34.8261 17.8288C34.8229 14.9912 34.8229 14.9912 33.8345 12.4189C33.3338 12.0023 32.754 11.8535 32.2325 12.3376Z" fill="white"/>
<path d="M17.9736 -0.0219511C18.0452 -0.0217996 18.1168 -0.0216481 18.1905 -0.0214919C19.2177 -0.0179995 20.2255 -0.000358306 21.2344 0.210959C21.3029 0.224928 21.3715 0.238898 21.4421 0.253291C23.6048 0.705682 25.9195 1.45174 27.7257 2.7694C27.8978 2.89931 27.8978 2.89931 28.0542 2.86611C28.2893 2.77686 28.4397 2.58378 28.6084 2.40383C28.996 1.993 29.3713 1.61822 29.9663 1.59084C30.3389 1.5951 30.5877 1.72872 30.8672 1.96877C31.1555 2.34076 31.1598 2.74946 31.1758 3.20497C31.1779 3.25751 31.1799 3.31004 31.1821 3.36417C31.1888 3.53752 31.1951 3.71088 31.2015 3.88424C31.2061 4.00575 31.2107 4.12725 31.2153 4.24876C31.225 4.50374 31.2345 4.75872 31.2439 5.0137C31.2558 5.33763 31.2681 5.66154 31.2805 5.98545C31.2901 6.23677 31.2996 6.48809 31.3089 6.73942C31.3134 6.85865 31.3179 6.97788 31.3225 7.09711C31.3349 7.42286 31.3457 7.74858 31.3545 8.07445C31.3594 8.22637 31.3668 8.37804 31.3744 8.52985C31.3777 8.62442 31.381 8.71899 31.3841 8.81356C31.3878 8.89559 31.3915 8.97762 31.3953 9.06213C31.3467 9.35908 31.2492 9.45739 31.0078 9.63283C30.7848 9.6697 30.7848 9.6697 30.5333 9.6593C30.4874 9.65784 30.4415 9.65636 30.3943 9.65485C30.2471 9.64951 30.1002 9.64141 29.9531 9.63283C29.8577 9.62813 29.7622 9.62344 29.6668 9.61878C29.3633 9.60277 29.0602 9.58202 28.757 9.56087C28.6455 9.55331 28.5339 9.54576 28.4224 9.53824C28.1905 9.52251 27.9587 9.50653 27.7269 9.49036C27.4322 9.46982 27.1375 9.44998 26.8427 9.43034C26.613 9.41495 26.3834 9.39917 26.1537 9.38327C26.0451 9.3758 25.9365 9.36846 25.8279 9.36125C23.9778 9.23775 23.9778 9.23775 23.5737 8.82864C23.3423 8.54383 23.3067 8.25594 23.3185 7.89727C23.4131 7.28757 24.025 6.78724 24.4688 6.39846C24.5152 6.39846 24.5616 6.39846 24.6094 6.39846C24.6094 6.35205 24.6094 6.30565 24.6094 6.25783C24.5623 6.23998 24.5151 6.22212 24.4666 6.20373C24.2655 6.1204 24.0719 6.02649 23.877 5.92982C21.0262 4.53113 17.7707 4.23539 14.6953 4.99221C14.6459 5.00405 14.5964 5.01589 14.5455 5.02809C11.6352 5.74333 9.02404 7.60308 7.2422 9.9844C7.19815 10.0429 7.1541 10.1013 7.10872 10.1616C5.99573 11.6952 5.27948 13.418 4.85158 15.2578C4.83807 15.315 4.82457 15.3723 4.81065 15.4312C4.35918 17.4534 4.58857 19.6221 5.16144 21.5861C5.34642 22.2359 5.33353 22.7902 5.06251 23.4141C4.76275 23.9389 4.27495 24.3864 3.69252 24.5756C2.98648 24.7105 2.35569 24.6783 1.72652 24.3108C0.714095 23.6158 0.535643 22.3669 0.281264 21.2344C0.258475 21.1336 0.258475 21.1336 0.235225 21.0308C-0.189956 19.0511 -0.196761 16.7485 0.210952 14.7656C0.224921 14.6968 0.238891 14.6279 0.253284 14.557C0.977449 11.0967 2.55502 8.04332 4.9922 5.4844C5.0323 5.44228 5.07239 5.40017 5.1137 5.35678C5.67603 4.77055 6.25358 4.233 6.90633 3.74904C7.03512 3.65341 7.16271 3.55632 7.29027 3.45907C7.88281 3.01129 8.49429 2.61532 9.14064 2.25002C9.18496 2.2245 9.22928 2.19897 9.27495 2.17267C11.9291 0.653222 14.9363 -0.0335167 17.9736 -0.0219511ZM6.6797 5.55471C6.58187 5.64003 6.48373 5.725 6.38527 5.80959C5.92829 6.20991 5.53447 6.63743 5.15425 7.11175C5.05259 7.2377 4.94919 7.36228 4.84334 7.48473C3.57821 8.96072 2.65952 10.7526 2.03908 12.586C2.01971 12.6425 2.00035 12.6991 1.9804 12.7573C1.51474 14.1406 1.1929 15.6229 1.17857 17.0862C1.17788 17.1448 1.1772 17.2033 1.17649 17.2636C1.16454 18.5422 1.17725 19.7731 1.47658 21.0235C1.49314 21.0954 1.5097 21.1674 1.52677 21.2415C1.74588 22.3705 1.74588 22.3705 2.36427 23.3042C2.68588 23.4531 2.95596 23.4615 3.3047 23.4141C3.61107 23.2915 3.84524 23.0691 4.00783 22.7813C4.14187 22.297 4.03234 21.8853 3.88478 21.419C3.52529 20.2689 3.40514 19.1212 3.41457 17.9209C3.4148 17.8616 3.41504 17.8023 3.41528 17.7412C3.43826 13.7497 5.13651 10.1571 7.94071 7.36617C8.38382 6.93443 8.85015 6.54918 9.35158 6.18752C9.39014 6.15915 9.42871 6.13078 9.46844 6.10155C11.1443 4.87954 13.0936 4.07638 15.1172 3.65627C15.1961 3.639 15.1961 3.639 15.2766 3.62139C18.7591 2.88808 22.7635 3.65288 25.743 5.58097C26.1324 5.85137 26.1324 5.85137 26.1914 6.16115C26.1369 6.52917 25.9211 6.70274 25.6641 6.96096C25.6245 7.00102 25.5849 7.04108 25.5442 7.08236C25.2579 7.37196 24.9694 7.65922 24.6797 7.94533C24.9257 8.10932 25.1135 8.11786 25.3987 8.1342C25.451 8.1377 25.5033 8.1412 25.5571 8.14481C25.7263 8.15599 25.8956 8.16631 26.0648 8.1766C26.1693 8.18338 26.2738 8.19021 26.3783 8.19711C26.7657 8.22227 27.1531 8.24633 27.5405 8.27053C28.4063 8.32564 29.2721 8.38074 30.1641 8.43752C30.0945 6.60448 30.0249 4.77143 29.9531 2.88283C29.5724 3.20498 29.5724 3.20498 29.2193 3.54641C29.1358 3.6299 29.0523 3.7134 28.9688 3.7969C28.9238 3.8433 28.8789 3.88971 28.8325 3.93752C28.7861 3.98248 28.7397 4.02743 28.6919 4.07375C28.6507 4.11499 28.6094 4.15623 28.5669 4.19872C28.3258 4.33435 28.109 4.34172 27.8438 4.28908C27.6264 4.18929 27.4372 4.05688 27.2417 3.91994C21.4087 0.049439 13.6924 0.291225 6.6797 5.55471Z" fill="white"/>
<path d="M16.4042 8.42505C16.4821 8.42415 16.56 8.42324 16.6403 8.42231C16.7248 8.42179 16.8093 8.42127 16.8964 8.42074C16.9829 8.42017 17.0695 8.4196 17.1586 8.41902C17.342 8.41805 17.5253 8.41729 17.7087 8.41674C17.8968 8.41612 18.0849 8.41465 18.273 8.41241C18.5436 8.40942 18.8142 8.40828 19.0849 8.40756C19.1691 8.40632 19.2534 8.40509 19.3401 8.40382C19.4185 8.40403 19.4969 8.40424 19.5776 8.40445C19.6465 8.40404 19.7154 8.40362 19.7864 8.4032C20.0215 8.44742 20.1029 8.53366 20.25 8.71874C20.3545 9.03233 20.3402 9.34973 20.3502 9.67867C20.3982 9.95807 20.4451 10.0297 20.6719 10.1953C20.8453 10.2824 21.0108 10.3577 21.1904 10.4282C21.2359 10.4477 21.2814 10.4671 21.3283 10.4871C21.6307 10.6081 21.8392 10.6575 22.1484 10.5469C22.3117 10.4209 22.4488 10.2767 22.5879 10.125C23.0386 9.64788 23.0386 9.64788 23.3525 9.59765C23.6414 9.63492 23.6876 9.66294 23.8912 9.84956C23.9648 9.91679 23.9648 9.91679 24.0399 9.98537C24.2636 10.197 24.484 10.4114 24.7014 10.6295C24.7702 10.6982 24.7702 10.6982 24.8403 10.7683C24.9361 10.864 25.0317 10.9598 25.1273 11.0556C25.274 11.2028 25.4212 11.3495 25.5683 11.4962C25.6617 11.5896 25.755 11.6831 25.8483 11.7765C25.8924 11.8204 25.9364 11.8643 25.9817 11.9095C26.3523 12.2821 26.3523 12.2821 26.4023 12.5947C26.3452 13.0375 26.0377 13.2685 25.7302 13.5731C25.6852 13.62 25.6402 13.667 25.5937 13.7153C25.5517 13.7567 25.5096 13.7982 25.4663 13.8408C25.3378 14.0738 25.3936 14.2298 25.4531 14.4844C25.5147 14.6579 25.5823 14.8295 25.6553 14.9985C25.6913 15.0838 25.7274 15.1691 25.7646 15.257C25.8614 15.4841 25.8614 15.4841 26.0859 15.6094C26.3312 15.6334 26.575 15.6405 26.8212 15.6486C27.0886 15.682 27.2629 15.7511 27.4922 15.8906C27.5824 16.0711 27.5729 16.2021 27.5749 16.4042C27.5758 16.4821 27.5767 16.56 27.5777 16.6403C27.5785 16.7671 27.5784 16.7671 27.5792 16.8964C27.5798 16.9829 27.5804 17.0695 27.581 17.1586C27.5819 17.342 27.5827 17.5253 27.5832 17.7087C27.5839 17.8968 27.5853 18.0849 27.5876 18.273C27.5906 18.5436 27.5917 18.8142 27.5924 19.0849C27.5937 19.1691 27.5949 19.2534 27.5962 19.3401C27.5958 19.4577 27.5958 19.4577 27.5955 19.5776C27.5962 19.6809 27.5962 19.6809 27.5968 19.7864C27.5526 20.0215 27.4663 20.1029 27.2812 20.25C26.9677 20.3545 26.6503 20.3402 26.3213 20.3502C26.0429 20.398 25.971 20.4474 25.8047 20.6719C25.6776 20.8987 25.6776 20.8987 25.5718 21.1509C25.5156 21.2755 25.5156 21.2755 25.4583 21.4027C25.3703 21.6982 25.3638 21.8533 25.4531 22.1484C25.5763 22.3168 25.7205 22.4529 25.875 22.5923C26.3522 23.0393 26.3522 23.0393 26.4023 23.3525C26.3651 23.6414 26.337 23.6876 26.1504 23.8912C26.1056 23.9403 26.0608 23.9893 26.0146 24.0399C25.803 24.2636 25.5886 24.484 25.3704 24.7014C25.3018 24.7702 25.3018 24.7702 25.2317 24.8403C25.136 24.9361 25.0402 25.0317 24.9444 25.1273C24.7972 25.274 24.6505 25.4212 24.5038 25.5683C24.4104 25.6617 24.3169 25.755 24.2235 25.8483C24.1796 25.8924 24.1357 25.9364 24.0905 25.9817C23.7179 26.3523 23.7179 26.3523 23.4053 26.4023C22.9625 26.3452 22.7314 26.0377 22.4269 25.7302C22.38 25.6852 22.333 25.6402 22.2847 25.5937C22.2432 25.5517 22.2018 25.5096 22.1591 25.4663C21.9262 25.3378 21.7702 25.3936 21.5156 25.4531C21.3421 25.5147 21.1705 25.5823 21.0015 25.6553C20.9162 25.6913 20.8309 25.7274 20.743 25.7646C20.5159 25.8614 20.5159 25.8614 20.3906 26.0859C20.3666 26.3312 20.3595 26.575 20.3513 26.8212C20.318 27.0886 20.2488 27.2629 20.1094 27.4922C19.9289 27.5824 19.7979 27.5729 19.5958 27.5749C19.5179 27.5758 19.44 27.5767 19.3597 27.5777C19.2752 27.5782 19.1906 27.5787 19.1036 27.5792C18.9738 27.5801 18.9738 27.5801 18.8414 27.581C18.658 27.5819 18.4747 27.5827 18.2913 27.5832C18.1032 27.5839 17.9151 27.5853 17.727 27.5876C17.4564 27.5906 17.1858 27.5917 16.9151 27.5924C16.7887 27.5943 16.7887 27.5943 16.6598 27.5962C16.5815 27.596 16.5031 27.5957 16.4224 27.5955C16.3535 27.5959 16.2846 27.5964 16.2136 27.5968C15.9784 27.5526 15.8971 27.4663 15.75 27.2812C15.6455 26.9677 15.6598 26.6503 15.6497 26.3213C15.602 26.0429 15.5526 25.971 15.3281 25.8047C15.1013 25.6776 15.1013 25.6776 14.8491 25.5718C14.7244 25.5156 14.7244 25.5156 14.5973 25.4583C14.3017 25.3703 14.1467 25.3638 13.8516 25.4531C13.6832 25.5763 13.5471 25.7205 13.4077 25.875C12.9607 26.3522 12.9607 26.3522 12.6475 26.4023C12.3586 26.3651 12.3124 26.337 12.1088 26.1504C12.0597 26.1056 12.0106 26.0608 11.9601 26.0146C11.7364 25.803 11.516 25.5886 11.2986 25.3704C11.2298 25.3018 11.2298 25.3018 11.1596 25.2317C11.0639 25.136 10.9683 25.0402 10.8727 24.9444C10.7259 24.7972 10.5788 24.6505 10.4316 24.5038C10.3383 24.4104 10.2449 24.3169 10.1516 24.2235C10.1076 24.1796 10.0636 24.1357 10.0183 24.0905C9.64767 23.7179 9.64767 23.7179 9.59765 23.4053C9.65342 22.973 9.93809 22.7427 10.2491 22.4558C10.5083 22.2148 10.6032 22.0811 10.6172 21.7266C10.5611 21.5123 10.4773 21.314 10.3887 21.1113C10.3556 21.0304 10.3556 21.0304 10.3219 20.9479C10.1867 20.6185 10.1867 20.6185 9.91406 20.3906C9.66882 20.3666 9.42503 20.3595 9.1788 20.3513C8.91136 20.318 8.73707 20.2488 8.50781 20.1094C8.41756 19.9289 8.42708 19.7979 8.42505 19.5958C8.42415 19.5179 8.42324 19.44 8.42231 19.3597C8.42179 19.2752 8.42127 19.1906 8.42074 19.1036C8.42017 19.017 8.4196 18.9305 8.41902 18.8414C8.41805 18.658 8.41729 18.4747 8.41674 18.2913C8.41612 18.1032 8.41465 17.9151 8.41241 17.727C8.40942 17.4564 8.40828 17.1858 8.40756 16.9151C8.40632 16.8309 8.40509 16.7466 8.40382 16.6598C8.40403 16.5815 8.40424 16.5031 8.40445 16.4224C8.40404 16.3535 8.40362 16.2846 8.4032 16.2136C8.44742 15.9784 8.53366 15.8971 8.71874 15.75C9.03233 15.6455 9.34973 15.6598 9.67867 15.6497C9.95709 15.602 10.0289 15.5526 10.1953 15.3281C10.3224 15.1013 10.3224 15.1013 10.4282 14.8491C10.4656 14.766 10.5031 14.6829 10.5416 14.5973C10.6297 14.3017 10.6362 14.1467 10.5469 13.8516C10.4237 13.6832 10.2795 13.5471 10.125 13.4077C9.64777 12.9607 9.64777 12.9607 9.59765 12.6475C9.63492 12.3586 9.66294 12.3124 9.84956 12.1088C9.91679 12.0352 9.91679 12.0352 9.98537 11.9601C10.197 11.7364 10.4114 11.516 10.6295 11.2986C10.6753 11.2528 10.7211 11.2069 10.7683 11.1596C10.864 11.0639 10.9598 10.9683 11.0556 10.8727C11.2028 10.7259 11.3495 10.5788 11.4962 10.4316C11.5896 10.3383 11.6831 10.2449 11.7765 10.1516C11.8204 10.1076 11.8643 10.0636 11.9095 10.0183C12.2821 9.64767 12.2821 9.64767 12.5947 9.59765C13.0375 9.65479 13.2685 9.96231 13.5731 10.2697C13.62 10.3148 13.667 10.3598 13.7153 10.4062C13.7567 10.4483 13.7982 10.4904 13.8408 10.5337C14.0738 10.6622 14.2298 10.6064 14.4844 10.5469C14.6579 10.4853 14.8295 10.4177 14.9985 10.3447C15.0838 10.3086 15.1691 10.2726 15.257 10.2354C15.4841 10.1386 15.4841 10.1386 15.6094 9.91406C15.6334 9.66882 15.6405 9.42503 15.6486 9.1788C15.682 8.91136 15.7511 8.73707 15.8906 8.50781C16.0711 8.41756 16.2021 8.42708 16.4042 8.42505ZM16.875 9.56249C16.8286 9.84093 16.7822 10.1194 16.7344 10.4062C16.3758 10.9799 15.9802 11.2645 15.3589 11.5093C15.2793 11.5417 15.2793 11.5417 15.1981 11.5748C14.533 11.8426 14.0155 11.9062 13.3349 11.634C13.0679 11.4869 12.8298 11.2923 12.5859 11.1094C12.0987 11.5966 11.6114 12.0839 11.1094 12.5859C11.2486 12.7716 11.3878 12.9572 11.5312 13.1484C11.7644 13.5718 11.9064 14.0032 11.8125 14.4844C11.6981 14.8694 11.5457 15.2393 11.3906 15.6094C11.3672 15.6688 11.3438 15.7283 11.3198 15.7895C11.1295 16.2284 10.7883 16.5279 10.3755 16.7607C10.1096 16.8256 9.83448 16.8448 9.56249 16.875C9.56249 17.6175 9.56249 18.36 9.56249 19.125C9.84093 19.1714 10.1194 19.2178 10.4062 19.2656C10.9799 19.6242 11.2645 20.0198 11.5093 20.6411C11.5309 20.6942 11.5525 20.7472 11.5748 20.8019C11.8426 21.467 11.9062 21.9845 11.634 22.6651C11.4869 22.9321 11.2923 23.1702 11.1094 23.4141C11.8403 24.145 11.8403 24.145 12.5859 24.8906C12.7716 24.7514 12.9572 24.6122 13.1484 24.4687C13.5718 24.2355 14.0032 24.0936 14.4844 24.1875C14.8694 24.3019 15.2393 24.4543 15.6094 24.6094C15.6688 24.6328 15.7283 24.6561 15.7895 24.6802C16.2284 24.8705 16.5279 25.2117 16.7607 25.6245C16.8256 25.8904 16.8448 26.1655 16.875 26.4375C17.6175 26.4375 18.36 26.4375 19.125 26.4375C19.1714 26.1591 19.2178 25.8806 19.2656 25.5937C19.6242 25.0201 20.0198 24.7355 20.6411 24.4907C20.6942 24.4691 20.7472 24.4475 20.8019 24.4252C21.409 24.1808 21.9231 24.0978 22.5533 24.3234C22.7785 24.4306 22.9622 24.5749 23.152 24.7354C23.2776 24.8404 23.2776 24.8404 23.4844 24.8203C23.6459 24.6882 23.6459 24.6882 23.8126 24.5127C23.9067 24.4175 23.9067 24.4175 24.0028 24.3204C24.0688 24.2527 24.1347 24.1849 24.2007 24.1172C24.2674 24.0494 24.3342 23.9816 24.401 23.9139C24.5647 23.7478 24.7279 23.5811 24.8906 23.4141C24.8621 23.3775 24.8336 23.3409 24.8042 23.3032C24.4402 22.8288 24.1219 22.3258 24.1507 21.7043C24.2398 21.2472 24.4301 20.8185 24.6094 20.3906C24.6328 20.3312 24.6561 20.2717 24.6802 20.2104C24.8705 19.7716 25.2117 19.4721 25.6245 19.2392C25.8904 19.1744 26.1655 19.1552 26.4375 19.125C26.4375 18.3825 26.4375 17.64 26.4375 16.875C26.1591 16.8286 25.8806 16.7822 25.5937 16.7344C25.0201 16.3758 24.7355 15.9802 24.4907 15.3589C24.4691 15.3058 24.4475 15.2527 24.4252 15.1981C24.1574 14.533 24.0938 14.0155 24.366 13.3349C24.5131 13.0679 24.7077 12.8298 24.8906 12.5859C24.4034 12.0987 23.9161 11.6114 23.4141 11.1094C23.2284 11.2486 23.0428 11.3878 22.8516 11.5312C22.4282 11.7644 21.9968 11.9064 21.5156 11.8125C21.1306 11.6981 20.7607 11.5457 20.3906 11.3906C20.3312 11.3672 20.2717 11.3438 20.2104 11.3198C19.7716 11.1295 19.4721 10.7883 19.2392 10.3755C19.1744 10.1096 19.1552 9.83448 19.125 9.56249C18.3825 9.56249 17.64 9.56249 16.875 9.56249Z" fill="white"/>
<path d="M21.9095 13.2789C21.9651 13.3287 22.0208 13.3784 22.0781 13.4297C22.1367 13.4816 22.1952 13.5336 22.2556 13.5871C23.4287 14.6899 24.0386 16.2137 24.126 17.8089C24.1664 19.3634 23.6348 20.9256 22.5791 22.0737C22.4389 22.2195 22.2951 22.3607 22.1484 22.5C22.087 22.5586 22.0255 22.6171 21.9622 22.6774C20.8553 23.6514 19.2988 24.1707 17.8314 24.1301C16.1545 24.0118 14.7468 23.4235 13.5703 22.2188C13.5193 22.1692 13.4683 22.1196 13.4157 22.0685C12.3797 20.9999 11.9062 19.4658 11.8652 18.0044C11.9077 16.4742 12.403 15.0702 13.4297 13.9219C13.4816 13.8633 13.5336 13.8048 13.5871 13.7445C15.734 11.4604 19.5195 11.2563 21.9095 13.2789ZM14.3438 14.6953C13.491 15.7732 12.9708 17.0347 13.0908 18.428C13.2529 19.7318 13.8647 20.9991 14.9071 21.8238C15.9786 22.6091 17.2357 23.0575 18.5738 22.8911C19.8703 22.6912 21.1219 22.0506 21.9076 20.9785C22.6744 19.8861 23.0747 18.6167 22.8688 17.2817C22.6313 15.9779 21.9549 14.7777 20.8608 14.0098C18.7916 12.6124 16.0781 12.8345 14.3438 14.6953Z" fill="white"/>
<path d="M19.6875 15.1523C19.7339 15.1516 19.7803 15.1509 19.8281 15.1501C20.0327 15.2045 20.116 15.3073 20.25 15.4688C20.2838 15.6414 20.2838 15.6414 20.2819 15.8363C20.2819 15.9095 20.2819 15.9827 20.2819 16.0581C20.2804 16.1366 20.279 16.2151 20.2775 16.296C20.2771 16.3768 20.2767 16.4575 20.2763 16.5407C20.2747 16.7987 20.2712 17.0565 20.2676 17.3145C20.2662 17.4893 20.2649 17.6642 20.2637 17.8391C20.2606 18.2677 20.2559 18.6964 20.25 19.125C20.3076 19.1217 20.3653 19.1185 20.4247 19.1151C20.5005 19.1126 20.5762 19.11 20.6543 19.1074C20.7293 19.1042 20.8044 19.1009 20.8817 19.0975C21.1407 19.1311 21.2169 19.2033 21.375 19.4063C21.4124 19.5469 21.4124 19.5469 21.4102 19.6875C21.4112 19.7571 21.4112 19.7571 21.4124 19.8281C21.3551 20.0435 21.2727 20.1157 21.0938 20.25C20.8784 20.2925 20.6656 20.2884 20.4467 20.2864C20.3812 20.2869 20.3158 20.2874 20.2484 20.2879C20.0321 20.2891 19.8159 20.2883 19.5996 20.2874C19.4493 20.2875 19.2991 20.2878 19.1488 20.2882C18.8339 20.2886 18.519 20.288 18.2041 20.2867C17.8002 20.2851 17.3964 20.286 16.9925 20.2877C16.6823 20.2887 16.372 20.2884 16.0617 20.2876C15.9128 20.2874 15.7639 20.2877 15.615 20.2883C15.4069 20.289 15.1989 20.288 14.9908 20.2864C14.8983 20.2872 14.8983 20.2872 14.804 20.2881C14.3868 20.2823 14.3868 20.2823 14.165 20.1159C14.0541 19.9567 14.0243 19.8795 14.0273 19.6875C14.0266 19.6411 14.0259 19.5947 14.0251 19.5469C14.084 19.3252 14.1521 19.2547 14.3438 19.125C14.5849 19.0906 14.8215 19.0986 15.0645 19.1074C15.1632 19.1093 15.1632 19.1093 15.2639 19.1113C15.426 19.1146 15.588 19.1192 15.75 19.125C15.7485 19.0839 15.7471 19.0427 15.7455 19.0004C15.7397 18.8134 15.736 18.6265 15.7324 18.4395C15.7301 18.3747 15.7277 18.31 15.7253 18.2433C15.7184 17.7655 15.7184 17.7655 15.8741 17.5353C16.038 17.4333 16.1215 17.3994 16.3125 17.4023C16.3589 17.4016 16.4053 17.4009 16.4531 17.4001C16.6748 17.459 16.7453 17.5271 16.875 17.7188C16.9094 17.9599 16.9014 18.1965 16.8926 18.4395C16.8913 18.5053 16.89 18.5711 16.8887 18.6389C16.8854 18.801 16.8808 18.963 16.875 19.125C17.0606 19.125 17.2462 19.125 17.4375 19.125C17.436 19.0498 17.4346 18.9746 17.433 18.8971C17.4279 18.6177 17.4247 18.3384 17.4221 18.059C17.4206 17.9381 17.4187 17.8173 17.4163 17.6964C17.4129 17.5226 17.4113 17.3488 17.41 17.1749C17.4086 17.121 17.4071 17.0671 17.4056 17.0115C17.4055 16.7599 17.4159 16.622 17.5711 16.4191C17.7309 16.3038 17.8052 16.2743 18 16.2773C18.0464 16.2766 18.0928 16.2759 18.1406 16.2751C18.3533 16.3316 18.4288 16.4189 18.5625 16.5938C18.587 16.7969 18.5954 16.9724 18.59 17.1749C18.5896 17.2307 18.5892 17.2865 18.5888 17.344C18.5872 17.5217 18.5837 17.6993 18.5801 17.877C18.5787 17.9976 18.5774 18.1183 18.5762 18.239C18.5731 18.5343 18.5683 18.8297 18.5625 19.125C18.7481 19.125 18.9338 19.125 19.125 19.125C19.1244 19.0798 19.1238 19.0346 19.1231 18.9881C19.1169 18.5182 19.1126 18.0483 19.1096 17.5783C19.1081 17.4029 19.1062 17.2275 19.1038 17.0521C19.1004 16.8001 19.0988 16.5481 19.0975 16.296C19.0961 16.2175 19.0946 16.139 19.0931 16.0581C19.0931 15.9483 19.0931 15.9483 19.0931 15.8363C19.0924 15.772 19.0918 15.7077 19.0912 15.6414C19.1535 15.3235 19.3663 15.1473 19.6875 15.1523Z" fill="white"/>
</g>
<defs>
<clipPath id="clip0_172_812">
<rect width="36" height="36" fill="white"/>
</clipPath>
</defs>
</svg>
