<svg xmlns="http://www.w3.org/2000/svg" xmlns:xlink="http://www.w3.org/1999/xlink" viewBox="0,0,256,256" width="480px" height="480px" fill-rule="nonzero"><g fill="#ffffff" fill-rule="nonzero" stroke="none" stroke-width="1" stroke-linecap="butt" stroke-linejoin="miter" stroke-miterlimit="10" stroke-dasharray="" stroke-dashoffset="0" font-family="none" font-weight="none" font-size="none" text-anchor="none" style="mix-blend-mode: normal"><g transform="scale(8.53333,8.53333)"><path d="M15,3c-3.926,0 -7.40184,1.89455 -9.58984,4.81055l4.3418,4.3418c1.016,-1.869 2.97205,-3.15234 5.24805,-3.15234c1.342,0 2.56836,0.45522 3.56836,1.19922h7.23242l-5.43164,2.17188c0.391,0.797 0.63086,1.68191 0.63086,2.62891c0,1.972 -0.96464,3.70778 -2.43164,4.80078h0.03125l-4.75977,7.14063c0.381,0.037 0.76816,0.05859 1.16016,0.05859c6.628,0 12,-5.372 12,-12c0,-6.628 -5.372,-12 -12,-12zM5.40625,7.8125c-1.504,2.005 -2.40625,4.4875 -2.40625,7.1875c0,6.229 4.74731,11.34645 10.82031,11.93945l2.00781,-6.02344c-0.274,0.038 -0.54513,0.08398 -0.82812,0.08398c-3.313,0 -6,-2.687 -6,-6zM15,11c-2.20914,0 -4,1.79086 -4,4c0,2.20914 1.79086,4 4,4c2.20914,0 4,-1.79086 4,-4c0,-2.20914 -1.79086,-4 -4,-4z"></path></g></g></svg>