<svg width="80" height="32" viewBox="0 0 80 32" fill="none" xmlns="http://www.w3.org/2000/svg">
<g clip-path="url(#clip0_302_2)">
<path d="M0.902845 20.2393C0.525573 18.8653 0.333496 17.4383 0.333496 16.0009C0.333496 9.43955 4.45434 3.44008 10.5884 1.07422L11.3927 3.1557C6.11261 5.19264 2.56626 10.3543 2.56626 16.0009C2.56626 17.2395 2.73088 18.4661 3.055 19.6482L0.902845 20.2393Z" fill="#69D3A7"/>
<path d="M28.634 9.6622C26.2469 5.0795 21.5481 2.23224 16.3744 2.23224C14.5412 2.23224 12.7594 2.58515 11.0823 3.27897L10.2266 1.21805C12.1764 0.411155 14.2445 0 16.3744 0C22.385 0 27.8417 3.30639 30.6146 8.63087L28.634 9.6622Z" fill="url(#paint0_linear_302_2)"/>
<path d="M11.5844 12.6997C12.8791 12.6997 13.9338 13.3901 14.4757 14.5944L14.5186 14.6887L16.693 13.9503L16.6467 13.8389C15.8047 11.7883 13.8652 10.5137 11.5844 10.5137C9.98096 10.5137 8.67769 11.0277 7.60076 12.0829C6.53065 13.1314 5.98877 14.4505 5.98877 16.0043C5.98877 17.5445 6.53065 18.8567 7.60076 19.9052C8.67769 20.9605 9.98096 21.4745 11.5844 21.4745C13.8652 21.4745 15.8047 20.1999 16.6467 18.1509L16.693 18.0396L14.5151 17.2995L14.474 17.3971C13.9886 18.5809 12.9083 19.2885 11.5844 19.2885C10.6824 19.2885 9.92096 18.9733 9.31729 18.3531C8.70682 17.7243 8.39816 16.9346 8.39816 16.0061C8.39816 15.0707 8.69996 14.2963 9.31729 13.6385C9.91922 13.0149 10.6824 12.6997 11.5844 12.6997Z" fill="white"/>
<path d="M38.3795 12.0847C37.3763 11.0431 36.1245 10.5137 34.6566 10.5137C33.1989 10.5137 31.9985 11.0328 31.0862 12.0555V10.7159H28.7368V25.3136H31.0862V19.9326C31.9985 20.9554 33.1972 21.4745 34.6566 21.4745C36.1245 21.4745 37.378 20.9451 38.3812 19.9018C39.369 18.8533 39.868 17.5427 39.868 16.0043C39.8664 14.4505 39.3673 13.1331 38.3795 12.0847ZM36.5378 18.3497C35.9358 18.9715 35.1728 19.2851 34.2724 19.2851C33.3584 19.2851 32.6176 18.9784 32.0054 18.3497C31.3949 17.7209 31.0862 16.9312 31.0862 16.0027C31.0862 15.0467 31.3863 14.2723 32.0054 13.6351C32.6159 13.0046 33.3567 12.6997 34.2724 12.6997C35.1744 12.6997 35.9358 13.0149 36.5378 13.6351C37.1431 14.2587 37.4364 15.033 37.4364 16.0027C37.4364 16.9586 37.1414 17.7261 36.5378 18.3497Z" fill="white"/>
<path d="M43.6922 11.9732V10.7157H41.3428V21.2705H43.6922V15.3155C43.6922 14.3613 44.0763 13.6315 44.8342 13.1467C45.5871 12.6653 46.4908 12.5762 47.597 12.8777L47.7392 12.9171V10.6592L47.6518 10.6386C46.1667 10.284 44.6765 10.7945 43.6922 11.9732Z" fill="white"/>
<path d="M53.834 10.5137C52.2855 10.5137 50.9719 11.0413 49.9293 12.0829C48.8729 13.1383 48.3379 14.4574 48.3379 16.0043C48.3379 17.5445 48.8798 18.8567 49.9498 19.9052C51.0268 20.9605 52.3301 21.4745 53.9335 21.4745C56.1062 21.4745 57.9738 20.3712 58.9306 18.5227L58.9855 18.4165L56.998 17.5359L56.95 17.6301C56.3738 18.7437 55.2677 19.4084 53.9952 19.4084C52.3421 19.4084 51.0765 18.3993 50.7336 16.8249H59.2564L59.2668 16.7239C59.452 15.021 59.013 13.5443 57.9652 12.3331C56.9225 11.1253 55.5318 10.5137 53.834 10.5137ZM50.8038 14.9405C51.2206 13.4997 52.397 12.5781 53.834 12.5781C55.3106 12.5781 56.487 13.4997 56.8676 14.9405H50.8038Z" fill="white"/>
<path d="M65.5431 14.997C64.2621 14.7572 63.156 14.5482 63.156 13.6573C63.156 12.9498 63.9088 12.4564 64.9857 12.4564C66.1741 12.4564 66.8258 12.9669 66.9784 14.017L66.9956 14.1353L69.3447 13.6436L69.328 13.5374C69.012 11.6718 67.3487 10.512 64.9875 10.512C63.8025 10.512 62.7993 10.8186 62.007 11.4234C61.1976 12.0247 60.7877 12.8093 60.7877 13.7584C60.7877 15.1323 61.6589 16.1636 63.1217 16.5166C63.5007 16.6056 63.9019 16.6776 64.2895 16.7496C65.7454 17.0151 67.1207 17.2669 67.1207 18.2468C67.1207 19.0024 66.2427 19.5283 64.9875 19.5283C63.7099 19.5283 63.0051 19.0178 62.8319 17.9659L62.813 17.8494L60.4653 18.3411L60.4842 18.449C60.8255 20.342 62.5077 21.4727 64.9857 21.4727C66.2445 21.4727 67.3233 21.1592 68.1873 20.5425C69.052 19.9326 69.4887 19.1462 69.4887 18.2057C69.4887 15.7388 67.3027 15.3276 65.5431 14.997Z" fill="white"/>
<path d="M75.7209 14.997C74.4402 14.7572 73.3342 14.5482 73.3342 13.6573C73.3342 12.9498 74.0869 12.4564 75.1636 12.4564C76.3522 12.4564 77.0036 12.9669 77.1562 14.017L77.1736 14.1353L79.5229 13.6436L79.5056 13.5374C79.1902 11.6718 77.5269 10.512 75.1656 10.512C73.9802 10.512 72.9769 10.8186 72.1849 11.4234C71.3756 12.0247 70.9656 12.8093 70.9656 13.7584C70.9656 15.1323 71.8369 16.1636 73.2996 16.5166C73.6789 16.6056 74.0796 16.6776 74.4676 16.7496C75.9236 17.0151 77.2989 17.2669 77.2989 18.2468C77.2989 19.0024 76.4209 19.5283 75.1656 19.5283C73.8876 19.5283 73.1829 19.0178 73.0096 17.9659L72.9909 17.8494L70.6436 18.3411L70.6622 18.449C71.0036 20.342 72.6856 21.4727 75.1636 21.4727C76.4222 21.4727 77.5009 21.1592 78.3656 20.5425C79.2296 19.9326 79.6669 19.1462 79.6669 18.2057C79.6669 15.7388 77.4802 15.3276 75.7209 14.997Z" fill="white"/>
<path d="M25.2039 10.7158L22.1051 18.5569L18.9858 10.7158H16.4341L20.8087 21.4179L17.6962 28.966L19.9273 29.4098L27.615 10.7158H25.2039Z" fill="white"/>
<path d="M18.0958 27.993L17.5522 29.3087C17.4441 29.5691 17.1972 29.7455 16.9194 29.7575C16.7359 29.7644 16.5507 29.7695 16.3638 29.7695C9.96556 29.7661 4.30478 25.2554 2.90202 19.04L0.724121 19.5317C1.51125 23.018 3.48679 26.1822 6.28717 28.4436C9.12016 30.7306 12.6888 31.9932 16.3398 32C16.3449 32 16.3723 32 16.3723 32C16.5867 32 16.7993 31.9949 17.012 31.9864C18.1575 31.9384 19.1813 31.2206 19.6186 30.1567L20.3285 28.4367L18.0958 27.993Z" fill="url(#paint1_linear_302_2)"/>
</g>
<defs>
<linearGradient id="paint0_linear_302_2" x1="14.7052" y1="-1.03295" x2="26.8818" y2="11.9815" gradientUnits="userSpaceOnUse">
<stop stop-color="#58D09E"/>
<stop offset="1" stop-color="white"/>
</linearGradient>
<linearGradient id="paint1_linear_302_2" x1="0.162552" y1="23.281" x2="23.4255" y2="29.4728" gradientUnits="userSpaceOnUse">
<stop offset="0.0774" stop-color="#58D09E"/>
<stop offset="0.7617" stop-color="white"/>
</linearGradient>
<clipPath id="clip0_302_2">
<rect width="80" height="32" fill="white"/>
</clipPath>
</defs>
</svg>
