<?xml version="1.0" standalone="no"?>
<!DOCTYPE svg PUBLIC "-//W3C//DTD SVG 20010904//EN"
 "http://www.w3.org/TR/2001/REC-SVG-20010904/DTD/svg10.dtd">
<svg version="1.0" xmlns="http://www.w3.org/2000/svg"
 width="300.000000pt" height="300.000000pt" viewBox="0 0 300.000000 300.000000"
 preserveAspectRatio="xMidYMid meet">
<metadata>
Created by potrace 1.10, written by Peter Selinger 2001-2011
</metadata>
<g transform="translate(0.000000,300.000000) scale(0.100000,-0.100000)"
fill="#000000" stroke="none">
<path d="M1797 2894 c-26 -88 -666 -2769 -662 -2773 8 -7 135 -38 135 -32 0 5
655 2725 666 2768 5 19 0 23 -33 32 -87 24 -101 24 -106 5z m80 -46 c4 -7 6
-22 4 -33 -2 -19 -132 -562 -222 -935 -22 -91 -123 -509 -225 -930 -101 -421
-187 -775 -190 -787 -7 -25 -35 -30 -52 -10 -8 9 -7 30 3 73 7 32 86 360 175
729 89 369 224 929 300 1246 172 716 157 659 180 659 10 0 22 -6 27 -12z"/>
<path d="M337 1841 c-180 -181 -327 -334 -327 -341 0 -7 148 -161 330 -344
l329 -331 51 50 51 51 -278 283 c-153 156 -278 287 -278 291 0 4 125 135 277
291 l278 284 -47 47 c-26 27 -50 48 -53 48 -4 0 -153 -148 -333 -329z m358
249 c18 -20 15 -24 -242 -283 -143 -144 -266 -272 -272 -285 -10 -19 -9 -28 8
-55 11 -18 131 -142 266 -277 135 -135 245 -252 245 -261 0 -9 -7 -22 -15 -29
-19 -15 -50 13 -400 368 l-230 232 305 305 c168 168 308 305 311 305 3 0 14
-9 24 -20z"/>
<path d="M2278 2123 l-47 -48 282 -287 282 -288 -282 -287 -283 -288 50 -50
51 -50 329 331 c182 182 330 337 330 344 0 12 -648 670 -660 670 -3 0 -27 -21
-52 -47z m352 -308 c162 -162 296 -303 298 -313 2 -11 -100 -119 -297 -316
-260 -259 -302 -298 -315 -287 -9 8 -16 21 -16 30 0 9 110 126 245 261 135
135 255 259 266 277 17 27 18 36 8 55 -6 13 -129 141 -272 285 -257 259 -260
263 -242 283 10 11 21 20 24 20 4 0 139 -133 301 -295z"/>
</g>
</svg>
