<svg xmlns="http://www.w3.org/2000/svg" xmlns:xlink="http://www.w3.org/1999/xlink" viewBox="0,0,256,256" width="500px" height="500px" fill-rule="nonzero"><g fill="#ffffff" fill-rule="nonzero" stroke="none" stroke-width="1" stroke-linecap="butt" stroke-linejoin="miter" stroke-miterlimit="10" stroke-dasharray="" stroke-dashoffset="0" font-family="none" font-weight="none" font-size="none" text-anchor="none" style="mix-blend-mode: normal"><g transform="scale(5.12,5.12)"><path d="M27.99609,2c-6.14062,0.03906 -10.42578,1.05859 -13.32031,2.67578c-2.64062,1.47656 -3.97656,3.52734 -4.43359,5.61719c-0.45703,0.23047 -1.20703,0.68359 -1.86719,1.81641c-0.86328,1.46484 -1.23828,3.92969 -0.41016,7.55078c-1.23828,0.9375 -2.04297,2.32813 -2.23047,3.86719c-0.21875,1.80469 0.22656,3.75781 1.53516,5.15625c1.15234,1.23438 2.40625,1.77734 3.37109,1.98438c0.41016,0.08594 0.4375,0.02734 0.73438,0.02734c0.16016,0.85156 0.71484,2.89844 1.85547,5.14844c-0.76562,0.43359 -2.64062,1.48438 -4.94922,2.82422c-1.32812,0.76953 -2.64062,1.54688 -3.63281,2.16016c-0.5,0.30859 -0.91406,0.57422 -1.22656,0.79297c-0.16016,0.10547 -0.28906,0.19922 -0.41016,0.30078c-0.0625,0.05469 -0.12109,0.10547 -0.19141,0.1875c-0.07422,0.08203 -0.23047,0.13672 -0.28125,0.60938l-0.07812,0.67578l1.86719,4.60547h40.49609l0.15625,-0.80859c0,0 0.27734,-1.40234 0.53906,-2.98828c0.26563,-1.58984 0.54688,-3.21484 0.48047,-4.26953c-0.02734,-0.39453 -0.17187,-0.55469 -0.27734,-0.69141c-0.10156,-0.13672 -0.20312,-0.23828 -0.3125,-0.33984c-0.22266,-0.20703 -0.48047,-0.40625 -0.78516,-0.62109c-0.60156,-0.43359 -1.35937,-0.91797 -2.12109,-1.38672c-1.03125,-0.62891 -1.5,-0.88672 -2.05078,-1.20312c0.53906,-0.77344 1.25,-1.92578 2.01172,-3.80469c1.26563,-3.12891 2.40625,-7.80469 1.96875,-14.01172c-0.41797,-5.85937 -2.46094,-9.91797 -5.48828,-12.4375c-2.77344,-2.30859 -6.28906,-3.28125 -9.94531,-3.41406v-0.02344c-0.11328,0 -0.21875,0.01563 -0.32812,0.01563c-0.22656,-0.00391 -0.45312,-0.01562 -0.67578,-0.01562zM28.66797,4.01563c3.43359,0.08203 6.58984,0.95313 9,2.96094c1.30078,1.08203 2.40625,2.50391 3.23438,4.35547c-0.37109,-0.14453 -0.74609,-0.25391 -1.09766,-0.31641c-0.39844,-0.07422 -0.78516,-0.10937 -1.14453,-0.12109c-1.06641,-0.03906 -1.85547,0.125 -1.85547,0.125l0.39063,1.96094c0,0 1.09375,-0.20703 2.25,0.00391c1.15625,0.21094 2.18359,0.65625 2.58594,2.25781l0.03516,-0.00781c0.11328,0.59375 0.20313,1.22266 0.27344,1.88281c-0.15234,-0.27344 -0.29687,-0.53906 -0.46094,-0.83203c-0.51172,-0.91016 -1.01172,-1.78516 -1.01172,-1.78516l-1.73437,1c0,0 0.49609,0.86719 1.00391,1.76563c0.22656,0.40234 0.44531,0.79688 0.62891,1.13281c-0.65234,0.01953 -1.64844,-0.11719 -2.48828,-0.35937l-0.55469,1.92188c1.03906,0.30078 2.16016,0.46484 3.11328,0.4375c0.47656,-0.01562 0.91016,-0.05469 1.36328,-0.26953c0.10156,-0.05078 0.21094,-0.11328 0.31641,-0.19531c0.08984,4.92578 -0.87109,8.64844 -1.90625,11.20313c-0.80469,1.98828 -1.60156,3.19141 -2.03125,3.76953l-0.06641,-0.04687c0,0 -1.99219,3.14063 -6.51172,3.14063c-4.70312,0 -8.91406,-2.24609 -10.26953,-3.6875c-1.42187,-1.50391 -1.74219,-3.46094 -1.74219,-3.46094l-1.97656,0.29688c0,0 0.35547,2.51563 2.25781,4.53906c0.65625,0.69141 1.60547,1.39453 2.74609,2.03125c-0.53906,0.17578 -1.05469,0.48828 -1.42187,0.99219c-0.05859,0.08203 -0.09766,0.17188 -0.14453,0.25781c-2.30859,-0.13672 -3.79297,-0.89844 -4.73047,-1.64062c-0.85156,-0.67187 -1.15625,-1.17969 -1.25,-1.35156l-0.13672,-0.22266c-1.05078,-1.70312 -1.6875,-4.06641 -1.97266,-5.3125c0.49609,-0.37891 1.03516,-0.99219 1.53516,-1.99219l-1.78906,-0.89844c-0.30469,0.61328 -0.58203,0.95703 -0.79297,1.16406l-0.3125,0.05469c0,0 -0.32031,0.07031 -0.94141,-0.0625c-0.625,-0.12891 -1.46094,-0.46484 -2.32812,-1.39062c-0.80859,-0.86328 -1.16797,-2.25 -1.01172,-3.55078c0.16016,-1.30078 0.80469,-2.40625 1.73047,-2.875l0.03906,-0.01562c1.10156,-0.61719 1.77734,-0.67578 2.15625,-0.59375c0.38281,0.08594 0.61328,0.30078 0.83594,0.6875c0.44922,0.77344 0.51953,2.04688 0.51953,2.04688l0.01953,1.59375l4,-2l-0.01953,-0.64062c0,0 -0.04687,-0.97656 -0.55078,-2.41406c-0.26562,-0.74609 -0.08203,-1.80859 0.32422,-2.95703c0.40625,-1.14844 0.99609,-2.28125 1.21094,-3.41016c0.23438,-1.24219 -0.14844,-2.22656 -0.51953,-2.85547c0.38281,-0.6875 1.01563,-1.64062 2.01563,-2.64453c1.79297,-1.79687 4.65234,-3.58594 9.1875,-3.67187zM19.65625,4.92188c-0.59375,0.4375 -1.13281,0.89453 -1.59375,1.35547c-0.96484,0.96875 -1.65234,1.94141 -2.125,2.72266l-0.03125,0.00391c-1.26562,0.12109 -2.49219,0.40234 -3.50391,0.67578c0.51172,-1.15625 1.50391,-2.28125 3.25,-3.25781c1.04688,-0.58594 2.38281,-1.09766 4.00391,-1.5zM25.26953,10.80078c-1.79687,0.02344 -3.10937,0.72266 -3.91016,1.55859c-1.07031,1.12109 -1.33984,2.43359 -1.33984,2.43359l1.96094,0.41406c0,0 0.17188,-0.78125 0.82422,-1.46094c0.65234,-0.67969 1.67578,-1.30469 3.96875,-0.77344l0.45313,-1.94531c-0.70703,-0.16797 -1.35937,-0.23437 -1.95703,-0.22656zM15.54688,11.10547c0.36328,0.46094 0.64844,0.76953 0.46875,1.70703c-0.11719,0.62891 -0.66797,1.82422 -1.125,3.12109c-0.46094,1.29297 -0.85547,2.79688 -0.32812,4.28516c0.29297,0.83594 0.26563,0.97656 0.29688,1.23438l-0.11719,0.05859c-0.11328,-0.49609 -0.22266,-1.01172 -0.53125,-1.54687c-0.41016,-0.70703 -1.12109,-1.41406 -2.14062,-1.63672c-0.70703,-0.15234 -1.5,-0.05859 -2.36719,0.25781c-0.58984,-2.92969 -0.13281,-4.5625 0.39453,-5.46484c0.30078,-0.50781 0.60156,-0.80078 0.82813,-0.96484l0.02734,0.06641c0,0 2.31641,-0.80469 4.59375,-1.11719zM28.94141,14.66797l-1.88281,0.66406c0,0 0.30469,0.87891 0.69531,1.88672c0.32422,0.84375 0.67969,1.65625 1.03125,2.33594c-0.42969,0.05469 -1.26172,0.01563 -2.38672,-0.47266l-0.79687,1.83594c1.48047,0.64063 2.73828,0.83984 3.75781,0.63281c0.51172,-0.10156 1.01953,-0.3125 1.35938,-0.82031c0.33984,-0.51172 0.27734,-1.26172 -0.01172,-1.74219c-0.21094,-0.34766 -0.70703,-1.50781 -1.08594,-2.48828c-0.37891,-0.97656 -0.67969,-1.83203 -0.67969,-1.83203zM35,15.96875l-2,0.0625c0,0 0.12891,3.80859 3.32813,6.70703c1.33984,1.21484 2.01172,2.01953 2.14063,2.30078c0.01953,0.03906 0.01953,0.03516 0.02734,0.04688c0,-0.01562 -0.01172,0.03125 -0.16406,0.16797c-0.21875,0.19922 -1.25,0.75781 -2.33203,1.13672c-1.08594,0.375 -2.30859,0.62891 -2.97266,0.60938c-0.24609,-0.00781 -0.22656,-0.03516 -0.19922,-0.01562c0,-0.01172 -0.00391,-0.01562 -0.00391,-0.05078c-0.01172,-0.19141 0.09766,-0.55469 0.09766,-0.55469l-1.84375,-0.75781c0,0 -0.29297,0.61328 -0.25391,1.41016c0.01953,0.39844 0.14063,0.90625 0.53125,1.32031c0.38672,0.41406 0.98438,0.63281 1.61719,0.64844c1.14063,0.03125 2.44922,-0.29687 3.67969,-0.71875c1.23047,-0.42578 2.29688,-0.89062 3.01563,-1.53516c0.29688,-0.26953 0.60156,-0.59766 0.75391,-1.07812c0.14844,-0.48047 0.06641,-1.03906 -0.14062,-1.48047c-0.42187,-0.89062 -1.22266,-1.66797 -2.60937,-2.92578c-2.58203,-2.34375 -2.67187,-5.29297 -2.67187,-5.29297zM10.37891,22.21484c0,0 -1.82031,1.53125 -1.36328,3.96875l1.96875,-0.36719c-0.26562,-1.41016 0.63672,-2.03125 0.63672,-2.03125zM28.62891,28.22266l-1.25781,1.55469c3.53906,2.875 7.78125,2.21094 7.78125,2.21094l-0.30469,-1.97656c0,0 -3.39844,0.50391 -6.21875,-1.78906zM39.25,28.33984c-1.24219,1.41016 -3.34375,1.66406 -3.34375,1.66406l0.1875,1.99219c0,0 2.78906,-0.20703 4.65625,-2.33594zM27.96484,31.73047l-1.92969,0.53906c0.34375,1.22266 1.25,2.06641 2.23828,2.51172c0.98828,0.44531 2.07422,0.58203 3.08984,0.60547c2.03516,0.03906 3.87109,-0.41406 3.87109,-0.41406l-0.46875,-1.94531c0,0 -1.65234,0.39063 -3.35937,0.35938c-0.85547,-0.01953 -1.70312,-0.15234 -2.3125,-0.42969c-0.60547,-0.27344 -0.95703,-0.60156 -1.12891,-1.22656zM39.07031,37.19141c0.52734,0.30078 1.36328,0.78125 2.39063,1.41016c0.73438,0.45313 1.47266,0.92188 1.99609,1.30469c0.23047,0.16406 0.39453,0.29688 0.51563,0.40234c-0.00391,0.52734 -0.17969,2.10938 -0.42578,3.56641c-0.1875,1.125 -0.28906,1.64063 -0.37891,2.125h-3.96484c0.08203,-0.03516 0.16406,-0.06641 0.24609,-0.10547c0.61328,-0.30859 0.98047,-0.85547 1.20313,-1.39453c0.22266,-0.53516 0.32813,-1.10547 0.39063,-1.67187c0.11719,-1.13281 0.03125,-2.26562 -0.05078,-2.94531c-0.13281,-1.12891 -0.84766,-1.99219 -1.67187,-2.42578c-0.12109,-0.0625 -0.24219,-0.10156 -0.36719,-0.14844c0.04297,-0.04297 0.07422,-0.07812 0.11719,-0.11719zM14.02734,37.69141c0.32813,0.66016 0.87109,1.60547 1.78516,2.79688c1.69141,2.19922 4.33984,3.68359 5.30078,4.18359c0.03906,0.38281 0.08984,0.74609 0.17188,1.08203c0.02344,0.08203 0.05078,0.16406 0.07422,0.24609h-15.6875l-1.10547,-2.74219c0.25781,-0.17969 0.65234,-0.43359 1.13281,-0.73047c0.96094,-0.59375 2.26563,-1.36328 3.58594,-2.12891c2.19922,-1.27344 3.83594,-2.19531 4.74219,-2.70703zM37.4375,39.03125c0.32813,-0.00781 0.69141,0.0625 0.95313,0.20313c0.35547,0.18359 0.55859,0.39453 0.61719,0.88281c0.06641,0.57031 0.13672,1.61719 0.04297,2.50391c-0.04687,0.44531 -0.13672,0.85156 -0.24609,1.11328c-0.10937,0.26563 -0.21484,0.35156 -0.25391,0.37109c-0.69922,0.35156 -1.77734,0.39063 -2.67578,0.27734c-0.89844,-0.11328 -1.55859,-0.33203 -1.55859,-0.33203l-0.15625,-0.05078h-3.39062l-0.20312,0.09766c0,0 -0.99609,0.48047 -2.33984,0.96094c-1.34375,0.48047 -3.04297,0.94141 -4.22656,0.94141c-0.33203,0 -0.41797,-0.05469 -0.49219,-0.12109c-0.07422,-0.06641 -0.1875,-0.22656 -0.27734,-0.60156c-0.1875,-0.75391 -0.20312,-2.20312 -0.17187,-4.14062l0.00391,-0.07031l-0.01172,-0.0625c-0.07422,-0.65234 0.04297,-0.95703 0.15625,-1.11328c0.11719,-0.15625 0.28906,-0.26562 0.64844,-0.32812c0.71484,-0.11719 2.00781,0.17188 2.98828,0.65234l0.01563,0.00391l3.92188,1.78125h1.57422l0.27344,-0.22266c0.54297,-0.4375 1.54297,-1.12109 2.48047,-1.6875c0.46484,-0.28125 0.92188,-0.53906 1.29688,-0.72656c0.375,-0.1875 0.70703,-0.30078 0.71094,-0.30078h0.00391c0.09766,-0.01953 0.20313,-0.02734 0.31641,-0.03125zM31.17188,39.98047c0.17578,0.00391 0.35547,0.00781 0.53516,0.01172c-0.00391,0.00391 -0.00781,0.00391 -0.00781,0.00781h-0.48047zM18.76172,40.44141c0.70313,0.21094 1.44141,0.40625 2.28906,0.5c0.00781,0.10156 0.00391,0.19141 0.01563,0.29297l-0.00781,-0.12891c-0.00781,0.40625 0,0.71875 -0.00391,1.08984c-0.68359,-0.46875 -1.51562,-1.07422 -2.29297,-1.75391z"></path></g></g></svg>