<svg width="800" height="300" viewBox="0 0 800 300" fill="none" xmlns="http://www.w3.org/2000/svg">
<path d="M145 9.66657C145 9.66657 136.767 -3.66677 127.1 2.06657C122.433 4.86657 114.633 12.6666 105.333 23.9999L113.9 40.1333C119.156 32.5043 124.914 25.2328 131.133 18.3666C128.5 21.3666 122.933 28.2999 115 40.4332C126.133 39.6666 137.2 38.2999 148.2 36.3332C151.5 18.0332 145 9.66657 145 9.66657ZM30.3333 217.333C21.0331 242.984 12.43 268.883 4.53333 295C4.20585 296.054 3.61929 297.009 2.82732 297.778C2.03535 298.546 1.06326 299.104 0 299.4C7.66667 274.067 15.2667 250.2 22.9 228.6C18.1333 227.5 11.3667 228.833 3.1 232.267C8.76667 227.933 14.4 224.2 19.7667 223.867C18.0667 223.5 13.6667 221.967 7.76667 216.533C13.4 218.633 18.3 219.667 21.8333 218.933C21.1 209.533 16.0333 199.933 9.36667 190.267C9.33333 190.2 18.7 195.633 22.1333 201.267L22.2 200.5C22.7667 193.167 23.8 185.9 25.3 178.7V178.633C26.4333 172.833 27.8333 167.033 29.5333 161.233L31.7333 153.8C32.6667 150.9 33.7333 147.933 34.8333 144.8C38.5 134.767 42.6667 124.933 47.3333 115.333L48.5333 112.933C52.8 104.367 57.3333 95.8999 62.1333 87.5999C64.6667 83.1666 67.2667 78.8666 69.8333 74.5999C70.0667 74.3666 70.2 74.0332 70.4 73.7332L70.3333 73.6666L70.6 73.2332C78.4667 60.5666 86.8667 48.2332 95.7333 36.2999C98.2038 32.9545 100.749 29.6648 103.367 26.4332L105.3 24.0332L113.833 40.0999C110.752 44.5192 107.773 49.0093 104.9 53.5666C99.1667 62.7666 93.7333 72.1999 88.6667 81.7666L81.4333 95.5666L74.0333 80.9333L81.3667 95.5999L81.1333 96.0999C79.6667 99.0999 78.1333 102.1 76.7 105.1C75.8216 106.867 74.966 108.645 74.1333 110.433L67.2667 125.233C60.6792 140.058 54.345 154.993 48.2667 170.033L42.2667 185.267C41.8319 186.415 41.3875 187.559 40.9333 188.7C39.4667 192.733 37.9 196.667 36.4667 200.6V200.733L35.3667 203.667L30.6667 216.367L30.3333 217.333ZM138.167 63.2332C134.87 69.7148 131.151 75.9727 127.033 81.9666C123.5 86.9332 119.833 90.2999 111.8 94.0666L112.533 93.9332C112.6 93.8666 112.633 93.8666 112.733 93.8666C116.9 93.0999 122.067 91.3999 125.067 89.6332C125.497 89.4147 125.9 89.1462 126.267 88.8332C126.098 89.8334 125.875 90.8237 125.6 91.7999C125.4 92.6332 125.067 93.5999 124.733 94.6332L124.333 95.7332L123.133 98.7999C122.105 101.357 120.971 103.87 119.733 106.333C119.467 106.967 119.133 107.6 118.8 108.233L118 109.533C117.177 110.899 116.24 112.192 115.2 113.4L113.867 114.867C112.683 116.067 111.425 117.191 110.1 118.233C107.324 120.283 104.3 121.974 101.1 123.267L101.667 123.2L103.8 122.833C108.1 121.8 112.167 120 115.833 117.5C111.233 126.667 104.967 134.067 94.9 137.9L96.6333 137.667L98.3 137.3C101.24 136.719 104.088 135.744 106.767 134.4C104.98 139.942 102.978 145.413 100.767 150.8C98.4 156.6 95.9333 161.8 93.2667 166.467C90.0228 172.313 86.1074 177.761 81.6 182.7C72.4 192.633 58.1 200.7 47.3667 202.033L47.9 202.133C60.1 204.667 72.7333 200.567 81.1 191.333C80.0059 193.457 78.8272 195.537 77.5667 197.567C72.6333 205.567 66.9667 210.433 55.7667 215.467C63.4333 215.9 67.4333 214.1 70.7 209.967C70.1668 211.1 69.5885 212.212 68.9667 213.3C61.8 225.167 47.8333 229.233 31.7333 228.5C35.2085 231.692 37.2913 236.121 37.5333 240.833C35.0667 236.367 32.4667 232.467 29.1667 230.933L33.0333 219.8C33.2223 219.188 33.4449 218.587 33.7 218V217.8L38.1 205.467C38.4235 204.702 38.7126 203.924 38.9667 203.133L39.0667 202.8L44.7333 187.667L44.9667 186.933L50.5667 172.433C52.6 167.133 54.7 162.033 56.7 157.1C60.8 147.067 65.0333 137.1 69.4333 127.2C71.1667 123.333 72.8 119.6 74.5 116L76.1667 112.4L79.4 105.567C80.3333 103.467 81.3667 101.5 82.3333 99.4666L83.2333 97.5332C83.3 97.4666 83.3333 97.3332 83.3 97.1666L83.5 97.1332C85.9667 92.1332 88.2667 87.4332 90.6 83.0332C95.6 73.3666 100.9 63.8332 106.4 54.4666L106.833 53.6999C109.767 48.7666 112.533 44.3666 115.033 40.4999C126.133 39.7332 137.2 38.3666 148.2 36.4999C147.833 38.2332 147.467 40.0666 146.933 41.9999C146.2 44.5322 145.366 47.0342 144.433 49.4999C142.608 54.1991 140.528 58.7949 138.2 63.2666L138.167 63.2332ZM216.533 85.6999V238.9C216.533 248.233 215.167 256.467 212.367 263.3C209.869 269.825 205.873 275.671 200.7 280.367C195.626 284.988 189.576 288.406 183 290.367C176.233 292.467 168.667 293.533 160.533 293.533C153.138 293.607 145.761 292.779 138.567 291.067C138.129 290.944 137.743 290.683 137.467 290.322C137.19 289.962 137.038 289.521 137.033 289.067V261C137.032 260.686 137.1 260.376 137.234 260.093C137.367 259.809 137.563 259.559 137.806 259.361C138.049 259.163 138.333 259.021 138.638 258.947C138.942 258.873 139.26 258.869 139.567 258.933C142.133 259.533 144.967 260.033 147.9 260.433C153.3 261.233 160.433 261.433 165.9 260.1C168.383 259.49 170.683 258.294 172.609 256.612C174.534 254.93 176.029 252.811 176.967 250.433C178.213 247.1 178.802 243.557 178.7 240V85.6666C178.7 84.4999 179.6 83.5666 180.767 83.5666H214.433C215.633 83.5666 216.533 84.4999 216.533 85.6666V85.6999ZM502.8 133.7C497.978 128.709 492.069 124.899 485.533 122.567C478.328 119.939 470.702 118.651 463.033 118.767C454.567 118.767 446.7 120.133 439.633 122.933C432.7 125.667 426.467 129.933 421.467 135.5C416.207 141.507 412.236 148.53 409.8 156.133C406.901 165.395 405.516 175.064 405.7 184.767C405.7 195.433 407.167 204.967 410.2 213.033C413.267 221.033 417.6 227.8 423.067 233.133C428.533 238.367 435.2 242.333 442.733 244.967C450.706 247.624 459.062 248.953 467.467 248.9C472.233 248.9 476.367 248.733 480.033 248.4C486.975 247.873 493.814 246.416 500.367 244.067C503.533 242.967 506.6 241.6 509.467 240.067C509.805 239.896 510.087 239.634 510.282 239.309C510.477 238.985 510.576 238.612 510.567 238.233V212.567C510.556 212.218 510.459 211.877 510.283 211.575C510.108 211.274 509.86 211.02 509.563 210.838C509.265 210.656 508.926 210.551 508.578 210.533C508.229 210.515 507.882 210.584 507.567 210.733C498.962 215.26 489.633 218.25 480 219.567C476.6 219.9 473.2 220.067 469.767 220.033C465.996 220.118 462.242 219.496 458.7 218.2C455.652 216.987 452.892 215.147 450.6 212.8C448.329 210.238 446.575 207.261 445.433 204.033C444.368 200.852 443.718 197.547 443.5 194.2H515.4C515.951 194.2 516.48 193.983 516.873 193.597C517.266 193.21 517.491 192.684 517.5 192.133V176.033C517.644 167.818 516.358 159.641 513.7 151.867C511.438 145.097 507.717 138.907 502.8 133.733V133.7ZM444.2 168C444.933 160.8 446.9 155.433 450.067 152.067C451.737 150.252 453.776 148.817 456.047 147.857C458.318 146.896 460.768 146.434 463.233 146.5C466.064 146.437 468.87 147.03 471.433 148.233C473.767 149.333 475.767 151 477.3 153.033C478.921 155.234 480.109 157.722 480.8 160.367C481.467 162.733 481.9 165.3 482.067 168H444.2ZM799.967 121.767V152.9C799.966 153.213 799.894 153.523 799.756 153.804C799.618 154.086 799.418 154.332 799.17 154.525C798.923 154.718 798.635 154.851 798.328 154.916C798.022 154.981 797.704 154.976 797.4 154.9C794.653 154.103 791.786 153.798 788.933 154L786.267 153.867C782.233 153.867 778.5 154.4 775.033 155.433C771.886 156.369 768.999 158.024 766.6 160.267C764.127 162.736 762.266 165.75 761.167 169.067C759.867 172.733 759.2 177.333 759.2 182.767V244.633C759.2 245.19 758.979 245.724 758.585 246.118C758.191 246.512 757.657 246.733 757.1 246.733H723.967C723.41 246.733 722.876 246.512 722.482 246.118C722.088 245.724 721.867 245.19 721.867 244.633V123.133C721.867 121.967 722.8 121.033 723.967 121.033H749.067C750 121.033 750.833 121.7 751.067 122.567L755.2 137.967C756.533 135.733 758.033 133.633 759.633 131.6C763.674 126.178 769.374 122.222 775.867 120.333C780.549 118.918 785.462 118.42 790.333 118.867C791.433 118.867 792.5 118.867 793.533 119.067C794.473 119.137 795.407 119.259 796.333 119.433C797.079 119.467 797.817 119.59 798.533 119.8C798.959 119.923 799.332 120.182 799.597 120.537C799.861 120.892 799.97 121.324 799.967 121.767ZM601.433 214.9C601.709 215.082 601.936 215.329 602.093 215.62C602.25 215.911 602.333 216.236 602.333 216.567V241.267C602.342 241.645 602.244 242.018 602.049 242.343C601.854 242.667 601.571 242.93 601.233 243.1C597.381 244.996 593.304 246.396 589.1 247.267C578.967 249.533 568.433 249.467 558.3 247C553.573 245.757 549.216 243.39 545.6 240.1C541.774 236.405 538.854 231.876 537.067 226.867C534.947 220.326 533.955 213.473 534.133 206.6V150H520.333C519.788 149.991 519.267 149.771 518.881 149.385C518.496 148.999 518.275 148.479 518.267 147.933V133.933C518.261 133.576 518.35 133.224 518.526 132.914C518.702 132.603 518.957 132.345 519.267 132.167L536.9 121.4L546.233 96.3999C546.382 96.0077 546.647 95.6701 546.992 95.4319C547.337 95.1938 547.747 95.0663 548.167 95.0666H569.367C570.533 95.0666 571.433 95.9999 571.433 97.1666V120.967H598.933C600.067 120.967 601.033 121.9 601.033 123.033V147.933C601.033 148.49 600.812 149.024 600.418 149.418C600.024 149.812 599.49 150.033 598.933 150.033H571.433V206.533C571.433 210.667 572.4 213.667 574.267 215.467C575.297 216.426 576.509 217.168 577.832 217.649C579.155 218.13 580.561 218.34 581.967 218.267C585.1 218.267 588 217.9 590.733 217.267C593.7 216.533 596.633 215.6 599.533 214.6C599.845 214.483 600.181 214.443 600.512 214.483C600.843 214.524 601.159 214.644 601.433 214.833V214.9ZM397.933 85.6999V244.7C397.916 245.239 397.692 245.752 397.307 246.13C396.922 246.509 396.406 246.725 395.867 246.733H364.433C363.876 246.733 363.342 246.512 362.948 246.118C362.555 245.724 362.333 245.19 362.333 244.633V162.967L362.8 147.2L363.133 139.133L363.4 132.9L329.467 245.233C329.337 245.661 329.072 246.035 328.711 246.3C328.35 246.564 327.914 246.705 327.467 246.7H296.467C296.021 246.699 295.587 246.557 295.227 246.293C294.867 246.03 294.601 245.658 294.467 245.233L263.5 134.567C264.039 144.337 264.406 154.116 264.6 163.9C264.7 166.367 264.767 168.633 264.767 170.7V244.633C264.767 245.19 264.545 245.724 264.152 246.118C263.758 246.512 263.224 246.733 262.667 246.733H232.567C232.01 246.733 231.476 246.512 231.082 246.118C230.688 245.724 230.467 245.19 230.467 244.633V85.6666C230.467 84.5332 231.367 83.5666 232.533 83.5666H278.4C279.4 83.5666 280.167 84.2332 280.433 85.1332L313.133 200.9L348 85.0999C348.134 84.6748 348.401 84.3035 348.76 84.0398C349.12 83.7761 349.554 83.6337 350 83.6332H395.867C397 83.6332 397.933 84.5332 397.933 85.6666V85.6999ZM702.433 133.7C697.622 128.712 691.725 124.902 685.2 122.567C677.984 119.934 670.347 118.646 662.667 118.767C654.233 118.767 646.333 120.133 639.3 122.933C632.367 125.667 626.133 129.933 621.133 135.5C615.873 141.507 611.902 148.53 609.467 156.133C606.567 165.4 605.133 175.067 605.333 184.767C605.333 195.433 606.867 204.967 609.833 213.033C612.933 221.033 617.267 227.8 622.733 233.133C628.2 238.367 634.867 242.333 642.4 244.967C650.373 247.624 658.729 248.953 667.133 248.9C671.9 248.9 676 248.733 679.667 248.4C689.948 247.627 699.969 244.793 709.133 240.067C709.471 239.896 709.754 239.634 709.949 239.309C710.144 238.985 710.242 238.612 710.233 238.233V212.567C710.223 212.218 710.125 211.877 709.95 211.575C709.775 211.274 709.527 211.02 709.229 210.838C708.932 210.656 708.593 210.551 708.245 210.533C707.896 210.515 707.549 210.584 707.233 210.733C698.62 215.267 689.279 218.257 679.633 219.567C676.267 219.9 672.833 220.067 669.433 220.033C665.662 220.119 661.908 219.498 658.367 218.2C655.329 216.985 652.581 215.146 650.3 212.8C648.007 210.243 646.229 207.266 645.067 204.033C644.011 200.851 643.373 197.546 643.167 194.2H715.067C715.618 194.2 716.147 193.983 716.54 193.597C716.933 193.21 717.158 192.684 717.167 192.133V176.033C717.31 167.818 716.025 159.641 713.367 151.867C711.093 145.095 707.361 138.905 702.433 133.733V133.7ZM676.933 153.033C678.564 155.232 679.763 157.721 680.467 160.367C681.133 162.733 681.567 165.3 681.733 168H643.833C644.567 160.8 646.567 155.433 649.733 152.067C651.403 150.252 653.442 148.817 655.714 147.857C657.985 146.896 660.435 146.434 662.9 146.5C665.73 146.437 668.537 147.03 671.1 148.233C673.4 149.345 675.4 150.991 676.933 153.033ZM208.667 4.33325H204.1L180.333 61.1999H186.3L193.567 43.3999H219.2L226.533 61.1999H232.533L208.733 4.26657H208.667V4.33325ZM194.7 38.9999L206.433 10.8666L217.8 38.9999H194.7ZM244.133 40.1666H262.633C272.367 40.1666 278.933 31.4332 278.933 22.1666C278.933 13.3332 271.9 4.29991 262.167 4.29991H238.567V61.2332H244.1L244.133 40.1666ZM244.133 9.2999H261.867C268.1 9.2999 273.4 15.0332 273.4 22.1666C273.4 29.0666 269.067 35.2332 262.333 35.2332H244.133V9.2999ZM281.767 61.2332L289.033 43.4333H314.6L321.933 61.2332H328.067L304.267 4.29991H299.667L275.833 61.2332H281.733H281.767ZM301.967 10.8999L313.367 38.9999H290.333L302.067 10.8666H302L301.967 10.8999ZM327.9 32.3332C327.9 18.6666 337.8 3.9999 354.9 3.9999C359.23 3.81055 363.521 4.88126 367.255 7.08221C370.988 9.28317 374.003 12.5199 375.933 16.3999L371.433 19.0999C369.915 15.9676 367.519 13.3448 364.535 11.5514C361.552 9.75795 358.112 8.87142 354.633 8.99991C341.033 8.99991 333.567 21.1666 333.567 32.6332C333.567 45.1666 342.767 56.5666 354.867 56.5666C358.489 56.6198 362.053 55.6543 365.153 53.7801C368.253 51.906 370.764 49.1986 372.4 45.9666L377.067 48.3999C373.367 56.9332 363.267 61.6332 354.533 61.6332C338.933 61.6332 327.9 46.7332 327.9 32.2999V32.3332ZM390.4 61.2332H384.9V4.29991H390.4V29.6332H424.1V4.29991H429.733V61.2332H424.1V34.5999H390.433V61.2332H390.4ZM480.733 61.2332H442.567V4.29991H480.033V9.2999H448.067V29.8333H475.933V34.5666H448.033V56.2332H480.767V61.2332H480.733Z" fill="white"/>
</svg>
