<?xml version="1.0" standalone="no"?>
<!DOCTYPE svg PUBLIC "-//W3C//DTD SVG 20010904//EN"
 "http://www.w3.org/TR/2001/REC-SVG-20010904/DTD/svg10.dtd">
<svg version="1.0" xmlns="http://www.w3.org/2000/svg"
 width="300.000000pt" height="300.000000pt" viewBox="0 0 300.000000 300.000000"
 preserveAspectRatio="xMidYMid meet">
<metadata>
Created by potrace 1.10, written by Peter Selinger 2001-2011
</metadata>
<g transform="translate(0.000000,300.000000) scale(0.100000,-0.100000)"
fill="#000000" stroke="none">
<path d="M788 2463 l-408 -408 0 -817 c0 -804 0 -818 21 -873 27 -74 112 -165
187 -202 52 -26 69 -28 188 -31 152 -4 186 6 210 63 18 44 18 69 -2 111 -24
49 -46 58 -165 64 -115 7 -144 18 -176 67 -17 25 -18 78 -21 735 l-3 708 342
0 341 0 34 34 34 34 0 341 0 342 458 -3 c418 -3 460 -5 485 -21 62 -40 62 -38
67 -427 5 -389 6 -391 65 -416 44 -18 69 -18 111 2 65 31 65 32 62 457 l-3
382 -27 55 c-35 71 -107 143 -178 178 l-55 27 -580 3 -579 3 -408 -408z m1607
337 c64 -31 124 -92 156 -155 24 -50 24 -50 27 -420 3 -399 2 -404 -49 -426
-36 -14 -81 1 -97 34 -8 15 -13 137 -14 362 -3 299 -5 344 -20 371 -21 39 -71
82 -106 92 -15 4 -226 7 -469 7 l-442 0 -23 -23 c-23 -22 -23 -26 -28 -352 -5
-299 -7 -331 -23 -347 -16 -16 -48 -18 -347 -23 -326 -5 -330 -5 -352 -28
l-23 -23 0 -692 c0 -380 3 -704 8 -720 12 -42 74 -105 115 -117 21 -5 73 -10
117 -10 50 0 86 -6 97 -14 27 -20 39 -61 27 -94 -16 -47 -43 -55 -175 -50
-106 3 -125 7 -172 31 -67 35 -122 90 -153 153 l-24 49 -3 800 c-1 440 0 811
3 825 7 26 688 719 759 771 l40 30 560 -3 561 -3 50 -25z"/>
<path d="M937 2312 c-86 -87 -157 -166 -157 -174 0 -9 12 -26 26 -37 24 -19
40 -21 164 -21 124 0 140 2 164 21 l26 20 0 158 c0 140 -2 160 -18 174 -10 10
-25 17 -33 17 -8 0 -86 -71 -172 -158z m193 -27 l0 -165 -167 0 -168 0 165
165 c91 91 166 165 167 165 2 0 3 -74 3 -165z"/>
<path d="M1686 1481 c-16 -11 -34 -28 -40 -38 -7 -11 -13 -146 -16 -373 -4
-318 -7 -359 -23 -383 -52 -79 -161 -81 -212 -3 -9 13 -19 56 -24 95 -5 53
-13 77 -31 96 -53 56 -134 53 -186 -8 -25 -30 -26 -35 -22 -127 3 -79 8 -105
30 -151 35 -70 107 -142 178 -177 49 -24 66 -27 160 -27 94 0 111 3 160 27 71
35 143 107 178 178 l27 55 3 382 c3 425 3 426 -62 457 -45 21 -84 20 -120 -3z
m91 -31 c54 -19 54 -24 51 -425 l-3 -370 -34 -63 c-36 -66 -75 -103 -151 -143
-38 -20 -59 -24 -140 -24 -111 0 -162 20 -233 89 -64 62 -91 125 -95 221 -3
70 -1 83 18 108 17 21 30 27 60 27 51 0 75 -31 84 -106 8 -66 17 -87 59 -132
78 -81 197 -55 258 58 11 19 15 99 17 360 1 184 5 345 7 358 5 19 25 34 71 52
1 0 15 -5 31 -10z"/>
<path d="M2265 1490 c-97 -24 -188 -98 -232 -189 -23 -47 -27 -70 -28 -141 0
-71 4 -94 26 -140 65 -139 184 -209 356 -210 56 0 63 -3 87 -31 28 -33 32 -64
15 -103 -22 -47 -61 -56 -239 -56 -183 0 -212 -8 -236 -65 -18 -44 -18 -69 2
-111 29 -61 50 -65 282 -62 197 3 209 4 257 28 67 33 131 99 163 168 23 48 27
71 27 142 0 73 -4 93 -28 142 -61 124 -162 188 -312 198 -49 3 -100 11 -112
18 -52 29 -58 98 -14 143 l29 29 172 0 c191 0 216 6 250 63 37 60 14 139 -49
172 -24 12 -65 15 -208 14 -98 -1 -191 -4 -208 -9z m417 -57 c30 -30 30 -86 0
-116 -21 -21 -33 -22 -202 -27 -160 -4 -182 -7 -207 -26 -60 -44 -77 -122 -38
-180 28 -43 62 -57 159 -64 110 -9 167 -31 226 -90 61 -61 84 -119 84 -210 1
-122 -54 -212 -167 -272 -39 -21 -57 -23 -236 -26 -212 -4 -231 0 -251 49 -14
33 -6 62 23 89 19 18 36 20 182 20 147 0 165 2 205 23 89 45 103 137 32 207
-36 36 -40 37 -130 43 -57 4 -111 14 -137 26 -59 26 -122 85 -153 145 -36 69
-37 187 -3 258 41 84 117 145 208 167 21 5 116 9 210 8 164 -2 174 -3 195 -24z"/>
</g>
</svg>
