<svg width="36" height="36" viewBox="0 0 36 36" fill="none" xmlns="http://www.w3.org/2000/svg">
<g clip-path="url(#clip0_172_837)">
<path d="M15.8911 -0.0124555C15.941 -0.0129176 15.9908 -0.0133796 16.0422 -0.0138557C16.2073 -0.0152415 16.3724 -0.0160629 16.5374 -0.0167642C16.5939 -0.0170508 16.6505 -0.0173374 16.7087 -0.0176326C17.0079 -0.0190989 17.3072 -0.0201046 17.6065 -0.020764C17.9147 -0.0215406 18.2229 -0.023958 18.5311 -0.0267526C18.7688 -0.0285964 19.0065 -0.0291802 19.2443 -0.0294322C19.3578 -0.0297734 19.4714 -0.0305876 19.5849 -0.0318958C20.283 -0.0394361 20.7925 -0.0298662 21.353 0.439443C21.6805 0.828908 21.9469 1.20518 21.9455 1.72709C21.9455 1.79183 21.9455 1.85657 21.9455 1.92327C21.9451 1.99293 21.9447 2.06259 21.9444 2.13436C21.9442 2.2416 21.9442 2.2416 21.9441 2.351C21.9437 2.57954 21.9428 2.80807 21.9419 3.03661C21.9415 3.19147 21.9412 3.34633 21.9409 3.5012C21.9401 3.881 21.939 4.26081 21.9375 4.64061C21.9839 4.64909 22.0303 4.65756 22.0781 4.66629C22.4048 4.72834 22.7115 4.7913 23.0174 4.92598C23.0799 4.95313 23.1423 4.98028 23.2067 5.00824C23.2693 5.0363 23.3319 5.06435 23.3965 5.09325C23.4602 5.12103 23.5239 5.14881 23.5896 5.17743C23.8507 5.29198 24.105 5.40744 24.3556 5.54397C24.5644 5.6362 24.6124 5.63048 24.8203 5.55468C24.9739 5.41578 25.1162 5.27656 25.2587 5.12703C25.3449 5.03882 25.4311 4.9506 25.5174 4.8624C25.6521 4.7233 25.7866 4.58397 25.9209 4.44442C26.0511 4.30953 26.1822 4.17554 26.3133 4.04159C26.3526 4.00019 26.3919 3.9588 26.4324 3.91616C26.8438 3.49723 27.3232 3.23353 27.9184 3.21239C28.7675 3.23743 29.2896 3.69182 29.8584 4.26955C29.9338 4.34461 30.0092 4.4196 30.0848 4.49452C30.242 4.65101 30.3983 4.80834 30.5539 4.96634C30.7522 5.1674 30.9526 5.36616 31.1537 5.56434C31.3097 5.71854 31.4645 5.87392 31.619 6.02965C31.6923 6.10336 31.7661 6.17672 31.8402 6.24969C32.376 6.77896 32.7507 7.2845 32.7964 8.05956C32.7408 8.97968 32.1527 9.48544 31.5192 10.0978C31.4853 10.1307 31.4513 10.1636 31.4163 10.1976C31.2767 10.3327 31.1371 10.4677 30.9958 10.6012C30.891 10.7005 30.7875 10.8011 30.6843 10.902C30.5925 10.9897 30.5925 10.9897 30.499 11.0792C30.3556 11.2393 30.3556 11.2393 30.3835 11.4313C30.4373 11.5795 30.4919 11.7196 30.5629 11.8603C30.5862 11.9077 30.6096 11.9552 30.6337 12.004C30.6586 12.0539 30.6834 12.1038 30.709 12.1553C31.3594 13.4973 31.3594 13.4973 31.3594 14.0625C31.3983 14.0617 31.4373 14.0609 31.4774 14.0601C31.8858 14.0523 32.2942 14.047 32.7026 14.0432C32.8547 14.0414 33.0068 14.039 33.1588 14.036C33.3784 14.0317 33.5979 14.0297 33.8176 14.0282C33.8847 14.0263 33.9518 14.0245 34.0209 14.0227C34.6068 14.0224 35.0523 14.2067 35.499 14.5854C35.8635 15.025 36.0081 15.3214 36.0124 15.8911C36.0131 15.9659 36.0131 15.9659 36.0138 16.0422C36.0152 16.2073 36.016 16.3724 36.0167 16.5374C36.017 16.5939 36.0173 16.6505 36.0176 16.7087C36.0191 17.0079 36.0201 17.3072 36.0207 17.6065C36.0215 17.9147 36.0239 18.2229 36.0267 18.5311C36.0286 18.7688 36.0292 19.0065 36.0294 19.2443C36.0298 19.3578 36.0306 19.4714 36.0319 19.5849C36.0394 20.283 36.0298 20.7925 35.5605 21.353C35.1711 21.6805 34.7948 21.9469 34.2729 21.9455C34.2081 21.9455 34.1434 21.9455 34.0767 21.9455C34.007 21.9451 33.9374 21.9447 33.8656 21.9444C33.7584 21.9442 33.7584 21.9442 33.649 21.9441C33.4204 21.9437 33.1919 21.9428 32.9634 21.9419C32.8085 21.9415 32.6536 21.9412 32.4988 21.9409C32.119 21.9401 31.7392 21.939 31.3594 21.9375C31.3467 22.0071 31.3467 22.0071 31.3337 22.0781C31.2716 22.4048 31.2087 22.7115 31.074 23.0174C31.0468 23.0799 31.0197 23.1423 30.9917 23.2067C30.9637 23.2693 30.9356 23.3319 30.9067 23.3965C30.8789 23.4602 30.8512 23.5239 30.8225 23.5896C30.708 23.8507 30.5925 24.105 30.456 24.3556C30.3638 24.5644 30.3695 24.6124 30.4453 24.8203C30.5842 24.9739 30.7234 25.1162 30.8729 25.2587C30.9612 25.3449 31.0494 25.4311 31.1376 25.5174C31.2767 25.6521 31.416 25.7866 31.5556 25.9209C31.6904 26.0511 31.8244 26.1822 31.9584 26.3133C31.9998 26.3526 32.0412 26.3919 32.0838 26.4324C32.5028 26.8438 32.7664 27.3232 32.7876 27.9184C32.7632 28.7581 32.3282 29.2692 31.7513 29.835C31.6787 29.9078 31.6062 29.9806 31.5338 30.0535C31.3827 30.2049 31.2308 30.3555 31.0783 30.5055C30.8833 30.6972 30.6905 30.891 30.4982 31.0854C30.3492 31.2357 30.1991 31.3849 30.0488 31.5338C29.9773 31.6049 29.906 31.6762 29.8351 31.7479C29.7359 31.8479 29.6352 31.9463 29.5345 32.0447C29.4777 32.1009 29.4209 32.1571 29.3624 32.215C29.134 32.3759 28.9645 32.4015 28.6875 32.4141C28.4802 32.3194 28.3681 32.2674 28.2656 32.0625C28.2272 31.8223 28.2113 31.648 28.3552 31.4422C28.3949 31.3987 28.4347 31.3552 28.4756 31.3104C28.5429 31.2367 28.5429 31.2367 28.6116 31.1615C28.8597 30.9007 29.1136 30.6463 29.37 30.3937C29.4863 30.2782 29.6027 30.1628 29.719 30.0473C29.9006 29.8674 30.0824 29.6877 30.2643 29.5081C30.4411 29.3334 30.6175 29.1582 30.7938 28.983C30.8485 28.9293 30.9031 28.8756 30.9594 28.8203C31.0099 28.7701 31.0604 28.7198 31.1124 28.6681C31.179 28.6022 31.179 28.6022 31.247 28.535C31.433 28.3218 31.4989 28.1811 31.5044 27.8965C31.3513 27.3563 30.8547 26.9851 30.4612 26.602C30.4182 26.56 30.3751 26.5179 30.3307 26.4746C30.1504 26.2988 29.9701 26.123 29.7881 25.9489C29.6541 25.8204 29.5215 25.6906 29.389 25.5605C29.3272 25.5024 29.3272 25.5024 29.2642 25.4431C29.0004 25.181 28.9032 24.9963 28.8984 24.6094C28.9714 24.4358 29.0424 24.297 29.1401 24.1392C29.6616 23.2305 30.0143 22.2468 30.2973 21.2407C30.3708 21.0351 30.4122 20.939 30.5859 20.8125C30.7935 20.7433 30.928 20.7334 31.1444 20.7333C31.2151 20.7331 31.2857 20.7328 31.3585 20.7325C31.4728 20.7324 31.4728 20.7324 31.5895 20.7323C31.7507 20.731 31.9118 20.7296 32.0729 20.7282C32.3272 20.7261 32.5815 20.7246 32.8358 20.7246C33.0811 20.7243 33.3262 20.7219 33.5715 20.7191C33.6474 20.7196 33.7234 20.7201 33.8017 20.7206C34.2329 20.7148 34.2329 20.7148 34.6049 20.5107C34.8021 20.2207 34.8136 19.9871 34.816 19.6406C34.817 19.5205 34.817 19.5205 34.8181 19.398C34.8184 19.3118 34.8187 19.2256 34.819 19.1368C34.8194 19.0478 34.8198 18.9589 34.8202 18.8672C34.8208 18.679 34.8213 18.4908 34.8216 18.3025C34.822 18.0623 34.8236 17.8221 34.8256 17.5819C34.8273 17.3517 34.8274 17.1214 34.8277 16.8912C34.8291 16.7625 34.8291 16.7625 34.8304 16.6313C34.8292 16.1922 34.8212 15.8506 34.5937 15.4687C34.365 15.3162 34.2998 15.3103 34.0353 15.309C33.9646 15.3083 33.894 15.3076 33.8212 15.3069C33.7449 15.3067 33.6687 15.3066 33.5901 15.3064C33.429 15.3046 33.2679 15.3029 33.1067 15.3011C32.8525 15.299 32.5982 15.2974 32.3439 15.296C32.0986 15.2945 31.8534 15.2917 31.6082 15.2888C31.5322 15.2888 31.4563 15.2888 31.378 15.2888C30.7034 15.2799 30.7034 15.2799 30.4453 15.0469C30.3598 14.8563 30.2946 14.6825 30.2344 14.4844C30.1984 14.3766 30.1623 14.269 30.1259 14.1614C30.1072 14.1055 30.0886 14.0496 30.0694 13.992C29.86 13.3704 29.6183 12.785 29.3129 12.2047C29.2915 12.1637 29.27 12.1227 29.248 12.0804C29.1997 11.9905 29.1495 11.9017 29.0979 11.8137C29.0583 11.743 29.0583 11.743 29.0179 11.6708C28.9934 11.6289 28.9689 11.587 28.9437 11.5438C28.8704 11.2959 28.8974 11.148 28.9687 10.8984C29.1228 10.6894 29.3056 10.5157 29.4936 10.3373C29.5462 10.2856 29.5989 10.2339 29.6531 10.1806C29.821 10.016 29.9902 9.85294 30.1597 9.68993C30.3286 9.52594 30.4972 9.36165 30.6655 9.19697C30.7701 9.0947 30.8752 8.99287 30.9807 8.89153C31.0284 8.84528 31.076 8.79903 31.1251 8.75137C31.167 8.71101 31.209 8.67065 31.2522 8.62907C31.4367 8.42037 31.499 8.27789 31.5044 7.99804C31.3412 7.42226 30.7601 6.98333 30.3456 6.56817C30.2908 6.51311 30.236 6.45806 30.1795 6.40133C30.0645 6.28603 29.9495 6.17081 29.8343 6.05569C29.6581 5.87927 29.4824 5.70229 29.3067 5.52529C29.1945 5.41292 29.0823 5.30058 28.9701 5.18828C28.8916 5.10897 28.8916 5.10897 28.8114 5.02805C28.7623 4.9792 28.7133 4.93035 28.6627 4.88001C28.6199 4.83706 28.577 4.7941 28.5328 4.74984C28.3202 4.56639 28.179 4.50103 27.8965 4.49559C27.3563 4.64864 26.9851 5.14525 26.602 5.53875C26.539 5.60336 26.539 5.60336 26.4746 5.66928C26.2988 5.84959 26.123 6.02987 25.9489 6.21183C25.8204 6.34588 25.6906 6.47853 25.5605 6.61101C25.5217 6.65217 25.483 6.69333 25.4431 6.73573C25.181 6.99957 24.9963 7.09677 24.6094 7.10155C24.4358 7.0286 24.297 6.95754 24.1392 6.85985C23.2305 6.33842 22.2468 5.98567 21.2407 5.70272C21.0351 5.62917 20.939 5.58781 20.8125 5.41405C20.7433 5.20646 20.7334 5.07193 20.7333 4.85557C20.7331 4.78493 20.7328 4.71428 20.7325 4.6415C20.7324 4.56525 20.7324 4.48901 20.7323 4.41045C20.731 4.24932 20.7296 4.08819 20.7282 3.92705C20.7261 3.67275 20.7246 3.4185 20.7246 3.16419C20.7243 2.91893 20.7219 2.67376 20.7191 2.42852C20.7199 2.31458 20.7199 2.31457 20.7206 2.19833C20.7148 1.76705 20.7148 1.76705 20.5107 1.39508C20.2207 1.19791 19.9871 1.18634 19.6406 1.18397C19.5605 1.1833 19.4805 1.18262 19.398 1.18193C19.3118 1.18163 19.2256 1.18133 19.1368 1.18102C19.0478 1.18062 18.9589 1.18022 18.8672 1.17981C18.679 1.17914 18.4908 1.17866 18.3025 1.17841C18.0623 1.17803 17.8221 1.17634 17.5819 1.17433C17.3517 1.1727 17.1214 1.17257 16.8912 1.17223C16.8054 1.17136 16.7196 1.17049 16.6313 1.1696C16.1922 1.17075 15.8506 1.17874 15.4687 1.40624C15.3162 1.63499 15.3103 1.70017 15.309 1.96472C15.3083 2.03537 15.3076 2.10601 15.3069 2.17879C15.3067 2.25504 15.3066 2.33128 15.3064 2.40984C15.3046 2.57097 15.3029 2.73211 15.3011 2.89324C15.299 3.14753 15.2974 3.40181 15.296 3.6561C15.2945 3.90134 15.2917 4.14655 15.2888 4.39177C15.2888 4.46774 15.2888 4.5437 15.2888 4.62196C15.2799 5.29655 15.2799 5.29655 15.0469 5.55468C14.8563 5.64021 14.6825 5.70537 14.4844 5.76561C14.3766 5.80154 14.269 5.83771 14.1614 5.8741C14.1055 5.89275 14.0496 5.91139 13.992 5.9306C13.3704 6.13996 12.785 6.38172 12.2047 6.68709C12.1637 6.70852 12.1227 6.72994 12.0804 6.75202C11.9905 6.80023 11.9017 6.85045 11.8137 6.90205C11.7666 6.92846 11.7194 6.95487 11.6708 6.98208C11.6289 7.00658 11.587 7.03108 11.5438 7.05632C11.2959 7.12953 11.148 7.10263 10.8984 7.03124C10.6894 6.8772 10.5157 6.69434 10.3373 6.50637C10.2598 6.42742 10.2598 6.42742 10.1806 6.34688C10.016 6.179 9.85294 6.00975 9.68993 5.84032C9.52594 5.67139 9.36165 5.50277 9.19697 5.33451C9.0947 5.22986 8.99287 5.12478 8.89153 5.01923C8.82215 4.9478 8.82215 4.9478 8.75137 4.87492C8.69083 4.812 8.69083 4.812 8.62907 4.74781C8.42037 4.56333 8.27789 4.50098 7.99804 4.49559C7.42226 4.65873 6.98333 5.23984 6.56817 5.65438C6.51311 5.7092 6.45806 5.76402 6.40134 5.8205C6.28603 5.93545 6.17081 6.0505 6.05569 6.16564C5.87927 6.3419 5.70229 6.51759 5.52529 6.69327C5.41292 6.80544 5.30058 6.91763 5.18828 7.02987C5.10897 7.10843 5.10897 7.10843 5.02805 7.18857C4.95477 7.26217 4.95477 7.26217 4.88001 7.33726C4.83706 7.38012 4.7941 7.42298 4.74984 7.46713C4.56639 7.67978 4.50103 7.82094 4.4956 8.10351C4.64864 8.64367 5.14525 9.0149 5.53875 9.39797C5.58182 9.44001 5.6249 9.48205 5.66928 9.52536C5.84959 9.70117 6.02987 9.87696 6.21183 10.0511C6.34588 10.1796 6.47853 10.3094 6.61101 10.4395C6.65217 10.4782 6.69333 10.517 6.73573 10.5569C6.99957 10.819 7.09677 11.0036 7.10155 11.3906C7.0286 11.5642 6.95755 11.703 6.85985 11.8608C6.33842 12.7694 5.98567 13.7531 5.70272 14.7593C5.62917 14.9649 5.58781 15.061 5.41405 15.1875C5.20646 15.2567 5.07193 15.2665 4.85557 15.2667C4.78493 15.2669 4.71428 15.2672 4.6415 15.2675C4.56526 15.2675 4.48901 15.2676 4.41045 15.2677C4.24932 15.269 4.08819 15.2704 3.92705 15.2718C3.67275 15.2738 3.4185 15.2754 3.16419 15.2754C2.91893 15.2756 2.67376 15.2781 2.42852 15.2809C2.35256 15.2804 2.27659 15.2799 2.19833 15.2794C1.76705 15.2852 1.76705 15.2852 1.39508 15.4893C1.19791 15.7793 1.18634 16.0129 1.18397 16.3594C1.1833 16.4394 1.18262 16.5195 1.18193 16.6019C1.18148 16.7313 1.18148 16.7313 1.18102 16.8632C1.18042 16.9966 1.18042 16.9966 1.17981 17.1327C1.17914 17.321 1.17866 17.5092 1.17841 17.6975C1.17803 17.9377 1.17634 18.1778 1.17434 18.418C1.1727 18.6483 1.17257 18.8785 1.17223 19.1088C1.17136 19.1946 1.1705 19.2803 1.1696 19.3687C1.17075 19.8078 1.17874 20.1494 1.40624 20.5312C1.63499 20.6837 1.70017 20.6897 1.96472 20.6909C2.03537 20.6917 2.10601 20.6924 2.17879 20.6931C2.29316 20.6933 2.29316 20.6933 2.40984 20.6936C2.57097 20.6953 2.73211 20.6971 2.89324 20.6989C3.14753 20.7009 3.40181 20.7026 3.6561 20.7039C3.90134 20.7055 4.14655 20.7082 4.39178 20.7111C4.46774 20.7111 4.5437 20.7112 4.62196 20.7112C5.29655 20.7201 5.29655 20.7201 5.55468 20.9531C5.64021 21.1436 5.70537 21.3175 5.76562 21.5156C5.80154 21.6234 5.83771 21.731 5.87411 21.8386C5.89275 21.8945 5.91139 21.9504 5.9306 22.008C6.13996 22.6296 6.38172 23.2149 6.68709 23.7953C6.70852 23.8363 6.72994 23.8773 6.75202 23.9196C6.80023 24.0094 6.85045 24.0983 6.90205 24.1863C6.92846 24.2334 6.95487 24.2806 6.98208 24.3292C7.00658 24.3711 7.03108 24.413 7.05632 24.4562C7.12953 24.7041 7.10263 24.852 7.03124 25.1016C6.8772 25.3106 6.69434 25.4843 6.50637 25.6627C6.42742 25.7402 6.42742 25.7402 6.34689 25.8193C6.179 25.9839 6.00975 26.147 5.84032 26.31C5.67139 26.474 5.50277 26.6383 5.33451 26.803C5.22986 26.9053 5.12478 27.0071 5.01923 27.1084C4.97161 27.1547 4.92398 27.201 4.87492 27.2486C4.83297 27.289 4.79103 27.3293 4.74781 27.3709C4.56333 27.5796 4.50098 27.7221 4.4956 28.0019C4.66121 28.5865 5.25454 29.0291 5.67718 29.4472C5.73406 29.5038 5.79094 29.5604 5.84954 29.6188C6.0294 29.7978 6.20949 29.9765 6.38964 30.1553C6.62843 30.3922 6.86698 30.6293 7.1054 30.8666C7.1604 30.921 7.2154 30.9755 7.27206 31.0315C7.3478 31.1069 7.3478 31.1069 7.42507 31.1838C7.49193 31.2501 7.49193 31.2501 7.56014 31.3178C7.71998 31.4899 7.73409 31.5666 7.75194 31.8076C7.73437 32.0625 7.73437 32.0625 7.66405 32.2295C7.49135 32.3698 7.33428 32.4219 7.11246 32.4388C6.91949 32.4073 6.84545 32.3405 6.70296 32.2079C6.65407 32.1628 6.60519 32.1177 6.55482 32.0712C6.50321 32.0219 6.4516 31.9727 6.39843 31.9219C6.31969 31.8473 6.31969 31.8473 6.23936 31.7713C5.8687 31.417 5.50431 31.0562 5.13977 30.6956C5.00636 30.5637 4.87229 30.4326 4.7376 30.302C4.54183 30.1118 4.34774 29.9201 4.15392 29.7279C4.09408 29.6704 4.03424 29.6129 3.97258 29.5536C3.5101 29.0895 3.24081 28.604 3.2036 27.9404C3.25917 27.0203 3.84724 26.5145 4.48076 25.9022C4.5317 25.8528 4.5317 25.8528 4.58367 25.8024C4.72328 25.6673 4.86293 25.5322 5.00416 25.3988C5.10899 25.2995 5.21243 25.1989 5.31573 25.098C5.37687 25.0395 5.43802 24.981 5.50102 24.9207C5.64483 24.7603 5.64483 24.7603 5.61539 24.5664C5.53496 24.3439 5.43546 24.1359 5.33056 23.9238C5.13646 23.5213 4.96942 23.1147 4.82079 22.6933C4.8026 22.6423 4.78441 22.5912 4.76567 22.5385C4.69355 22.3295 4.64062 22.1601 4.64062 21.9375C4.60166 21.9383 4.5627 21.9391 4.52256 21.9399C4.11417 21.9477 3.70581 21.953 3.29736 21.9568C3.14529 21.9586 2.99322 21.961 2.84116 21.964C2.62157 21.9683 2.40205 21.9703 2.18242 21.9718C2.08175 21.9745 2.08175 21.9745 1.97903 21.9773C1.39317 21.9776 0.947645 21.7932 0.500967 21.4145C0.136486 20.975 -0.00808683 20.6786 -0.0124552 20.1089C-0.0129172 20.059 -0.0133792 20.0091 -0.0138553 19.9578C-0.0152411 19.7927 -0.0160625 19.6276 -0.0167639 19.4625C-0.0171937 19.3778 -0.0171933 19.3778 -0.0176318 19.2913C-0.0190981 18.992 -0.0201042 18.6928 -0.0207636 18.3935C-0.0215402 18.0853 -0.0239578 17.7771 -0.0267524 17.4689C-0.0285962 17.2312 -0.0291794 16.9935 -0.0294314 16.7557C-0.0297726 16.6422 -0.0305876 16.5286 -0.0318958 16.4151C-0.0394361 15.717 -0.0298659 15.2075 0.439443 14.647C0.828908 14.3195 1.20518 14.0531 1.72709 14.0545C1.79183 14.0545 1.85657 14.0545 1.92327 14.0545C2.02776 14.0551 2.02776 14.0551 2.13436 14.0556C2.2416 14.0558 2.2416 14.0558 2.351 14.0559C2.57954 14.0563 2.80807 14.0572 3.03661 14.0581C3.19147 14.0584 3.34633 14.0588 3.5012 14.0591C3.881 14.0598 4.26081 14.061 4.64062 14.0625C4.64909 14.0161 4.65756 13.9697 4.66629 13.9219C4.72834 13.5951 4.7913 13.2884 4.92599 12.9825C4.95313 12.9201 4.98028 12.8576 5.00825 12.7933C5.0363 12.7307 5.06435 12.668 5.09325 12.6035C5.12103 12.5398 5.14881 12.4761 5.17743 12.4104C5.29198 12.1493 5.40744 11.8949 5.54397 11.6444C5.6362 11.4355 5.63048 11.3876 5.55468 11.1797C5.41578 11.0261 5.27656 10.8838 5.12704 10.7413C5.03882 10.6551 4.95061 10.5688 4.8624 10.4826C4.7233 10.3478 4.58397 10.2133 4.44442 10.0791C4.30953 9.94886 4.17554 9.8178 4.04159 9.68664C4.00019 9.64736 3.9588 9.60808 3.91616 9.56761C3.49723 9.15619 3.23353 8.67683 3.21239 8.08153C3.23743 7.23245 3.69182 6.71034 4.26955 6.14162C4.34461 6.06623 4.4196 5.99076 4.49452 5.91523C4.65101 5.75802 4.80834 5.60172 4.96634 5.44603C5.1674 5.24778 5.36616 5.0474 5.56434 4.84628C5.71854 4.69028 5.87392 4.53549 6.02965 4.38103C6.10336 4.30764 6.17672 4.2339 6.24969 4.15977C6.77896 3.62395 7.2845 3.24924 8.05956 3.2036C8.97968 3.25917 9.48544 3.84724 10.0978 4.48076C10.1307 4.51472 10.1636 4.54868 10.1976 4.58367C10.3327 4.72328 10.4677 4.86293 10.6012 5.00416C10.7005 5.10898 10.8011 5.21243 10.902 5.31572C10.9605 5.37687 11.019 5.43802 11.0792 5.50102C11.2397 5.64483 11.2397 5.64483 11.4336 5.61539C11.6561 5.53496 11.864 5.43546 12.0762 5.33056C12.4786 5.13646 12.8852 4.96942 13.3066 4.82079C13.3577 4.8026 13.4088 4.78441 13.4615 4.76567C13.6704 4.69355 13.8398 4.64061 14.0625 4.64061C14.0617 4.60166 14.0609 4.5627 14.0601 4.52256C14.0523 4.11417 14.047 3.70581 14.0432 3.29736C14.0414 3.14529 14.039 2.99321 14.036 2.84116C14.0317 2.62156 14.0297 2.40205 14.0282 2.18242C14.0263 2.1153 14.0245 2.04819 14.0227 1.97903C14.0224 1.39317 14.2067 0.947644 14.5854 0.500966C15.025 0.136485 15.3214 -0.00808722 15.8911 -0.0124555Z" fill="white"/>
<path d="M14.3081 23.8078C14.5197 24.0103 14.5885 24.176 14.689 24.4503C14.7153 24.5206 14.7153 24.5206 14.7421 24.5922C14.7993 24.7455 14.855 24.8993 14.9107 25.0532C14.9501 25.1597 14.9897 25.2662 15.0294 25.3726C15.1115 25.5929 15.1931 25.8133 15.2745 26.0338C15.4515 26.5117 15.6362 26.9866 15.821 27.4614C15.9109 27.6922 16.0003 27.9232 16.0898 28.1541C16.1406 28.285 16.1914 28.4159 16.2422 28.5469C16.2897 28.3097 16.3364 28.0723 16.3828 27.8349C16.3963 27.7681 16.4097 27.7012 16.4235 27.6322C16.4425 27.5344 16.4425 27.5344 16.4619 27.4345C16.4737 27.3748 16.4855 27.3152 16.4976 27.2537C16.5596 26.8133 16.4993 26.5457 16.2774 26.1631C16.2261 26.0706 16.1748 25.9781 16.1236 25.8856C16.0424 25.7416 15.9608 25.5979 15.8791 25.4542C15.8001 25.3145 15.7223 25.1742 15.6446 25.0337C15.62 24.9914 15.5953 24.9492 15.57 24.9056C15.406 24.6082 15.3454 24.3839 15.3985 24.0469C15.5747 23.8265 15.6813 23.7099 15.9608 23.6507C16.0389 23.6504 16.117 23.6501 16.1974 23.6498C16.2864 23.6487 16.3753 23.6476 16.4669 23.6464C16.5634 23.6471 16.6599 23.6478 16.7564 23.6486C16.8559 23.6484 16.9555 23.648 17.055 23.6476C17.2633 23.6471 17.4716 23.6478 17.6798 23.6495C17.9463 23.6515 18.2127 23.6503 18.4792 23.6482C18.6846 23.6469 18.8901 23.6473 19.0955 23.6483C19.1938 23.6485 19.292 23.6482 19.3902 23.6474C19.5277 23.6465 19.6652 23.6481 19.8026 23.6498C19.9198 23.6502 19.9198 23.6502 20.0393 23.6507C20.3183 23.7098 20.4247 23.828 20.6016 24.0469C20.7078 24.5361 20.4259 24.9325 20.1973 25.3476C20.1594 25.4184 20.1215 25.4892 20.0825 25.5622C19.9245 25.8562 19.7641 26.1467 19.5895 26.4312C19.3403 26.9108 19.5595 27.5001 19.6565 28.011C19.6663 28.0627 19.676 28.1145 19.6861 28.1678C19.7099 28.2941 19.7339 28.4205 19.7578 28.5469C19.7861 28.4734 19.8144 28.3999 19.8435 28.3241C19.8624 28.2751 19.8812 28.226 19.9007 28.1755C19.9435 28.0642 19.9863 27.9529 20.029 27.8416C20.148 27.5321 20.2672 27.2227 20.3866 26.9134C20.6033 26.3519 20.8191 25.7903 21.0268 25.2254C21.0579 25.1417 21.089 25.058 21.121 24.9717C21.1776 24.8189 21.2334 24.6658 21.2882 24.5123C21.5276 23.8705 21.5276 23.8705 21.8672 23.6953C23.0365 23.5559 24.3631 24.2581 25.2818 24.9302C25.4106 25.0325 25.5382 25.1363 25.6641 25.2422C25.7091 25.2801 25.7542 25.3179 25.8006 25.357C26.9472 26.4158 27.5323 27.93 27.6328 29.4609C27.6476 29.9196 27.6462 30.3787 27.6471 30.8375C27.6473 30.9031 27.6475 30.9686 27.6477 31.0361C27.6488 31.3822 27.6494 31.7282 27.6497 32.0743C27.6501 32.431 27.6518 32.7877 27.6538 33.1443C27.6551 33.4196 27.6555 33.6949 27.6556 33.9702C27.6558 34.1018 27.6564 34.2333 27.6573 34.3648C27.6585 34.5486 27.6584 34.7322 27.6579 34.916C27.6586 34.9699 27.6592 35.0238 27.6599 35.0794C27.6573 35.4144 27.6013 35.6458 27.4219 35.9297C27.2567 36.0123 27.159 36.009 26.9749 36.0094C26.8777 36.0099 26.8777 36.0099 26.7786 36.0104C26.707 36.0104 26.6353 36.0103 26.5616 36.0103C26.4858 36.0106 26.4101 36.0109 26.3321 36.0111C26.0767 36.0119 25.8212 36.0122 25.5658 36.0124C25.3834 36.0129 25.2009 36.0133 25.0185 36.0138C24.4698 36.0152 23.9211 36.0159 23.3724 36.0166C23.1142 36.0169 22.856 36.0172 22.5978 36.0176C21.7397 36.0188 20.8816 36.0198 20.0236 36.0203C19.8008 36.0205 19.5781 36.0206 19.3554 36.0207C19.2723 36.0208 19.2723 36.0208 19.1876 36.0208C18.2903 36.0214 17.3929 36.0232 16.4956 36.0255C15.5749 36.0278 14.6542 36.0291 13.7334 36.0293C13.2163 36.0295 12.6991 36.0301 12.1819 36.0319C11.6956 36.0336 11.2094 36.0338 10.7231 36.0331C10.5443 36.033 10.3655 36.0335 10.1867 36.0345C9.94323 36.0357 9.69982 36.0352 9.45636 36.0343C9.38505 36.0351 9.31374 36.0358 9.24026 36.0366C8.76411 36.0322 8.76411 36.0322 8.53645 35.8704C8.34074 35.5703 8.3568 35.2832 8.357 34.9379C8.35677 34.8798 8.35653 34.8217 8.35629 34.7618C8.35562 34.5691 8.35548 34.3764 8.35541 34.1837C8.35518 34.0492 8.35494 33.9147 8.3547 33.7802C8.35427 33.4976 8.35414 33.215 8.35419 32.9324C8.35419 32.5727 8.35324 32.213 8.35202 31.8533C8.35124 31.575 8.3511 31.2967 8.35114 31.0184C8.35105 30.886 8.35075 30.7536 8.3502 30.6211C8.34245 28.5529 8.78261 26.8718 10.2173 25.3301C10.9796 24.6122 13.2314 23.1164 14.3081 23.8078ZM17.0157 24.8906C17.1086 25.123 17.1853 25.3032 17.3109 25.5108C17.3535 25.5847 17.3535 25.5847 17.397 25.6602C17.4557 25.7615 17.5158 25.8621 17.5772 25.9618C17.9409 26.606 17.7095 27.3186 17.5735 28.0099C17.5595 28.0827 17.5456 28.1555 17.5312 28.2306C17.4722 28.5387 17.4123 28.8467 17.3525 29.1546C17.3086 29.3809 17.2653 29.6073 17.2219 29.8336C17.2083 29.9029 17.1947 29.9721 17.1806 30.0434C17.0743 30.5992 17.0542 30.9925 17.2705 31.5258C17.2893 31.5736 17.308 31.6214 17.3273 31.6706C17.3868 31.822 17.4473 31.973 17.5078 32.124C17.5486 32.2271 17.5892 32.3302 17.6298 32.4333C17.729 32.685 17.8291 32.9363 17.9297 33.1875C17.9761 33.1875 18.0225 33.1875 18.0703 33.1875C18.1941 32.8934 18.3154 32.5985 18.4347 32.3026C18.4755 32.2024 18.5169 32.1024 18.5589 32.0027C18.6198 31.8581 18.6782 31.7127 18.7364 31.567C18.7552 31.5237 18.774 31.4804 18.7934 31.4357C19.0474 30.7808 18.833 30.0382 18.6985 29.3736C18.6776 29.2668 18.6776 29.2668 18.6562 29.158C18.6122 28.9337 18.5677 28.7095 18.523 28.4853C18.4781 28.2597 18.4333 28.034 18.389 27.8082C18.3616 27.6685 18.3338 27.5289 18.3056 27.3894C18.1344 26.5168 18.1344 26.5168 18.3802 26.0936C18.4325 26.0014 18.4325 26.0014 18.4859 25.9074C18.5228 25.8445 18.5597 25.7816 18.5977 25.7168C18.6704 25.5906 18.743 25.4642 18.8152 25.3378C18.8476 25.2823 18.88 25.2268 18.9134 25.1696C18.9951 25.0363 18.9951 25.0363 18.9844 24.8906C18.3347 24.8906 17.685 24.8906 17.0157 24.8906ZM22.4297 24.9609C22.387 25.0743 22.387 25.0743 22.3434 25.19C21.7281 26.823 21.1098 28.4547 20.4873 30.0849C20.4563 30.1662 20.4253 30.2474 20.3934 30.3311C20.0736 31.1687 19.753 32.006 19.4296 32.8422C19.4045 32.9074 19.3793 32.9726 19.3533 33.0397C19.2369 33.3412 19.1202 33.6425 19.003 33.9437C18.9627 34.0481 18.9223 34.1524 18.882 34.2567C18.8636 34.3037 18.8452 34.3507 18.8263 34.3991C18.7333 34.6303 18.7333 34.6303 18.7032 34.875C21.2555 34.875 23.8078 34.875 26.4375 34.875C26.4419 33.6003 26.4419 33.6003 26.4463 32.2998C26.4476 32.0334 26.4489 31.7671 26.4502 31.4927C26.4507 31.2497 26.4507 31.2497 26.4509 31.0068C26.4512 30.9002 26.4517 30.7937 26.4524 30.6872C26.4632 29.0028 26.1653 27.5225 24.9698 26.2661C24.6238 25.9389 24.2495 25.6871 23.836 25.4531C23.7884 25.425 23.7408 25.3969 23.6918 25.368C23.415 25.2155 23.1408 25.133 22.8337 25.0587C22.758 25.0402 22.6823 25.0218 22.6042 25.0027C22.5466 24.9889 22.4891 24.9751 22.4297 24.9609ZM10.8985 26.4375C10.8544 26.479 10.8104 26.5205 10.765 26.5633C9.64003 27.7188 9.55059 29.3084 9.55566 30.8238C9.55577 30.9278 9.55584 31.0318 9.55588 31.1358C9.55624 31.5179 9.55722 31.9001 9.55813 32.2822C9.55958 33.1378 9.56103 33.9934 9.56253 34.875C12.1149 34.875 14.6672 34.875 17.2969 34.875C17.169 34.4487 17.0433 34.0387 16.8816 33.6269C16.8622 33.5767 16.8427 33.5264 16.8227 33.4747C16.7805 33.3658 16.7382 33.2569 16.6958 33.1481C16.5776 32.8448 16.4604 32.5411 16.343 32.2374C16.3054 32.1403 16.3054 32.1403 16.2671 32.0412C15.964 31.2571 15.6659 30.4711 15.3677 29.685C15.2834 29.4628 15.199 29.2406 15.1146 29.0184C15.0586 28.8707 15.0025 28.7231 14.9465 28.5754C14.6481 27.7893 14.3488 27.0035 14.0493 26.2178C14.0247 26.1531 14.0001 26.0885 13.9747 26.0218C13.8399 25.6682 13.7051 25.3146 13.5703 24.9609C12.5512 24.9609 11.5773 25.7727 10.8985 26.4375Z" fill="white"/>
<path d="M17.9824 8.4155C18.032 8.41567 18.0816 8.41585 18.1326 8.41603C18.8798 8.4201 19.5967 8.44436 20.3203 8.64841C20.3765 8.66391 20.4326 8.67941 20.4905 8.69537C22.9983 9.40961 25.0455 10.9663 26.3672 13.2187C27.1995 14.7217 27.5938 16.2883 27.5889 18.0044C27.5889 18.0551 27.5888 18.1059 27.5888 18.1583C27.5859 18.9982 27.5207 19.7931 27.2813 20.6015C27.2587 20.6786 27.2587 20.6786 27.2356 20.7571C26.8945 21.8803 26.3658 23.1342 25.5235 23.9765C25.3149 24.0442 25.1995 24.0547 24.9873 23.9941C24.7043 23.8452 24.7043 23.8452 24.6094 23.6953C24.5634 23.2252 24.6493 23.0052 24.9302 22.6362C25.8939 21.2771 26.3256 19.6939 26.3233 18.0351C26.3232 17.9889 26.3232 17.9427 26.3232 17.895C26.3202 17.1042 26.2488 16.3664 26.0157 15.6093C26.001 15.5611 25.9863 15.5128 25.9711 15.4631C25.2932 13.3166 23.7688 11.5745 21.789 10.5305C19.7835 9.5279 17.4769 9.39397 15.3513 10.0692C14.0625 10.5082 12.984 11.2062 12.0235 12.164C11.9636 12.2222 11.9038 12.2804 11.8422 12.3404C10.2056 14.0233 9.66286 16.2583 9.68832 18.5347C9.69946 19.0864 9.75366 19.579 9.91409 20.1093C9.93504 20.1826 9.93504 20.1826 9.95642 20.2572C10.2251 21.1872 10.5945 22.0352 11.1797 22.812C11.3345 23.0249 11.4249 23.1751 11.439 23.4404C11.3907 23.6953 11.3907 23.6953 11.2896 23.8711C11.0639 24.0032 10.9035 24.0432 10.6425 24.0287C10.0613 23.8459 9.70284 22.9513 9.42904 22.4387C8.34973 20.3525 8.04801 17.6633 8.71878 15.3984C8.7331 15.3483 8.74742 15.2982 8.76217 15.2465C9.47629 12.8176 11.1511 10.7791 13.3594 9.56247C13.977 9.23129 14.6048 8.96707 15.2754 8.76267C15.3575 8.7375 15.3575 8.7375 15.4413 8.71182C16.2798 8.47022 17.1131 8.41058 17.9824 8.4155Z" fill="white"/>
<path d="M21.2047 13.8897C22.3051 14.7509 23.0132 15.9801 23.2031 17.3672C23.3404 18.8872 22.9757 20.3254 21.9903 21.5112C21.1364 22.4856 19.9068 23.1927 18.6 23.2858C17.0535 23.3639 15.6294 23.0067 14.4459 21.965C13.4326 20.9774 12.8111 19.694 12.7639 18.2723C12.7475 16.765 13.252 15.3885 14.3113 14.3028C16.1763 12.4939 19.1369 12.3675 21.2047 13.8897ZM14.8519 15.5391C14.127 16.4516 13.9096 17.4902 13.9922 18.6328C14.1606 19.806 14.8073 20.7382 15.7412 21.4409C16.672 22.05 17.821 22.25 18.91 22.0301C20.0377 21.7317 20.9464 21.0194 21.5415 20.0179C22.0626 19.0511 22.1799 17.9208 21.8689 16.8651C21.4501 15.6953 20.6971 14.8987 19.5821 14.3613C17.8818 13.632 16.0602 14.1764 14.8519 15.5391Z" fill="white"/>
</g>
<defs>
<clipPath id="clip0_172_837">
<rect width="36" height="36" fill="white"/>
</clipPath>
</defs>
</svg>
