<svg width="28" height="36" viewBox="0 0 28 36" fill="none" xmlns="http://www.w3.org/2000/svg">
<path d="M7.82147 11.1697C8.08926 11.164 8.35724 11.1642 8.62504 11.1697C8.87801 11.4226 8.77505 11.7912 8.77563 12.1277C8.77491 12.3054 8.77491 12.3054 8.77417 12.4867C8.77419 12.6109 8.77421 12.735 8.77423 12.8628C8.77414 13.2752 8.77309 13.6875 8.77205 14.0999C8.7718 14.3849 8.77161 14.67 8.77147 14.9551C8.77096 15.707 8.76964 16.4589 8.76816 17.2108C8.7668 17.9774 8.76618 18.744 8.76551 19.5106C8.76407 21.016 8.76178 22.5214 8.75897 24.0268C9.01623 24.0519 9.27359 24.076 9.53099 24.0997C9.67429 24.1132 9.8176 24.1267 9.96525 24.1407C10.451 24.165 10.8225 24.0836 11.2785 23.918C11.4221 23.8681 11.5658 23.8182 11.7138 23.7668C11.8436 23.72 11.9734 23.6732 12.1072 23.625C12.2991 23.5672 12.4915 23.511 12.6847 23.4576C12.8035 23.4245 12.9223 23.3913 13.0447 23.3572C13.0157 23.2215 13.0157 23.2215 12.9861 23.083C12.9612 22.9635 12.9364 22.8441 12.9108 22.721C12.8735 22.5439 12.8735 22.5439 12.8354 22.3632C12.7768 22.0179 12.7768 22.0179 12.7768 21.4822C12.0345 21.4819 12.0345 21.4819 11.4192 21.8588C11.2401 22.0498 11.0654 22.2451 10.8961 22.4448C10.5834 22.7343 10.3872 22.7993 9.96432 22.8214C9.69647 22.5536 9.69647 22.5536 9.63526 22.2549C9.72421 21.7158 10.0349 21.4121 10.408 21.0385C10.4797 20.966 10.5513 20.8936 10.6252 20.8189C11.1127 20.364 11.4497 20.1701 12.1407 20.1763C12.5111 20.2203 12.5111 20.2203 12.7768 20.2768C12.7913 19.9979 12.8017 19.7189 12.8103 19.4397C12.8165 19.2844 12.8227 19.129 12.8291 18.9689C12.8092 18.5332 12.8092 18.5332 12.5665 18.2166C12.1301 17.9261 11.8076 17.9283 11.2869 17.9163C10.3922 17.8921 10.3922 17.8921 10.0983 17.5982C10.0648 17.2634 10.0648 17.2634 10.0983 16.9286C10.5312 16.4956 11.0984 16.5963 11.6803 16.5911C12.422 16.6085 12.8684 16.7737 13.4214 17.2885C13.4738 17.3465 13.5263 17.4045 13.5804 17.4643C13.6177 17.3813 13.655 17.2982 13.6934 17.2127C13.8483 16.9286 13.8483 16.9286 14.1831 16.6691C14.7045 16.0303 14.6947 15.3176 14.7858 14.5179C14.8137 14.397 14.8417 14.2762 14.8705 14.1517C14.9536 13.8263 14.9536 13.8263 14.7355 13.4799C14.4728 12.9545 14.3321 12.4307 14.384 11.8393C14.5613 11.5997 14.5613 11.5997 14.7858 11.4375C15.1457 11.4794 15.1457 11.4794 15.4554 11.5714C15.5093 11.7828 15.5093 11.7828 15.5642 11.9983C15.7055 12.452 15.8635 12.7863 16.125 13.1786C16.2576 13.1344 16.3902 13.0902 16.5268 13.0447C16.8476 13.0353 17.1686 13.0333 17.4894 13.0363C17.6598 13.0375 17.8302 13.0387 18.0058 13.0399C18.2018 13.0423 18.2018 13.0423 18.4018 13.0447C18.5344 12.5585 18.667 12.0723 18.8036 11.5714C19.1887 11.4877 19.1887 11.4877 19.6072 11.4375C19.875 11.7054 19.875 11.7054 19.9253 12.1909C19.9195 12.6465 19.8242 12.8971 19.5821 13.279C19.2934 13.7908 19.3515 14.0985 19.4984 14.6602C19.5407 14.7972 19.583 14.9343 19.6265 15.0756C19.7411 15.4554 19.7411 15.4554 19.7913 15.9827C19.9307 16.6656 20.3888 16.9586 20.9465 17.3304C21.1114 17.1667 21.1114 17.1667 21.2797 16.9997C21.7859 16.5787 22.2077 16.5679 22.8466 16.5938C22.9418 16.5934 23.037 16.5931 23.1351 16.5927C23.5365 16.6003 23.8245 16.614 24.1608 16.8438C24.2947 17.0625 24.2947 17.0625 24.2696 17.4141C24.1608 17.7322 24.1608 17.7322 23.8929 17.8661C23.6112 17.8799 23.3294 17.8906 23.0475 17.8996C22.5011 17.9425 22.1932 17.9774 21.7082 18.2428C21.3593 18.9017 21.4298 19.5466 21.4822 20.2768C21.5761 20.2659 21.67 20.255 21.7668 20.2438C22.4992 20.1951 22.9729 20.1998 23.5413 20.6953C23.7069 20.8647 23.869 21.0376 24.0268 21.2143C24.0992 21.2861 24.1715 21.3579 24.246 21.4319C24.437 21.6328 24.437 21.6328 24.6965 22.0179C24.6714 22.4029 24.6714 22.4029 24.5625 22.6875C24.2628 22.7822 24.2628 22.7822 23.8929 22.8214C23.6025 22.6389 23.6025 22.6389 23.3321 22.3778C23.2418 22.2927 23.1515 22.2076 23.0585 22.1199C22.89 21.9521 22.7217 21.7842 22.5536 21.6161C22.198 21.5404 21.8449 21.5173 21.4822 21.4822C21.4863 21.6852 21.4863 21.6852 21.4906 21.8923C21.4822 22.4197 21.4822 22.4197 21.3399 22.8717C21.2912 23.361 21.2912 23.361 21.6077 23.6088C21.7182 23.6998 21.8287 23.7908 21.9426 23.8845C22.3783 24.2729 22.5879 24.5345 22.6389 25.1113C22.6504 25.648 22.6208 26.1729 22.5536 26.7054C22.4197 26.8393 22.4197 26.8393 22.0179 26.856C21.6161 26.8393 21.6161 26.8393 21.4822 26.7054C21.4681 26.4684 21.4575 26.2311 21.4487 25.9939C21.4049 25.3627 21.4049 25.3627 21.0051 24.8722C20.8973 24.8142 20.7896 24.7562 20.6786 24.6964C20.6639 24.7885 20.6493 24.8805 20.6341 24.9753C20.6129 25.096 20.5917 25.2166 20.5698 25.341C20.5496 25.4606 20.5294 25.5803 20.5086 25.7035C20.3977 26.08 20.3169 26.2001 20.009 26.4375C19.6773 26.4992 19.6773 26.4992 19.2844 26.5165C19.1407 26.5249 18.9969 26.5333 18.8489 26.5419C18.5489 26.5558 18.249 26.5694 17.949 26.5827C16.6456 26.6595 15.5885 26.9301 14.5849 27.8019C14.4631 27.9069 14.3414 28.0118 14.216 28.12C14.0947 28.2277 13.9733 28.3354 13.8483 28.4464C13.7255 28.5514 13.6028 28.6564 13.4763 28.7645C12.8469 29.3117 12.4481 29.743 11.9733 30.4554C14.9565 30.5217 14.9565 30.5217 18 30.5893C18.1326 30.9208 18.1326 30.9208 18.2679 31.2589C18.1795 31.3915 18.0911 31.5241 18 31.6607C17.7187 31.709 17.7187 31.709 17.3672 31.7063C17.2358 31.7063 17.1045 31.7063 16.9691 31.7062C16.827 31.7042 16.6848 31.7021 16.5383 31.7C16.3931 31.6994 16.2478 31.6988 16.0981 31.6982C15.6327 31.696 15.1674 31.6909 14.702 31.6858C14.3871 31.6838 14.0722 31.682 13.7572 31.6803C12.984 31.6759 12.2108 31.6692 11.4375 31.6607C11.4187 31.7635 11.3998 31.8663 11.3803 31.9721C11.1417 33.0864 10.4096 34.3754 9.56254 35.1429C9.10216 35.2182 9.10216 35.2182 8.75897 35.1429C8.60393 34.6138 8.59113 34.4038 8.85209 33.9072C8.95874 33.7542 9.06732 33.6025 9.17749 33.452C9.83213 32.4993 10.2555 31.5282 10.6512 30.4423C11.5141 28.1896 13.6614 26.5678 15.8253 25.602C16.602 25.3377 17.3744 25.3493 18.1842 25.3577C18.2955 25.3583 18.4069 25.3589 18.5216 25.3595C18.7942 25.3611 19.0668 25.3635 19.3393 25.3661C19.1235 24.8586 18.9285 24.4101 18.5195 24.032C16.5287 23.3135 14.357 24.0662 12.509 24.8304C10.5969 25.5801 9.0386 25.5174 7.15182 24.6964C5.63562 23.9838 5.63562 23.9838 5.1429 23.4911C5.11778 23.1479 5.11778 23.1479 5.1429 22.8214C5.18709 22.7772 5.23129 22.733 5.27682 22.6875C6.0804 22.6875 6.0804 22.6875 7.68754 23.4911C7.64334 21.9 7.59915 20.3089 7.55361 18.6697C6.43461 19.014 5.38049 19.3552 4.31421 19.8164C4.12815 19.894 4.12815 19.894 3.93832 19.9731C3.76106 20.0491 3.76106 20.0491 3.58022 20.1266C3.47488 20.1716 3.36953 20.2166 3.261 20.263C2.95773 20.4088 2.95773 20.4088 2.73218 20.8125C2.67409 21.1678 2.62899 21.5148 2.59355 21.8724C2.58235 21.9756 2.57116 22.0787 2.55962 22.185C2.52402 22.5143 2.48989 22.8436 2.45595 23.173C2.42136 23.5033 2.38645 23.8336 2.35085 24.1638C2.32875 24.3693 2.30727 24.5749 2.28645 24.7805C2.21145 25.485 2.21145 25.485 2.06254 25.6339C1.66075 25.6507 1.66075 25.6507 1.25897 25.6339C1.03022 25.4052 1.10196 25.1188 1.09993 24.8053C1.10847 23.9489 1.15895 23.0976 1.22549 22.2439C1.23374 22.1193 1.24199 21.9947 1.2505 21.8663C1.33187 20.9208 1.50831 20.1188 2.23463 19.4661C2.60024 19.2039 2.94719 19.0212 3.3584 18.8402C3.50247 18.7767 3.64654 18.7131 3.79498 18.6477C3.94423 18.5831 4.09348 18.5185 4.24725 18.452C4.46879 18.3536 4.46879 18.3536 4.69481 18.2532C5.69009 17.8183 6.58678 17.4443 7.68754 17.4643C7.68724 17.3894 7.68694 17.3145 7.68664 17.2373C7.68368 16.4596 7.68166 15.6818 7.68018 14.9041C7.67951 14.6136 7.67859 14.3231 7.67744 14.0326C7.67582 13.6158 7.67505 13.1989 7.67446 12.782C7.67377 12.6516 7.67308 12.5211 7.67237 12.3867C7.67236 12.2661 7.67235 12.1455 7.67233 12.0212C7.67204 11.9147 7.67174 11.8082 7.67143 11.6985C7.68754 11.4375 7.68754 11.4375 7.82147 11.1697ZM16.0916 14.6183C15.8061 14.9853 15.7649 15.2656 15.7233 15.7232C15.8558 15.7011 15.9884 15.679 16.125 15.6563C16.9418 15.5408 17.724 15.5609 18.5358 15.7232C18.4995 15.2031 18.4306 14.9556 18.1005 14.543C17.3646 13.9576 16.8141 14.0563 16.0916 14.6183ZM14.6518 17.8661C16.2871 17.8661 17.9224 17.8661 19.6072 17.8661C18.9785 17.0803 18.4976 16.7601 17.5072 16.6042C16.3191 16.5436 15.3696 16.9091 14.6518 17.8661ZM14.1161 18.9375C13.9475 19.2747 13.9649 19.5095 13.9644 19.8865C13.9642 20.0222 13.964 20.1579 13.9639 20.2977C13.9644 20.44 13.9649 20.5822 13.9654 20.7288C13.9649 20.87 13.9644 21.0112 13.9639 21.1567C13.964 21.2928 13.9642 21.4288 13.9644 21.569C13.9645 21.6935 13.9647 21.8181 13.9649 21.9464C13.9808 22.2579 14.0281 22.5232 14.1161 22.8214C14.3421 22.8022 14.5681 22.7826 14.7941 22.7628C14.92 22.752 15.0458 22.7411 15.1755 22.7299C15.6274 22.6836 16.0771 22.6178 16.5268 22.5536C16.5268 21.3603 16.5268 20.167 16.5268 18.9375C15.7313 18.9375 14.9358 18.9375 14.1161 18.9375ZM17.7322 18.9375C17.7322 20.1308 17.7322 21.3241 17.7322 22.5536C18.2183 22.7304 18.7045 22.9072 19.2054 23.0893C19.7411 23.3572 19.7411 23.3572 19.875 23.625C20.5007 22.1017 20.5468 20.5572 20.2768 18.9375C19.4371 18.9375 18.5974 18.9375 17.7322 18.9375Z" fill="white"/>
<path d="M10.1952 0.82135C10.3219 0.820207 10.4486 0.819065 10.5792 0.817888C10.7173 0.818009 10.8554 0.818131 10.9977 0.818256C11.217 0.816906 11.217 0.816906 11.4407 0.81553C11.9246 0.812982 12.4085 0.812462 12.8924 0.812174C13.2287 0.811314 13.565 0.810412 13.9013 0.809472C14.6067 0.807868 15.312 0.807361 16.0174 0.807531C16.8313 0.807692 17.6451 0.804868 18.4589 0.800635C19.2433 0.796703 20.0276 0.795749 20.8119 0.795909C21.1449 0.795593 21.478 0.794409 21.811 0.792338C22.2771 0.78971 22.7432 0.790484 23.2093 0.792098C23.4152 0.78984 23.4152 0.78984 23.6254 0.787537C24.5878 0.795994 25.1753 0.967967 25.8966 1.63615C25.9903 1.75191 25.9903 1.75191 26.086 1.87C26.1828 1.98628 26.1828 1.98628 26.2816 2.1049C26.6326 2.6125 26.5888 3.10748 26.5893 3.70419C26.5894 3.79843 26.5895 3.89267 26.5897 3.98977C26.5897 4.18857 26.5895 4.38737 26.5889 4.58617C26.5882 4.89156 26.5889 5.19691 26.5898 5.50229C26.5897 5.69534 26.5895 5.88838 26.5893 6.08143C26.5891 6.25772 26.589 6.43401 26.5888 6.61564C26.5715 7.01788 26.5715 7.01788 26.4375 7.15181C26.1111 7.17692 26.1111 7.17692 25.7679 7.15181C25.4072 6.79113 25.4645 6.59895 25.4587 6.09503C25.4554 5.93637 25.452 5.77771 25.4485 5.61425C25.4438 5.27978 25.4396 4.94531 25.436 4.61083C25.4307 4.3718 25.4307 4.3718 25.4252 4.12795C25.4225 3.90958 25.4225 3.90958 25.4198 3.6868C25.3561 3.19006 25.2414 2.88219 24.9643 2.46431C24.2548 1.99144 23.6112 2.00529 22.7893 2.01053C22.585 2.00948 22.585 2.00948 22.3765 2.0084C21.9276 2.00664 21.4786 2.0078 21.0297 2.00916C20.7171 2.00889 20.4046 2.0085 20.0921 2.008C19.4376 2.0074 18.7832 2.00826 18.1288 2.01014C17.2899 2.01243 16.4511 2.01111 15.6122 2.00871C14.9671 2.00725 14.3219 2.00772 13.6768 2.00876C13.3675 2.00903 13.0581 2.0087 12.7488 2.00776C12.3167 2.00674 11.8846 2.0083 11.4524 2.01053C11.3246 2.00972 11.1968 2.00891 11.0651 2.00807C10.4094 2.01436 9.95978 2.03538 9.42861 2.46431C8.95521 2.98843 8.87784 3.46753 8.86965 4.15784C8.86785 4.28028 8.86604 4.40271 8.86418 4.52886C8.86278 4.66001 8.86138 4.79117 8.85994 4.92629C8.85553 5.20409 8.85108 5.48189 8.8466 5.75968C8.84023 6.19763 8.83427 6.63557 8.82904 7.07353C8.82374 7.4962 8.81684 7.91883 8.80972 8.34147C8.80859 8.47317 8.80746 8.60486 8.8063 8.74055C8.80296 8.92294 8.80296 8.92294 8.79955 9.10901C8.79817 9.21624 8.79679 9.32348 8.79537 9.43396C8.75897 9.69645 8.75897 9.69645 8.49111 9.96431C7.881 9.8899 7.881 9.8899 7.68754 9.69645C7.67226 9.48846 7.66617 9.27978 7.66384 9.07125C7.66126 8.87132 7.66126 8.87132 7.65863 8.66736C7.65764 8.52201 7.65665 8.37666 7.65563 8.2269C7.65455 8.07802 7.65347 7.92915 7.65235 7.77576C7.6505 7.4595 7.64906 7.14323 7.64801 6.82696C7.64572 6.34515 7.63984 5.86347 7.63392 5.3817C7.63256 5.07452 7.63142 4.76734 7.63052 4.46016C7.627 4.24498 7.627 4.24498 7.62341 4.02544C7.62613 3.07964 7.74419 2.29752 8.41713 1.59117C8.98063 1.09912 9.44725 0.824405 10.1952 0.82135Z" fill="white"/>
<path d="M25.7679 8.35712C26.378 8.43152 26.378 8.43152 26.5715 8.62497C26.5859 8.89542 26.5908 9.16638 26.5921 9.43721C26.5932 9.6139 26.5944 9.79058 26.5956 9.97262C26.5962 10.1703 26.5967 10.368 26.5973 10.5657C26.5984 10.7724 26.5995 10.9792 26.6006 11.1859C26.6041 11.8671 26.6062 12.5482 26.6081 13.2293C26.6088 13.4636 26.6095 13.698 26.6102 13.9323C26.6131 14.9074 26.6157 15.8824 26.6172 16.8575C26.6193 18.2551 26.6238 19.6527 26.6314 21.0503C26.6366 22.0326 26.6392 23.015 26.6399 23.9974C26.6404 24.5842 26.642 25.1709 26.6464 25.7576C26.6504 26.3102 26.6512 26.8628 26.6497 27.4154C26.6496 27.6178 26.6507 27.8201 26.6531 28.0225C26.665 29.106 26.6696 30.0175 25.9018 30.8571C25.1382 31.5826 24.4465 31.701 23.4179 31.6916C23.3091 31.6915 23.2004 31.6914 23.0884 31.6914C22.8597 31.691 22.6309 31.6899 22.4022 31.6883C22.0507 31.6858 21.6992 31.6855 21.3477 31.6855C21.1254 31.6849 20.903 31.6841 20.6807 31.6832C20.5751 31.683 20.4695 31.6829 20.3607 31.6827C19.6227 31.6762 19.6227 31.6762 19.4732 31.5268C19.4565 31.125 19.4565 31.125 19.4732 30.7232C19.7304 30.466 20.2078 30.5647 20.5588 30.561C20.7561 30.5572 20.9534 30.5534 21.1508 30.5495C21.4623 30.544 21.7737 30.5391 22.0853 30.5355C22.3857 30.5318 22.6859 30.5256 22.9863 30.5192C23.1244 30.5185 23.1244 30.5185 23.2654 30.5178C23.884 30.5022 24.2939 30.3524 24.8304 30.0535C24.9188 30.0535 25.0072 30.0535 25.0982 30.0535C25.3187 29.4728 25.4 28.9922 25.4016 28.3721C25.4027 28.1979 25.4038 28.0236 25.405 27.8441C25.4048 27.6526 25.4047 27.4612 25.4046 27.2697C25.4054 27.0668 25.4063 26.8639 25.4073 26.661C25.4093 26.2252 25.4105 25.7894 25.411 25.3535C25.4119 24.6648 25.4149 23.9761 25.4181 23.2873C25.4252 21.7018 25.4297 20.1162 25.4341 18.5307C25.4382 17.0759 25.4429 15.6211 25.4497 14.1663C25.4528 13.4811 25.4547 12.796 25.4555 12.1108C25.4563 11.6856 25.4582 11.2603 25.4604 10.8351C25.4612 10.6374 25.4615 10.4397 25.4613 10.242C25.4612 9.9729 25.4628 9.70384 25.4645 9.43478C25.4651 9.20857 25.4651 9.20857 25.4657 8.9778C25.5 8.62497 25.5 8.62497 25.7679 8.35712Z" fill="white"/>
<path d="M1.25897 26.8393C1.61053 26.923 1.61053 26.923 1.92862 27.1072C2.0903 27.5653 2.06559 28.0038 2.05391 28.486C2.02267 29.7848 2.1233 31.0291 2.32144 32.3127C2.44865 33.1582 2.55992 34.0206 2.46433 34.875C2.19647 35.1429 2.19647 35.1429 1.86165 35.1763C1.52683 35.1429 1.52683 35.1429 1.25897 34.875C1.2061 34.6013 1.2061 34.6013 1.17893 34.2666C1.163 34.0839 1.163 34.0839 1.14675 33.8975C1.13683 33.7698 1.1269 33.6421 1.11667 33.5106C1.09577 33.2604 1.07468 33.0101 1.05337 32.7599C1.04456 32.6487 1.03574 32.5375 1.02666 32.4229C0.99985 32.1511 0.963241 31.8802 0.92196 31.6102C0.821712 30.8593 0.82717 30.1087 0.825012 29.3524C0.823697 29.0726 0.819526 28.7929 0.815334 28.5131C0.814643 28.337 0.813953 28.1608 0.813241 27.9793C0.811989 27.8183 0.810738 27.6573 0.809448 27.4915C0.825202 27.3647 0.840955 27.2378 0.857186 27.1072C0.989776 27.0188 1.12237 26.9304 1.25897 26.8393Z" fill="white"/>
<path d="M19.8749 5.67859C20.4089 5.71663 20.6743 5.87535 21.0447 6.25092C21.1326 6.33932 21.2205 6.42771 21.311 6.51878C21.4006 6.61166 21.4902 6.70454 21.5825 6.80024C21.6742 6.89209 21.7659 6.98393 21.8603 7.07856C22.5347 7.76492 22.5347 7.76492 22.6874 8.22323C22.4077 8.82148 21.9661 9.26595 21.5072 9.72993C21.4391 9.80244 21.371 9.87495 21.3008 9.94965C20.9481 10.3073 20.7325 10.4837 20.2417 10.6319C20.1207 10.6325 19.9996 10.6332 19.8749 10.6339C19.6071 10.3661 19.6071 10.3661 19.5443 10.0632C19.6351 9.53255 19.9633 9.26803 20.3437 8.91799C20.414 8.85074 20.4842 8.7835 20.5566 8.71422C20.7297 8.549 20.9048 8.3859 21.0803 8.22323C20.7002 7.76994 20.3294 7.33382 19.8917 6.93417C19.6071 6.61609 19.6071 6.61609 19.5485 6.25616C19.6071 5.94645 19.6071 5.94645 19.8749 5.67859Z" fill="white"/>
<path d="M14.5179 5.67857C14.6063 5.89956 14.6946 6.12054 14.7857 6.34822C14.6959 6.45025 14.6959 6.45025 14.6042 6.55434C14.121 7.10443 13.6445 7.65847 13.1786 8.22322C13.2834 8.32335 13.3882 8.42348 13.4961 8.52665C13.6331 8.65983 13.77 8.79306 13.9068 8.92634C13.976 8.99212 14.0451 9.0579 14.1163 9.12567C14.7789 9.77522 14.7789 9.77522 14.7857 10.2321C14.6973 10.3647 14.6089 10.4973 14.5179 10.6339C14.1099 10.7018 13.9193 10.6824 13.5755 10.4479C13.4461 10.3196 13.4461 10.3196 13.3141 10.1887C13.2196 10.0951 13.125 10.0014 13.0276 9.90491C12.9311 9.80573 12.8345 9.70654 12.7349 9.60436C12.5862 9.45947 12.5862 9.45947 12.4344 9.31165C12.3407 9.21713 12.2471 9.12261 12.1506 9.02522C12.0651 8.93895 11.9795 8.85268 11.8914 8.7638C11.6532 8.41455 11.6364 8.2366 11.7054 7.82143C11.8914 7.5487 11.8914 7.5487 12.1506 7.28729C12.2442 7.19276 12.3379 7.09824 12.4344 7.00086C12.5336 6.90426 12.6327 6.80767 12.7349 6.70815C12.8315 6.60897 12.9281 6.50978 13.0276 6.4076C13.1222 6.31394 13.2167 6.22028 13.3141 6.12378C13.4003 6.03827 13.4866 5.95276 13.5755 5.86466C13.912 5.63503 14.1187 5.64173 14.5179 5.67857Z" fill="white"/>
<path d="M18.0001 5.26007C18.4018 5.27681 18.4018 5.27681 18.5358 5.41074C18.5047 6.47282 18.159 7.41007 17.7917 8.39422C17.69 8.66791 17.5913 8.9426 17.4929 9.2175C17.4282 9.39344 17.3635 9.56931 17.2985 9.74511C17.2404 9.90296 17.1824 10.0608 17.1226 10.2234C16.9282 10.6349 16.7341 10.8737 16.3929 11.1697C16.1719 11.0813 15.9509 10.9929 15.7233 10.9018C15.7958 10.1365 15.9477 9.48172 16.2171 8.76366C16.2523 8.6674 16.2875 8.57113 16.3237 8.47195C16.3975 8.27065 16.4718 8.06955 16.5466 7.86864C16.6615 7.55993 16.7748 7.25065 16.8878 6.94124C16.9599 6.74511 17.0321 6.54901 17.1044 6.35295C17.1555 6.21402 17.1555 6.21402 17.2076 6.07228C17.503 5.28078 17.503 5.28078 18.0001 5.26007Z" fill="white"/>
<path d="M14.962 3.25262C15.096 3.25333 15.23 3.25403 15.368 3.25475C15.5126 3.25518 15.6571 3.25561 15.8061 3.25606C16.0344 3.25774 16.0344 3.25774 16.2673 3.25946C16.4963 3.26036 16.4963 3.26036 16.73 3.26129C17.1087 3.26287 17.4874 3.26508 17.8661 3.26783C18.0167 3.57754 18.0167 3.57754 18.1339 3.93747C18.0013 4.13636 18.0013 4.13636 17.8661 4.33926C17.5448 4.38912 17.5448 4.38912 17.1462 4.38791C17.0032 4.38782 16.8603 4.38774 16.713 4.38765C16.5632 4.38549 16.4133 4.38333 16.2589 4.38111C16.0341 4.38176 16.0341 4.38176 15.8048 4.38242C14.6875 4.375 14.6875 4.375 14.3839 4.0714C14.4809 3.2762 14.4809 3.2762 14.962 3.25262Z" fill="white"/>
<path d="M19.3393 3.2511C19.7411 3.26784 19.7411 3.26784 19.875 3.40177C19.8917 3.80355 19.8917 3.80355 19.875 4.20534C19.7411 4.33927 19.7411 4.33927 19.3393 4.35601C18.9375 4.33927 18.9375 4.33927 18.8036 4.20534C18.7868 3.80355 18.7868 3.80355 18.8036 3.40177C18.9375 3.26784 18.9375 3.26784 19.3393 3.2511Z" fill="white"/>
</svg>
