<svg xmlns="http://www.w3.org/2000/svg" xmlns:xlink="http://www.w3.org/1999/xlink" viewBox="0,0,256,256" width="500px" height="500px" fill-rule="evenodd"><g fill="#ffffff" fill-rule="evenodd" stroke="none" stroke-width="1" stroke-linecap="butt" stroke-linejoin="miter" stroke-miterlimit="10" stroke-dasharray="" stroke-dashoffset="0" font-family="none" font-weight="none" font-size="none" text-anchor="none" style="mix-blend-mode: normal"><g transform="scale(5.12,5.12)"><path d="M31,10l-14,1l-12,7h3v9.21484c-0.58203,0.48047 -1,1.76172 -1,3.28516c0,1.93359 0.67188,3.5 1.5,3.5c0.82813,0 1.5,-1.06641 1.5,-3c0,-1.52344 -0.41797,-3.10937 -1,-3.72266v-9.27734h11zM25.5,15l-5,4h-8c-0.09766,0.48438 -0.125,0.46875 -0.125,0.98047c0,0.51953 0.05469,1.02734 0.15625,1.51953c0.27734,-0.01172 5.96875,-0.5 8.98828,2c0.58594,-1.77344 2.21094,-4.05078 4.51563,-6.12109c0.21094,-0.19141 0.25,-0.19922 0.46484,-0.37891c0,-1 -0.46094,-1.42187 -1,-2zM34,16c-2.30469,0 -4.40234,0.88281 -6,2.32031c-0.30469,-0.27344 -0.62891,-0.51562 -0.96875,-0.74219c-0.12109,0.10547 -0.25,0.20703 -0.37109,0.31641c-1.625,1.46094 -2.90234,3.02344 -3.72266,4.4375c1.21094,0.55078 2.0625,1.75781 2.0625,3.16797v11.5h6v-11.5c0,-1.92578 1.57422,-3.5 3.5,-3.5c1.92578,0 3.5,1.57422 3.5,3.5v11.5h6v-12c0,-4.94922 -4.05078,-9 -9,-9zM12.53125,22.01563c-0.33594,0.9375 -0.53125,1.9375 -0.53125,2.98438v12h6v-11.5c0,-0.86719 0.33203,-1.64844 0.85938,-2.25391c-1.53906,-0.71094 -3.79297,-1.17187 -6.32812,-1.23047z"></path></g></g></svg>