<svg width="36" height="36" viewBox="0 0 36 36" fill="none" xmlns="http://www.w3.org/2000/svg">
<g clip-path="url(#clip0_172_822)">
<path d="M0.846853 18.9731C0.934388 18.9724 1.02192 18.9717 1.11211 18.971C1.20777 18.9707 1.30343 18.9704 1.39909 18.9701C1.49726 18.9697 1.59543 18.9693 1.6936 18.9689C1.89941 18.9682 2.10521 18.9678 2.31102 18.9675C2.57433 18.9671 2.83762 18.9654 3.10092 18.9634C3.30372 18.9621 3.50651 18.9618 3.70931 18.9616C3.80636 18.9614 3.90341 18.9609 4.00046 18.9599C4.13642 18.9587 4.27238 18.959 4.40835 18.9593C4.52426 18.9589 4.52426 18.9589 4.64252 18.9586C4.88052 18.988 5.0121 19.0524 5.2031 19.1953C5.35375 19.5106 5.39386 19.8657 5.45598 20.2078C6.05601 23.4823 7.89263 26.4629 10.6385 28.3768C13.4893 30.3113 16.9491 31.1045 20.3543 30.4802C22.8338 29.9913 25 28.8378 26.8594 27.1406C26.9457 27.0619 26.9457 27.0619 27.0338 26.9816C27.4965 26.5386 27.8817 26.0344 28.2656 25.5235C28.3106 25.4641 28.3555 25.4047 28.4018 25.3436C29.5762 23.7315 30.2771 21.8644 30.6019 19.9071C30.6143 19.8367 30.6267 19.7662 30.6395 19.6936C30.6496 19.6312 30.6597 19.5689 30.6702 19.5047C30.7551 19.2504 30.9107 19.1033 31.1484 18.9844C31.2873 18.9769 31.4264 18.9739 31.5654 18.9731C31.653 18.9724 31.7405 18.9717 31.8307 18.971C31.9267 18.9707 32.0228 18.9704 32.1188 18.9701C32.2171 18.9697 32.3153 18.9693 32.4136 18.9689C32.6198 18.9682 32.826 18.9677 33.0323 18.9675C33.2961 18.9671 33.56 18.9654 33.8238 18.9634C34.0269 18.9621 34.23 18.9618 34.4331 18.9616C34.5304 18.9614 34.6276 18.9609 34.7249 18.9599C34.8612 18.9587 34.9975 18.959 35.1338 18.9593C35.25 18.9589 35.25 18.9589 35.3686 18.9586C35.6062 18.9879 35.7383 19.0538 35.9297 19.1953C36.1995 19.735 35.9642 20.6094 35.8594 21.1773C35.8361 21.3043 35.8361 21.3043 35.8125 21.4338C35.2822 24.1872 34.0893 26.8428 32.3437 29.0391C32.2942 29.1021 32.2448 29.1651 32.1938 29.23C31.7761 29.7517 31.3271 30.2422 30.8672 30.7266C30.7844 30.8139 30.7844 30.8139 30.6999 30.9029C30.348 31.2643 29.9743 31.5889 29.5777 31.9004C29.4949 31.9655 29.4124 32.0309 29.3301 32.0966C28.5884 32.6881 27.8255 33.2121 27 33.6797C26.9141 33.7284 26.9141 33.7284 26.8264 33.778C24.1175 35.2934 21.1217 36.0348 18.0263 36.022C17.9295 36.0218 17.9295 36.0218 17.8307 36.0216C16.271 36.0164 14.7992 35.8319 13.289 35.4375C13.2307 35.4224 13.1724 35.4073 13.1124 35.3917C9.5646 34.451 6.20413 32.2872 3.93748 29.3906C3.89334 29.338 3.8492 29.2853 3.80372 29.2311C1.65712 26.6543 -0.0350999 22.8997 -0.0305083 19.5065C0.00599336 19.3023 0.0679755 19.2037 0.210916 19.0547C0.438983 18.9787 0.606878 18.9746 0.846853 18.9731ZM1.2656 20.1797C1.31048 20.8231 1.31048 20.8231 1.41776 21.4409C1.43401 21.5103 1.45025 21.5796 1.46698 21.6511C1.48464 21.7224 1.50229 21.7937 1.52049 21.8672C1.53928 21.9436 1.55807 22.0199 1.57743 22.0986C2.16233 24.4106 3.22341 26.5438 4.71092 28.4063C4.74083 28.4443 4.77074 28.4824 4.80155 28.5216C5.60502 29.5379 6.54941 30.5202 7.59373 31.2891C7.63624 31.3206 7.67875 31.3522 7.72254 31.3847C9.33556 32.5749 11.0903 33.5052 13.0078 34.1016C13.0598 34.118 13.1118 34.1345 13.1654 34.1515C14.0566 34.4296 14.9672 34.6017 15.8906 34.7344C15.9684 34.7456 15.9684 34.7456 16.0478 34.757C18.3031 35.0298 20.604 34.7701 22.7812 34.1719C22.8433 34.1549 22.9054 34.1379 22.9694 34.1204C24.5292 33.6795 26.095 32.9221 27.4219 31.9922C27.4741 31.956 27.5264 31.9198 27.5803 31.8825C28.3349 31.356 29.0315 30.792 29.6873 30.1465C29.8136 30.0224 29.9413 29.8998 30.0693 29.7774C30.5871 29.2768 31.0519 28.7542 31.4806 28.1756C31.5677 28.0582 31.6561 27.9421 31.7447 27.8259C33.2909 25.765 34.7344 22.7967 34.7344 20.1797C33.783 20.1797 32.8317 20.1797 31.8515 20.1797C31.771 20.4615 31.6927 20.7378 31.6247 21.0218C31.1887 22.7977 30.5353 24.4542 29.4609 25.9453C29.412 26.0143 29.363 26.0833 29.3126 26.1543C28.9286 26.6821 28.5057 27.1628 28.0547 27.6328C28.0188 27.6707 27.9828 27.7085 27.9458 27.7475C26.7906 28.9593 25.4262 29.8875 23.9062 30.586C23.823 30.6242 23.7398 30.6625 23.6541 30.7019C20.1689 32.2448 16.2188 32.2267 12.6808 30.8643C12.2784 30.7001 11.8927 30.5039 11.51 30.2983C11.4037 30.2414 11.2963 30.1867 11.1887 30.1322C9.42714 29.2213 7.81376 27.7758 6.67967 26.1563C6.65138 26.1167 6.62309 26.0771 6.59394 26.0362C5.47622 24.4653 4.73844 22.7117 4.32724 20.8301C4.27447 20.6115 4.21018 20.3959 4.14842 20.1797C3.19709 20.1797 2.24576 20.1797 1.2656 20.1797Z" fill="white"/>
<path d="M28.2821 13.2459C28.5692 13.5083 28.6998 13.8262 28.7183 14.2119C28.6693 14.6455 28.5327 14.8811 28.1956 15.1544C27.8843 15.3829 27.5499 15.5768 27.2197 15.7764C27.0963 15.8516 26.9729 15.9269 26.8495 16.0022C26.7654 16.0536 26.6812 16.1049 26.597 16.1563C26.1902 16.4043 25.7863 16.6569 25.3828 16.9102C24.6951 17.3413 24.0044 17.7676 23.3122 18.1914C22.8795 18.4558 22.8795 18.4558 22.4566 18.7353C22.2891 18.8438 22.2891 18.8438 22.1484 18.8438C22.1339 18.9308 22.1194 19.0178 22.1045 19.1074C21.8751 20.1167 21.2241 20.9613 20.3772 21.5357C19.2862 22.2018 18.0862 22.3791 16.8456 22.085C15.6804 21.7279 14.8036 21.0162 14.2031 19.9688C13.6709 18.8925 13.5847 17.7119 13.9224 16.5638C14.3706 15.4198 15.0853 14.6277 16.1719 14.0625C17.1984 13.64 18.4216 13.5226 19.4766 13.9219C19.6854 14.0307 19.8894 14.1421 20.0899 14.2658C20.7588 14.4922 21.6311 14.1736 22.3042 14.0316C22.5067 13.9889 22.7092 13.9468 22.9118 13.9049C23.4145 13.8007 23.917 13.6957 24.4194 13.5904C24.8454 13.5012 25.2714 13.4124 25.6976 13.3242C25.8965 13.2829 26.0952 13.241 26.294 13.199C26.4165 13.1736 26.5391 13.1482 26.6617 13.1229C26.7163 13.1112 26.7709 13.0994 26.8272 13.0874C27.3581 12.9791 27.8196 12.9228 28.2821 13.2459ZM26.2077 14.4406C26.1575 14.4509 26.1074 14.4611 26.0558 14.4717C25.891 14.5057 25.7263 14.5401 25.5616 14.5745C25.447 14.5981 25.3325 14.6218 25.2179 14.6454C24.9169 14.7075 24.6161 14.77 24.3152 14.8327C24.008 14.8965 23.7007 14.96 23.3933 15.0235C22.7908 15.1481 22.1883 15.2731 21.5859 15.3984C21.5859 15.7068 21.6478 15.8339 21.7837 16.106C21.9812 16.5186 22.117 16.9219 22.2187 17.3672C22.4681 17.2744 22.685 17.1641 22.9095 17.0217C23.008 16.9596 23.008 16.9596 23.1084 16.8963C23.1788 16.8516 23.2492 16.8068 23.3218 16.7607C23.4734 16.6651 23.6251 16.5695 23.7769 16.474C23.8161 16.4493 23.8552 16.4246 23.8956 16.3992C24.3335 16.1235 24.7747 15.8534 25.2158 15.583C26.1549 15.0169 26.1549 15.0169 27.0703 14.4141C27.0703 14.3909 27.0703 14.3677 27.0703 14.3438C26.7701 14.3311 26.5014 14.3797 26.2077 14.4406ZM15.5945 16.0164C15.3825 16.2785 15.2465 16.5654 15.1172 16.875C15.0737 16.9772 15.0737 16.9772 15.0293 17.0815C14.8079 17.9855 14.9383 18.8517 15.4177 19.6545C15.9274 20.3833 16.6237 20.7583 17.4639 21.0015C18.3264 21.1041 19.166 20.9283 19.8636 20.3972C20.5705 19.7988 21.0157 19.0338 21.0937 18.1019C21.0937 17.1655 20.7408 16.4156 20.1118 15.7429C19.45 15.1038 18.6703 14.8783 17.7707 14.8868C16.8975 14.9515 16.1902 15.397 15.5945 16.0164Z" fill="white"/>
<path d="M31.9219 6.32812C32.1021 6.49329 32.2433 6.68077 32.3877 6.87744C32.4298 6.93331 32.4719 6.98918 32.5153 7.04675C32.9942 7.69376 33.4163 8.37474 33.8203 9.07031C33.8647 9.14622 33.8647 9.14622 33.9101 9.22367C35.077 11.2425 35.9691 13.7986 36.022 16.1499C36.0259 16.2656 36.0259 16.2656 36.0299 16.3836C35.9922 16.6485 35.9283 16.7126 35.7188 16.875C35.508 16.9107 35.508 16.9107 35.2588 16.9114C35.2133 16.9119 35.1678 16.9124 35.1208 16.9129C34.9707 16.9141 34.8207 16.9133 34.6707 16.9123C34.5661 16.9125 34.4616 16.9128 34.357 16.9132C34.1381 16.9136 33.9192 16.913 33.7003 16.9117C33.4198 16.9101 33.1395 16.911 32.859 16.9127C32.6432 16.9137 32.4274 16.9134 32.2116 16.9126C32.1082 16.9124 32.0048 16.9127 31.9014 16.9133C31.7568 16.914 31.6123 16.913 31.4677 16.9114C31.3855 16.9112 31.3033 16.9109 31.2186 16.9107C30.9641 16.8676 30.8826 16.7953 30.7266 16.5937C30.6679 16.4194 30.6679 16.4194 30.6346 16.2238C30.6214 16.1515 30.6083 16.0793 30.5948 16.0048C30.5817 15.928 30.5686 15.8511 30.5552 15.772C30.2147 13.9475 29.6023 12.1992 28.4867 10.6933C28.4541 10.6493 28.4215 10.6052 28.388 10.5599C28.3261 10.4779 28.2631 10.3967 28.1986 10.3167C28.0534 10.1275 27.9834 9.97954 27.9344 9.74542C27.9863 9.48228 28.0233 9.4239 28.1958 9.2338C28.2405 9.18449 28.2852 9.13518 28.3313 9.08437C28.5773 8.82238 28.828 8.56543 29.0814 8.3106C29.1376 8.25399 29.1938 8.19737 29.2517 8.13904C29.3697 8.02042 29.4877 7.9019 29.6059 7.78347C29.7866 7.60207 29.9665 7.41994 30.1465 7.23779C30.2616 7.1222 30.3768 7.00666 30.492 6.89117C30.5456 6.83676 30.5991 6.78234 30.6543 6.72627C30.7047 6.67602 30.7552 6.62576 30.8072 6.57397C30.8731 6.50766 30.8731 6.50766 30.9404 6.44001C31.2786 6.16522 31.526 6.15078 31.9219 6.32812ZM31.2345 7.92155C31.1484 8.00766 31.0625 8.09396 30.9768 8.18042C30.9316 8.22568 30.8865 8.27093 30.8399 8.31757C30.695 8.46285 30.5504 8.60837 30.4058 8.7539C30.3079 8.85215 30.2099 8.95039 30.112 9.04861C29.8714 9.29004 29.6309 9.53168 29.3906 9.77343C29.5852 10.1298 29.7849 10.4784 30.0059 10.8193C30.8673 12.22 31.4141 13.7758 31.7326 15.385C31.7577 15.5985 31.7577 15.5985 31.8516 15.6797C32.0646 15.6859 32.276 15.6878 32.489 15.6865C32.5529 15.6865 32.6168 15.6864 32.6826 15.6862C32.8876 15.6859 33.0925 15.685 33.2974 15.6841C33.4359 15.6837 33.5745 15.6834 33.7131 15.6831C34.0535 15.6823 34.3939 15.6811 34.7344 15.6797C34.5677 13.0974 33.4266 10.5543 31.9922 8.4375C31.9647 8.39639 31.9371 8.35529 31.9088 8.31294C31.712 8.01811 31.712 8.01811 31.5 7.73437C31.3931 7.72626 31.3931 7.72626 31.2345 7.92155Z" fill="white"/>
<path d="M4.78127 6.2578C4.91251 6.34737 4.91251 6.34737 5.0429 6.46783C5.09172 6.51268 5.14054 6.55754 5.19084 6.60375C5.4521 6.85357 5.71005 7.10625 5.96532 7.3622C6.0221 7.41891 6.07889 7.47563 6.13739 7.53406C6.2563 7.65292 6.37511 7.77187 6.49385 7.8909C6.67625 8.07368 6.85903 8.25608 7.04185 8.43845C7.15764 8.55428 7.27341 8.67014 7.38915 8.78603C7.44393 8.84066 7.49871 8.8953 7.55515 8.95159C7.60541 9.00208 7.65567 9.05256 7.70746 9.10458C7.75183 9.149 7.79619 9.19342 7.8419 9.23918C7.99198 9.40222 8.01513 9.48814 8.04394 9.71217C8.00608 10.0764 7.85351 10.2594 7.63332 10.5425C7.55485 10.649 7.47676 10.7559 7.39904 10.863C7.36028 10.9164 7.32152 10.9697 7.28159 11.0247C6.22286 12.5202 5.58831 14.4034 5.35519 16.2121C5.30898 16.5272 5.24456 16.6802 4.99221 16.875C4.78143 16.9107 4.78143 16.9107 4.53229 16.9114C4.48676 16.9119 4.44122 16.9124 4.3943 16.9129C4.24421 16.9141 4.09421 16.9133 3.94411 16.9123C3.83957 16.9125 3.73502 16.9128 3.63048 16.9132C3.41154 16.9136 3.19264 16.913 2.97371 16.9117C2.69328 16.91 2.41292 16.911 2.13249 16.9127C1.91666 16.9137 1.70085 16.9133 1.48502 16.9126C1.38163 16.9124 1.27824 16.9127 1.17486 16.9133C1.03026 16.914 0.885779 16.9129 0.741187 16.9114C0.65897 16.9112 0.576754 16.9109 0.492046 16.9107C0.237905 16.8676 0.155076 16.7958 2.18153e-05 16.5937C-0.572917 14.0155 1.36305 10.3304 2.68649 8.2099C3.02974 7.68077 3.41023 7.1776 3.7969 6.67967C3.84974 6.61088 3.90258 6.54209 3.95702 6.47121C4.17915 6.20878 4.45554 6.18831 4.78127 6.2578ZM4.50002 7.73436C3.8891 8.5486 3.35293 9.43366 2.88283 10.3359C2.84842 10.4003 2.84842 10.4003 2.81331 10.466C2.02312 11.9601 1.26565 13.9801 1.26565 15.6797C2.21697 15.6797 3.1683 15.6797 4.14846 15.6797C4.2676 15.3228 4.2676 15.3228 4.35995 14.9634C4.7834 13.1262 5.49066 11.3738 6.6094 9.84373C6.25449 9.41159 5.86439 9.01765 5.46862 8.62348C5.35574 8.51098 5.24324 8.3981 5.13077 8.28519C5.05925 8.21371 4.9877 8.14225 4.91613 8.07082C4.81908 7.97389 4.81908 7.97389 4.72007 7.875C4.59603 7.72634 4.59603 7.72634 4.50002 7.73436Z" fill="white"/>
<path d="M19.5274 -0.0466919C21.9992 -0.0177812 24.4898 0.884802 26.6484 2.03906C26.695 2.06369 26.7415 2.08832 26.7895 2.1137C27.4852 2.48422 28.1285 2.90098 28.7578 3.375C28.8008 3.4071 28.8438 3.43919 28.8881 3.47226C29.0164 3.56827 29.1443 3.66482 29.272 3.76172C29.3112 3.79135 29.3504 3.82098 29.3908 3.85151C29.6492 4.05043 29.7267 4.13769 29.7887 4.46225C29.7804 4.93224 29.3819 5.21915 29.0673 5.52585C28.9975 5.59572 28.9277 5.66569 28.8581 5.73575C28.712 5.88196 28.5651 6.02715 28.4174 6.17166C28.2286 6.35645 28.0421 6.54336 27.8562 6.73105C27.7125 6.87572 27.5678 7.01932 27.4227 7.16262C27.3536 7.23115 27.2847 7.29998 27.2161 7.3691C27.1199 7.46571 27.0222 7.56079 26.9244 7.65581C26.8693 7.71016 26.8142 7.76452 26.7574 7.82052C26.5305 7.97847 26.3601 8.00328 26.0859 8.01562C25.8398 7.90675 25.6494 7.77633 25.4353 7.6149C23.8301 6.40678 21.9111 5.66018 19.9263 5.38639C19.8638 5.37667 19.8013 5.36695 19.7369 5.35693C19.6816 5.34923 19.6262 5.34153 19.5692 5.33359C19.3319 5.24598 19.2166 5.11458 19.0547 4.92188C19.0105 4.70846 19.0105 4.70846 19.0103 4.468C19.009 4.33249 19.009 4.33249 19.0076 4.19425C19.0085 4.09621 19.0094 3.99818 19.0105 3.90015C19.0104 3.79902 19.0102 3.6979 19.0099 3.59678C19.0097 3.38517 19.0108 3.17362 19.0127 2.96202C19.0151 2.69128 19.0147 2.42064 19.0134 2.14991C19.0126 1.94119 19.0132 1.73249 19.0143 1.52378C19.0147 1.42398 19.0146 1.32419 19.0142 1.22439C19.0138 1.08474 19.0154 0.94508 19.0172 0.805435C19.0176 0.726085 19.018 0.646735 19.0185 0.564981C19.0727 0.245216 19.2048 0.0319841 19.5274 -0.0466919ZM20.25 1.26562C20.25 2.21695 20.25 3.16828 20.25 4.14844C20.5284 4.21805 20.8069 4.28766 21.0937 4.35938C22.9091 4.84593 24.6244 5.4893 26.1562 6.60938C26.6302 6.22079 27.0567 5.78711 27.4878 5.35254C27.5634 5.27653 27.6391 5.20054 27.7148 5.12457C27.8986 4.94001 28.0822 4.75522 28.2656 4.57031C28.0999 4.39857 27.9399 4.24757 27.7399 4.11713C27.6934 4.08675 27.647 4.05638 27.5991 4.02508C27.5493 3.99328 27.4995 3.96148 27.4482 3.92871C27.3956 3.89501 27.343 3.8613 27.2887 3.82657C25.2567 2.53987 22.7041 1.26562 20.25 1.26562Z" fill="white"/>
<path d="M16.6641 6.57886e-06C16.9276 0.260715 16.9808 0.43951 16.9828 0.805442C16.9845 0.940951 16.9845 0.940951 16.9862 1.0792C16.9859 1.17723 16.9856 1.27526 16.9851 1.3733C16.9855 1.47442 16.9859 1.57554 16.9865 1.67667C16.9872 1.88826 16.9869 2.09983 16.9858 2.31143C16.9846 2.58217 16.9863 2.85281 16.9888 3.12354C16.9903 3.33225 16.9902 3.54095 16.9896 3.74967C16.9896 3.84946 16.99 3.94926 16.9911 4.04905C16.9923 4.1887 16.991 4.32836 16.9897 4.46801C16.9896 4.54736 16.9895 4.62671 16.9895 4.70846C16.9314 4.98892 16.812 5.09423 16.5937 5.27344C16.4128 5.3367 16.4128 5.3367 16.2188 5.36491C16.1098 5.38262 16.1098 5.38262 15.9985 5.4007C15.9209 5.41236 15.8432 5.42402 15.7632 5.43604C14.412 5.66839 13.1522 6.08453 11.9531 6.75001C11.8673 6.79609 11.7814 6.84214 11.6955 6.88816C11.2768 7.11659 10.8939 7.36393 10.5205 7.65967C9.98063 8.07138 9.98063 8.07138 9.5625 8.01563C9.43672 7.92662 9.43672 7.92662 9.30569 7.8066C9.25647 7.76173 9.20724 7.71686 9.15652 7.67062C8.69346 7.2352 8.23846 6.79202 7.78597 6.34562C7.65737 6.21926 7.52821 6.09347 7.3985 5.96824C7.21027 5.78641 7.02393 5.60281 6.83789 5.41874C6.77967 5.3632 6.72145 5.30767 6.66147 5.25045C6.2229 4.81036 6.2229 4.81036 6.21265 4.47168C6.26984 4.15136 6.35712 4.06906 6.60937 3.86719C6.64845 3.83455 6.68753 3.80191 6.72779 3.76828C9.02456 1.87084 13.5342 -0.611477 16.6641 6.57886e-06ZM7.73437 4.50001C8.12296 4.97397 8.55664 5.40051 8.99121 5.83155C9.06721 5.9072 9.1432 5.98287 9.21918 6.05855C9.40374 6.24235 9.58853 6.42593 9.77344 6.60938C10.1298 6.41484 10.4784 6.21511 10.8193 5.99415C12.2144 5.13753 13.8147 4.51624 15.4317 4.24952C15.6083 4.22773 15.6083 4.22773 15.75 4.14844C15.75 3.19712 15.75 2.24579 15.75 1.26563C12.8952 1.26563 9.99567 2.88194 7.73437 4.50001Z" fill="white"/>
<path d="M16.4268 23.9392C16.5531 23.939 16.6794 23.9387 16.8057 23.9384C17.0693 23.938 17.3328 23.9386 17.5964 23.9399C17.9323 23.9415 18.2682 23.9406 18.6041 23.9389C18.8646 23.9378 19.1251 23.9382 19.3856 23.9389C19.5094 23.9391 19.6331 23.9389 19.7569 23.9382C20.5769 23.9348 21.3203 23.9411 21.9683 24.5127C22.4048 24.9985 22.5524 25.5166 22.5267 26.1642C22.4521 26.7319 22.149 27.1846 21.7266 27.5625C21.2616 27.8684 20.8157 27.9245 20.2663 27.9254C20.2124 27.9257 20.1585 27.9261 20.103 27.9264C19.9253 27.9275 19.7476 27.9279 19.57 27.9283C19.4459 27.9287 19.3218 27.9291 19.1977 27.9295C18.9376 27.9303 18.6776 27.9307 18.4175 27.9309C18.0855 27.9313 17.7535 27.933 17.4215 27.935C17.1651 27.9363 16.9088 27.9367 16.6524 27.9368C16.5301 27.937 16.4077 27.9376 16.2854 27.9385C15.4373 27.9445 14.674 27.9418 14.0208 27.3142C13.5811 26.84 13.4559 26.379 13.4761 25.736C13.5381 25.1848 13.7588 24.7534 14.1758 24.3856C14.8374 23.8822 15.6383 23.935 16.4268 23.9392ZM14.836 25.4531C14.6707 25.6785 14.6673 25.8819 14.6953 26.1562C14.8332 26.4856 15.0037 26.5852 15.3281 26.7187C15.5829 26.7509 15.5829 26.7509 15.8588 26.7471C15.9102 26.7476 15.9615 26.7481 16.0145 26.7486C16.1833 26.7499 16.3521 26.7496 16.521 26.7492C16.639 26.7495 16.757 26.7499 16.8751 26.7503C17.1221 26.751 17.369 26.7508 17.616 26.7501C17.9317 26.7493 18.2474 26.7507 18.5631 26.7528C18.8067 26.7541 19.0504 26.754 19.294 26.7536C19.4104 26.7536 19.5267 26.754 19.6431 26.7549C19.8062 26.756 19.9691 26.7552 20.1322 26.754C20.2247 26.754 20.3173 26.754 20.4127 26.754C20.7556 26.7073 21.0473 26.5898 21.2652 26.3056C21.3493 25.9879 21.3392 25.7984 21.1817 25.5058C21.0241 25.3132 20.9684 25.254 20.7422 25.1719C20.5634 25.1578 20.3923 25.1512 20.2135 25.1514C20.1607 25.151 20.1078 25.1505 20.0534 25.15C19.8788 25.1487 19.7044 25.1484 19.5299 25.1482C19.4083 25.1478 19.2868 25.1473 19.1652 25.1468C18.9105 25.146 18.6557 25.1457 18.401 25.1458C18.075 25.1458 17.7491 25.1439 17.4231 25.1415C17.1721 25.1399 16.921 25.1396 16.67 25.1397C16.5498 25.1395 16.4297 25.1389 16.3095 25.1378C16.1412 25.1364 15.973 25.1368 15.8047 25.1377C15.7554 25.1369 15.7061 25.1361 15.6552 25.1353C15.3047 25.1398 15.1071 25.2355 14.836 25.4531Z" fill="white"/>
<path d="M20.5313 8.71875C20.5839 8.73307 20.6365 8.74739 20.6907 8.76214C22.0304 9.13467 23.1868 9.81091 24.2578 10.6875C24.324 10.7415 24.3902 10.7955 24.4583 10.8512C24.7463 11.097 25.0101 11.3261 25.1719 11.6719C25.1719 11.9494 25.1413 12.1045 24.9873 12.3354C24.7421 12.4968 24.6173 12.4983 24.3281 12.4453C24.1187 12.3038 23.945 12.1304 23.7656 11.9531C22.0336 10.295 19.8387 9.63864 17.485 9.68307C15.707 9.74246 13.9132 10.4683 12.5805 11.6529C12.3251 11.8512 12.1979 11.8654 11.887 11.8466C11.7422 11.8125 11.7422 11.8125 11.562 11.6631C11.4397 11.4184 11.407 11.3088 11.461 11.0391C12.3822 9.63011 14.5498 8.90589 16.1128 8.56137C17.5297 8.28031 19.1416 8.32195 20.5313 8.71875Z" fill="white"/>
<path d="M18.8438 16.1499C19.395 16.4449 19.6652 16.7956 19.8985 17.3672C20.0751 17.9553 19.9687 18.5162 19.6875 19.0547C19.3631 19.5017 18.9599 19.774 18.4219 19.8984C17.8017 19.9772 17.2378 19.8922 16.7319 19.5087C16.3371 19.1423 16.0708 18.6784 16.017 18.1376C16.0039 17.5382 16.1611 17.0504 16.5364 16.5792C17.127 15.9962 18.0802 15.8267 18.8438 16.1499ZM17.2705 17.6352C17.2021 17.8748 17.2339 18.0417 17.2969 18.2812C17.5077 18.5299 17.6547 18.6878 17.9824 18.7251C18.2732 18.6971 18.4105 18.6088 18.6328 18.4218C18.7578 18.2155 18.7747 18.1003 18.7647 17.8593C18.6937 17.6159 18.5949 17.4803 18.4219 17.2968C17.9518 17.0618 17.5646 17.2476 17.2705 17.6352Z" fill="white"/>
<path d="M10.0547 13.7109C10.2953 13.8799 10.3899 13.9843 10.4502 14.2734C10.4258 14.6064 10.2761 14.9083 10.1505 15.2136C10.0173 15.5681 9.93404 15.9285 9.85005 16.2974C9.76731 16.5415 9.6971 16.6509 9.49217 16.8047C9.29918 16.856 9.12483 16.844 8.92967 16.8047C8.72767 16.67 8.66519 16.5783 8.59459 16.3474C8.57119 15.9983 8.66625 15.7086 8.76707 15.3765C8.78515 15.3133 8.80324 15.25 8.82187 15.1849C9.29111 13.5904 9.29111 13.5904 10.0547 13.7109Z" fill="white"/>
</g>
<defs>
<clipPath id="clip0_172_822">
<rect width="36" height="36" fill="white"/>
</clipPath>
</defs>
</svg>
