<svg width="36" height="36" viewBox="0 0 36 36" fill="none" xmlns="http://www.w3.org/2000/svg">
<g clip-path="url(#clip0_172_854)">
<path d="M7.10815 0.0126343C7.50789 0.160947 7.73317 0.358844 8.05078 0.641602C8.94991 1.28941 9.89405 1.33802 10.9685 1.19476C11.5791 1.04345 12.0129 0.655048 12.4601 0.232361C12.7969 0 12.7969 0 13.1874 -0.00604248C13.7861 0.1877 14.2843 0.479828 14.8184 0.808594C14.9695 0.899412 14.9695 0.899412 15.1238 0.992065C15.8062 1.40346 16.4816 1.82605 17.1562 2.25C17.133 2.40136 17.1098 2.55273 17.0859 2.70868C16.9136 4.09703 17.022 4.93968 17.7935 6.11169C18.2291 6.55974 18.5299 6.70433 19.125 6.89062C19.4378 6.91156 19.4378 6.91156 19.6875 6.75C19.9535 6.45142 19.9535 6.45142 20.2061 6.09961C20.7201 5.50648 20.7201 5.50648 21.0926 5.41736C21.4344 5.45476 21.746 5.53503 22.0781 5.625C22.3538 5.67777 22.6294 5.73047 22.9054 5.78169C24.109 6.00764 24.109 6.00764 24.4687 6.1875C24.5885 6.5506 24.5885 6.5506 24.6973 7.00488C24.7339 7.15371 24.7705 7.30254 24.8082 7.45587C24.8906 7.875 24.8906 7.875 24.8906 8.4375C25.0105 8.4636 25.0105 8.4636 25.1329 8.49023C26.0729 8.74132 26.6217 9.1578 27.1406 9.98438C27.2554 10.3046 27.2554 10.3046 27.3428 10.626C27.561 11.4051 28.0643 11.7567 28.6875 12.2344C28.8759 12.3944 29.0635 12.5555 29.25 12.7178C29.3892 12.8367 29.5284 12.9556 29.6719 13.0781C29.4258 13.5 29.4258 13.5 29.1094 13.9219C28.437 13.9219 28.3522 13.8048 27.8789 13.3594C27.7665 13.255 27.6541 13.1505 27.5383 13.043C27.4535 12.9618 27.3687 12.8805 27.2812 12.7969C26.794 13.3538 26.794 13.3538 26.2969 13.9219C26.5455 14.4191 26.7786 14.7496 27.1318 15.1699C27.6635 15.8098 28.1834 16.4573 28.6963 17.1123C28.7651 17.2001 28.8339 17.2879 28.9047 17.3784C29.0668 17.5855 29.2287 17.7927 29.3906 18C29.4697 17.895 29.5487 17.7901 29.6301 17.6819C29.9384 17.3144 30.2387 17.0475 30.6211 16.7607C30.7335 16.6757 30.8459 16.5907 30.9617 16.5031C31.0465 16.4402 31.1313 16.3773 31.2187 16.3125C31.1205 16.226 31.0222 16.1396 30.921 16.0505C30.793 15.9368 30.6651 15.8232 30.5332 15.7061C30.4059 15.5935 30.2787 15.4809 30.1476 15.3649C29.8125 15.0469 29.8125 15.0469 29.5312 14.625C29.8793 14.2073 29.8793 14.2073 30.2344 13.7812C30.8537 14.2161 31.4102 14.6628 31.9307 15.2139C32.4083 15.7036 32.8188 15.9366 33.4687 16.1719C34.3993 16.5652 35.1879 16.9681 35.7187 17.8594C36.0999 18.8096 36.1913 19.884 35.8984 20.8751C35.6172 21.4738 35.243 21.9311 34.7344 22.3594C34.6416 22.3594 34.5487 22.3594 34.4531 22.3594C34.4344 22.4624 34.4157 22.5653 34.3964 22.6714C34.3197 23.029 34.2206 23.3521 34.0945 23.6947C34.0503 23.8153 34.0062 23.936 33.9607 24.0603C33.9131 24.1889 33.8655 24.3175 33.8165 24.4501C33.7429 24.6511 33.7429 24.6511 33.6678 24.8562C33.5111 25.2838 33.3537 25.7113 33.1963 26.1387C33.0394 26.5651 32.8826 26.9915 32.7263 27.4182C32.6292 27.6833 32.5317 27.9483 32.4338 28.2131C32.0634 29.2231 31.7412 30.119 31.7637 31.21C31.7662 31.3708 31.7687 31.5315 31.7714 31.6972C31.7746 31.8178 31.7779 31.9383 31.7812 32.0625C31.8713 32.056 31.9614 32.0494 32.0543 32.0427C32.946 32.0055 33.4539 32.0828 34.1719 32.625C34.7066 33.2717 34.6431 33.9121 34.6201 34.708C34.6114 35.1344 34.6027 35.5607 34.5937 36C33.6192 36 32.6447 36 31.6406 36C31.6406 35.6287 31.6406 35.2575 31.6406 34.875C32.2439 34.875 32.8472 34.875 33.4687 34.875C33.4339 34.672 33.3991 34.4689 33.3633 34.2598C33.3339 34.0885 33.3339 34.0885 33.304 33.9137C33.2157 33.597 33.2157 33.597 32.9589 33.452C32.5156 33.2875 32.1394 33.2923 31.6664 33.2917C31.5712 33.2912 31.4761 33.2907 31.378 33.2902C31.0641 33.289 30.7504 33.2898 30.4365 33.2908C30.218 33.2906 29.9994 33.2903 29.7809 33.29C29.3232 33.2895 28.8655 33.2901 28.4078 33.2915C27.8214 33.2931 27.2351 33.2921 26.6487 33.2905C26.1975 33.2894 25.7463 33.2898 25.2951 33.2905C25.0789 33.2907 24.8627 33.2904 24.6465 33.2898C24.3443 33.2891 24.0421 33.2902 23.7398 33.2917C23.5679 33.292 23.3959 33.2922 23.2188 33.2924C22.7422 33.3039 22.7422 33.3039 22.2187 33.6094C22.1259 34.027 22.0331 34.4447 21.9375 34.875C24.8147 34.875 27.6919 34.875 30.6562 34.875C30.6562 35.2463 30.6562 35.6175 30.6562 36C27.4078 36 24.1594 36 20.8125 36C20.8125 33.4688 20.8125 33.4688 21.375 32.4844C22.0794 31.9645 22.7866 32.0178 23.625 32.0625C23.6103 31.8939 23.6103 31.8939 23.5953 31.7219C23.5242 30.279 23.8807 29.1909 24.8538 28.1118C25.4576 27.424 25.9056 26.6394 26.376 25.8574C26.5731 25.5302 26.7705 25.2032 26.9681 24.8763C27.0175 24.7946 27.0668 24.7128 27.1177 24.6285C27.4414 24.0954 27.7803 23.5753 28.1305 23.0592C28.2172 22.9287 28.3039 22.7982 28.3933 22.6638C28.5558 22.4204 28.7218 22.1794 28.8919 21.9413C29.1942 21.4813 29.4019 21.1527 29.3702 20.5922C29.1568 19.764 28.7492 19.1754 28.1689 18.5625C28.0164 18.3933 27.8641 18.2239 27.7119 18.0544C27.638 17.9732 27.564 17.8921 27.4878 17.8085C27.2098 17.4984 26.9502 17.1756 26.6924 16.8486C26.6043 16.7397 26.5162 16.6307 26.4254 16.5185C26.2291 16.2657 26.042 16.0056 25.8607 15.7418C25.3134 14.956 25.3134 14.956 24.5061 14.4932C23.7369 14.4422 23.2771 14.6082 22.6934 15.1084C22.5315 15.2719 22.3723 15.4381 22.2187 15.6094C22.1723 15.6558 22.1259 15.7022 22.0781 15.75C21.647 15.7222 21.2385 15.6735 20.8125 15.6094C20.6178 15.5922 20.6178 15.5922 20.4192 15.5748C19.8875 15.4918 19.4461 15.421 19.1013 14.9749C18.7648 14.4166 18.5161 13.8256 18.2812 13.2188C17.6684 13.8057 17.063 14.4635 16.9913 15.3463C16.994 16.0486 17.0674 16.7415 17.1562 17.4375C15.8074 18.2536 14.4504 19.0521 13.0781 19.8281C12.8788 19.6965 12.6796 19.5646 12.4805 19.4326C12.3141 19.3225 12.3141 19.3225 12.1443 19.2101C11.8125 18.9844 11.8125 18.9844 11.5247 18.7542C11.2249 18.5207 11.2249 18.5207 10.6875 18.4219C10.6875 19.5356 10.6875 20.6494 10.6875 21.7969C11.0245 21.792 11.3615 21.7871 11.7087 21.782C12.0363 21.7787 12.364 21.7762 12.6916 21.7737C12.9187 21.7716 13.1458 21.7687 13.3729 21.765C13.7 21.7599 14.0271 21.7575 14.3542 21.7557C14.5056 21.7524 14.5056 21.7524 14.6601 21.7491C15.4287 21.7488 15.8567 21.9425 16.4251 22.4407C16.698 22.9918 16.6375 23.5473 16.6201 24.1523C16.6173 24.3397 16.6173 24.3397 16.6143 24.5308C16.6094 24.8383 16.6025 25.1457 16.5937 25.4531C16.7645 25.4678 16.9353 25.4825 17.1112 25.4976C17.9515 25.6044 18.5106 26.0078 19.125 26.5781C20.0509 27.7977 20.2348 28.8614 20.1094 30.375C19.8265 31.5019 19.2748 32.385 18.2812 33.0117C17.059 33.636 15.765 33.748 14.4553 33.3517C13.2968 32.8673 12.5713 32.0909 12.0937 30.9375C11.7345 29.8174 11.8117 28.5618 12.2959 27.501C12.8843 26.4651 13.6515 25.8468 14.7744 25.4619C14.9571 25.4126 15.1399 25.3633 15.3281 25.3125C15.3281 24.57 15.3281 23.8275 15.3281 23.0625C11.8477 23.0625 8.36718 23.0625 4.78125 23.0625C4.73484 23.8514 4.68843 24.6403 4.64062 25.4531C5.01187 25.4995 5.38312 25.5459 5.76562 25.5938C6.85315 26.0975 7.52655 26.907 8.01562 27.9844C8.42967 29.2623 8.17422 30.605 7.59375 31.7812C7.06735 32.6947 6.18333 33.1708 5.19598 33.449C3.86694 33.71 2.64063 33.5908 1.49414 32.8271C0.614666 32.0946 0.0715659 31.078 -0.0434002 29.9487C-0.0903998 28.684 0.0957324 27.7561 0.843746 26.7188C1.57082 25.9536 2.36709 25.5782 3.375 25.3125C3.37699 25.1396 3.37898 24.9666 3.38104 24.7885C3.38764 24.5588 3.39442 24.3292 3.40136 24.0996C3.40218 23.986 3.40299 23.8723 3.40384 23.7552C3.43463 22.9134 3.60073 22.518 4.21875 21.9375C4.72954 21.7672 5.19626 21.7794 5.72772 21.7831C5.88601 21.7834 5.88601 21.7834 6.0475 21.7837C6.38421 21.7845 6.72091 21.7863 7.05761 21.7881C7.28604 21.7888 7.51446 21.7894 7.74289 21.79C8.30256 21.7914 8.8622 21.7942 9.42187 21.7969C9.42187 20.6831 9.42187 19.5694 9.42187 18.4219C8.70892 18.7274 8.30731 18.9023 7.74316 19.3623C7.58028 19.4936 7.58028 19.4936 7.41412 19.6276C7.33418 19.6938 7.25424 19.76 7.17187 19.8281C6.14954 19.3436 5.16661 18.8115 4.19238 18.2373C4.08625 18.1748 3.98013 18.1123 3.87079 18.0479C3.11366 17.598 3.11366 17.598 2.95312 17.4375C2.98386 17.1808 3.01503 16.9242 3.04839 16.6678C3.18617 15.4615 3.04876 14.68 2.41204 13.617C1.79447 13.0193 1.79447 13.0193 -4.24311e-06 12.375C-4.24311e-06 10.7508 -4.24311e-06 9.12656 -4.24311e-06 7.45312C0.69609 7.08187 1.39218 6.71063 2.10937 6.32812C3.05553 5.06658 3.20783 4.1823 3.01849 2.67792C2.99692 2.5367 2.97535 2.39549 2.95312 2.25C3.04316 2.19683 3.13319 2.14366 3.22596 2.08888C3.636 1.84671 4.04603 1.60451 4.45605 1.3623C4.66855 1.23682 4.66855 1.23682 4.88534 1.1088C5.09131 0.987115 5.09131 0.987115 5.30145 0.862976C5.42738 0.788597 5.55331 0.714218 5.68305 0.637585C5.93203 0.489966 6.17849 0.338056 6.42264 0.182579C6.75 0 6.75 0 7.10815 0.0126343ZM4.45481 2.71129C4.17311 2.95905 4.17311 2.95905 4.0968 3.44641C4.12598 3.79885 4.16293 4.15072 4.20666 4.50165C4.22957 5.56473 3.65702 6.53294 2.95312 7.3125C2.38641 7.77159 1.80213 8.01176 1.125 8.29688C1.125 9.36422 1.125 10.4316 1.125 11.5312C1.5035 11.64 1.5035 11.64 1.88964 11.751C3.09716 12.2403 3.5248 13.2332 4.07812 14.3438C4.14773 14.483 4.14773 14.483 4.21875 14.625C4.20207 14.7733 4.18539 14.9216 4.16821 15.0743C4.10674 15.6927 4.08879 16.1254 4.21875 16.7344C4.76473 17.2702 5.35023 17.5425 6.04687 17.8594C6.17104 17.9413 6.29522 18.0232 6.42315 18.1077C6.72885 18.31 6.72885 18.31 7.02029 18.2483C7.35879 18.1236 7.54721 17.9576 7.81457 17.7171C8.50552 17.1833 9.11498 17.1617 9.96679 17.1826C10.1723 17.1844 10.1723 17.1844 10.382 17.1862C11.3409 17.2217 11.9758 17.3945 12.6837 18.0797C12.8093 18.1794 12.8093 18.1794 12.9375 18.2812C13.5685 18.1827 14.0991 17.8464 14.6514 17.543C14.755 17.4891 14.8586 17.4353 14.9653 17.3798C15.5524 17.0708 15.5524 17.0708 15.8939 16.5284C15.8905 16.1551 15.853 15.7957 15.8115 15.4248C15.8039 14.1975 16.475 13.1153 17.2969 12.2344C17.8148 11.8286 18.3659 11.6208 18.9844 11.3906C18.9844 10.3697 18.9844 9.34875 18.9844 8.29688C18.7088 8.17796 18.4333 8.05904 18.1494 7.93652C17.084 7.39939 16.4437 6.58244 15.9743 5.49406C15.8327 5.00175 15.9079 4.54439 15.9697 4.04297C16.0397 3.48403 16.0397 3.48403 15.8906 2.95312C15.2481 2.26234 14.2619 1.68146 13.3594 1.40625C12.8806 1.45359 12.6487 1.65375 12.2997 1.9704C11.5873 2.52092 10.939 2.52142 10.0635 2.50488C9.92489 2.50932 9.7863 2.51377 9.64352 2.51834C8.66606 2.51381 8.15064 2.27995 7.43276 1.61757C6.63154 0.968596 5.12246 2.20392 4.45481 2.71129ZM20.3569 7.5874C19.8717 8.42691 19.9793 9.33835 20.0303 10.2744C20.0366 10.4787 20.0424 10.6829 20.0476 10.8872C20.0614 11.3835 20.0832 11.8791 20.1094 12.375C19.7613 12.4446 19.7613 12.4446 19.4062 12.5156C19.4932 12.7445 19.5813 12.9729 19.6699 13.2012C19.7189 13.3284 19.7678 13.4557 19.8182 13.5868C19.9526 13.9391 19.9526 13.9391 20.25 14.2031C20.5913 14.2987 20.5913 14.2987 20.9707 14.3613C21.0987 14.3849 21.2267 14.4085 21.3585 14.4327C21.5059 14.4583 21.5059 14.4583 21.6562 14.4844C22.0043 14.0667 22.0043 14.0667 22.3594 13.6406C22.2724 13.5362 22.1853 13.4318 22.0957 13.3242C21.4375 12.4725 21.4067 11.7477 21.5156 10.6875C21.7576 9.84744 22.2174 9.35248 22.9219 8.85938C23.1989 8.7106 23.4791 8.56711 23.7656 8.4375C23.6728 8.01984 23.58 7.60219 23.4844 7.17188C23.1599 7.06543 22.8379 6.97143 22.5088 6.88184C22.4188 6.85111 22.3288 6.82038 22.236 6.78873C21.3862 6.5731 20.918 6.96545 20.3569 7.5874ZM22.8691 10.292C22.5752 10.8007 22.4712 11.2255 22.5 11.8125C22.7279 12.4707 23.0272 12.8601 23.625 13.2188C24.2093 13.395 24.6278 13.4017 25.207 13.2012C25.7065 12.8606 26.0571 12.5632 26.2364 11.9685C26.3593 11.2836 26.2764 10.8544 25.875 10.2656C24.9421 9.30679 23.8285 9.40839 22.8691 10.292ZM31.1133 17.9264C30.6409 18.4237 30.3875 18.8579 30.3514 19.5496C30.409 20.2295 30.6999 20.6977 31.1309 21.208C31.7028 21.6846 32.0886 21.8288 32.8271 21.7793C33.5436 21.6734 34.0483 21.4476 34.4938 20.851C34.8497 20.2432 34.9658 19.7155 34.8475 19.019C34.6312 18.4151 34.2363 17.9857 33.75 17.5781C32.7985 17.1304 31.9127 17.2519 31.1133 17.9264ZM30.2344 22.0781C29.5521 22.9911 28.9571 23.9493 28.3711 24.9258C28.2981 25.0472 28.2251 25.1686 28.1499 25.2937C27.7888 25.8993 27.4443 26.5042 27.1406 27.1406C27.2664 27.1511 27.3922 27.1617 27.5218 27.1725C28.7166 27.3024 29.543 27.5624 30.5156 28.2656C30.6548 28.3584 30.7941 28.4513 30.9375 28.5469C31.6736 26.6835 32.3691 24.8072 33.0469 22.9219C32.9527 22.915 32.8585 22.9081 32.7615 22.901C32.6367 22.8905 32.5119 22.88 32.3833 22.8691C32.1985 22.8545 32.1985 22.8545 32.01 22.8395C31.4475 22.7508 31.0013 22.5044 30.5156 22.2188C30.4228 22.1723 30.33 22.1259 30.2344 22.0781ZM1.77539 27.6064C1.25476 28.2746 1.08656 28.91 1.15136 29.751C1.2961 30.7104 1.6752 31.2891 2.42633 31.8856C3.1564 32.4115 3.90442 32.4507 4.78125 32.3438C5.69732 32.0638 6.29094 31.5236 6.75055 30.6777C7.07179 29.9531 7.10888 29.3095 6.89062 28.5469C6.50221 27.7028 5.98529 27.1456 5.17675 26.6836C3.84669 26.3289 2.71617 26.5975 1.77539 27.6064ZM13.7285 27.6064C13.2079 28.2746 13.0397 28.91 13.1045 29.751C13.2492 30.7104 13.6283 31.2891 14.3795 31.8856C15.1095 32.4115 15.8575 32.4507 16.7344 32.3438C17.6504 32.0638 18.2441 31.5236 18.7037 30.6777C19.0265 29.9495 19.0458 29.3148 18.8437 28.5469C18.504 27.6729 17.9175 27.1394 17.1211 26.6748C15.7878 26.3415 14.671 26.5957 13.7285 27.6064ZM25.4059 29.3879C24.7251 30.2141 24.75 31.0119 24.75 32.0625C26.6991 32.0625 28.6481 32.0625 30.6562 32.0625C30.6562 30.8107 30.6193 30.0533 29.8037 29.1357C28.4327 27.8526 26.6831 28.1793 25.4059 29.3879Z" fill="white"/>
<path d="M13.0589 5.92437C14.0106 6.63013 14.5836 7.73515 14.8491 8.86541C15.0436 10.2812 14.7757 11.6216 14.0065 12.8227C13.2853 13.7531 12.1337 14.4208 10.9688 14.625C9.34781 14.7495 8.04283 14.5284 6.75001 13.5C5.78883 12.5992 5.30039 11.4143 5.17457 10.1102C5.14332 8.72201 5.56995 7.53061 6.46876 6.46874C8.3412 4.66073 10.8854 4.60752 13.0589 5.92437ZM7.41963 7.3026C6.6563 8.19964 6.34426 9.09331 6.40175 10.2717C6.57874 11.3699 7.12897 12.1921 7.99092 12.8804C8.87399 13.4511 9.80825 13.639 10.8446 13.444C11.8815 13.1677 12.6806 12.5376 13.2825 11.6526C13.7567 10.7225 13.7828 9.77717 13.5577 8.76928C13.2357 7.80172 12.6635 7.16209 11.8125 6.60937C10.2574 5.92409 8.66407 6.09603 7.41963 7.3026Z" fill="white"/>
<path d="M14.9062 27.7031C15.3119 27.885 15.5914 28.0771 15.8906 28.4062C16.2962 28.2244 16.5758 28.0323 16.875 27.7031C17.3485 27.8991 17.5761 28.122 17.8594 28.5469C17.5809 28.8717 17.3025 29.1966 17.0156 29.5312C17.2941 29.8561 17.5725 30.1809 17.8594 30.5156C17.6273 30.7477 17.3953 30.9797 17.1562 31.2188C16.7506 31.0369 16.4711 30.8448 16.1719 30.5156C15.7663 30.6975 15.4867 30.8896 15.1875 31.2188C14.714 31.0228 14.4864 30.7998 14.2031 30.375C14.4816 30.0502 14.76 29.7253 15.0469 29.3906C14.7684 29.0658 14.49 28.7409 14.2031 28.4062C14.4352 28.1742 14.6672 27.9422 14.9062 27.7031Z" fill="white"/>
<path d="M5.37286 27.9976C5.65764 28.1415 5.83828 28.307 6.04688 28.5469C5.84628 29.0051 5.60151 29.3066 5.24597 29.6565C5.14536 29.7562 5.04476 29.8559 4.9411 29.9586C4.83614 30.0612 4.73119 30.1638 4.62305 30.2695C4.46398 30.4267 4.46398 30.4267 4.3017 30.587C4.0403 30.8451 3.77826 31.1025 3.51562 31.3594C3.36016 31.2278 3.20493 31.0959 3.0498 30.9639C2.96334 30.8904 2.87687 30.817 2.78778 30.7414C2.55175 30.5337 2.32892 30.3187 2.10938 30.0937C2.27134 29.7467 2.39735 29.5245 2.67188 29.25C2.94434 29.3027 2.94434 29.3027 3.23438 29.3906C3.68091 29.439 3.68091 29.439 3.98529 29.0781C4.22884 28.8118 4.472 28.5452 4.71478 28.2783C5.0625 27.9844 5.0625 27.9844 5.37286 27.9976Z" fill="white"/>
<path d="M23.7656 10.8281C24.1833 10.8281 24.6009 10.8281 25.0312 10.8281C25.0312 11.2458 25.0312 11.6634 25.0312 12.0938C24.6136 12.0938 24.1959 12.0938 23.7656 12.0938C23.7656 11.6761 23.7656 11.2584 23.7656 10.8281Z" fill="white"/>
<path d="M27.2812 29.5312C27.6525 29.5312 28.0238 29.5312 28.4062 29.5312C28.4062 29.9489 28.4062 30.3666 28.4062 30.7969C28.035 30.7969 27.6637 30.7969 27.2812 30.7969C27.2812 30.3792 27.2812 29.9616 27.2812 29.5312Z" fill="white"/>
<path d="M31.9219 18.9844C32.3395 18.9844 32.7572 18.9844 33.1875 18.9844C33.1875 19.3556 33.1875 19.7269 33.1875 20.1094C32.7698 20.1094 32.3522 20.1094 31.9219 20.1094C31.9219 19.7381 31.9219 19.3669 31.9219 18.9844Z" fill="white"/>
</g>
<defs>
<clipPath id="clip0_172_854">
<rect width="36" height="36" fill="white"/>
</clipPath>
</defs>
</svg>
