<svg width="36" height="36" viewBox="0 0 36 36" fill="none" xmlns="http://www.w3.org/2000/svg">
<g clip-path="url(#clip0_172_846)">
<path d="M19.4766 0.281278C19.5722 0.301026 19.5722 0.301026 19.6698 0.321172C23.2799 1.09362 26.614 3.14191 28.8984 6.0469C28.947 6.10796 28.947 6.10796 28.9966 6.17026C29.5809 6.90823 30.0678 7.68047 30.5156 8.50784C30.5417 8.55567 30.5678 8.60351 30.5947 8.65279C31.4612 10.258 31.9751 11.9893 32.2734 13.7813C32.2895 13.8722 32.3055 13.9631 32.3221 14.0568C32.9292 18.1538 31.7324 22.3728 29.3906 25.7344C29.4883 25.9546 29.6013 26.1027 29.7722 26.2716C29.8221 26.3213 29.872 26.371 29.9234 26.4221C29.9781 26.4759 30.0328 26.5297 30.0892 26.5851C30.1468 26.6423 30.2044 26.6995 30.2638 26.7584C30.3891 26.8827 30.5145 27.0068 30.6401 27.1307C30.8391 27.3273 31.0376 27.5243 31.2359 27.7215C31.7999 28.2821 32.3648 28.842 32.9303 29.4012C33.2427 29.7101 33.5546 30.0196 33.866 30.3296C34.0305 30.4934 34.1953 30.6567 34.3607 30.8196C34.5456 31.0019 34.7297 31.1849 34.9135 31.3682C34.9677 31.4211 35.0218 31.4741 35.0776 31.5286C35.7202 32.1735 36.0137 32.7194 36.022 33.6182C36.024 33.69 36.0261 33.7618 36.0282 33.8357C36.0339 34.5206 35.8242 34.9477 35.3677 35.4496C35.1366 35.6601 34.8747 35.7964 34.5938 35.9297C34.5474 35.9529 34.5009 35.9761 34.4531 36C33.5806 36.0806 32.7633 36.1136 32.0658 35.5344C31.4181 34.9578 30.8129 34.3373 30.2009 33.7234C30.0758 33.5982 29.9507 33.4729 29.8256 33.3478C29.5316 33.0536 29.2378 32.7592 28.9441 32.4648C28.5763 32.0961 28.2082 31.7277 27.8402 31.3593C27.1849 30.7033 26.5299 30.047 25.875 29.3907C25.5847 29.5017 25.3473 29.6393 25.0884 29.8125C23.2519 31.0129 21.2751 31.7824 19.125 32.2032C19.0672 32.2149 19.0093 32.2266 18.9497 32.2387C14.9795 33.0111 10.5912 32.0261 7.24611 29.8063C6.7066 29.4374 6.18762 29.0475 5.69532 28.6172C5.61334 28.5468 5.61334 28.5468 5.52971 28.4749C4.69443 27.7419 3.91385 26.9609 3.2532 26.066C3.16482 25.9463 3.07497 25.8279 2.985 25.7094C2.50977 25.0741 2.12332 24.3985 1.75782 23.6953C1.73072 23.6438 1.70362 23.5923 1.6757 23.5392C0.50078 21.2796 -0.0318791 18.7882 -0.0263552 16.2554C-0.026317 16.1892 -0.0262787 16.1229 -0.0262393 16.0547C-0.0218541 14.3967 0.197294 12.8334 0.703137 11.25C0.720777 11.1947 0.738418 11.1393 0.756592 11.0823C1.52254 8.74014 2.79948 6.68929 4.50001 4.9219C4.53873 4.88128 4.57744 4.84065 4.61733 4.79879C5.19414 4.19579 5.79531 3.65692 6.46876 3.16409C6.54236 3.11007 6.61596 3.05605 6.69178 3.00039C8.65888 1.60092 10.8538 0.682895 13.2188 0.210966C13.2818 0.198356 13.3448 0.185746 13.4098 0.172754C15.3714 -0.197091 17.5288 -0.123453 19.4766 0.281278ZM11.5313 1.96878C11.4418 1.99865 11.4418 1.99865 11.3505 2.02913C9.57444 2.63533 7.95744 3.55351 6.53907 4.78128C6.48252 4.83004 6.42596 4.8788 6.36769 4.92904C5.5418 5.65699 4.80287 6.42714 4.14845 7.31253C4.10386 7.37235 4.05926 7.43217 4.01332 7.4938C2.68009 9.34075 1.75928 11.5294 1.40626 13.7813C1.39405 13.856 1.38184 13.9307 1.36925 14.0076C1.26138 14.7266 1.23751 15.4328 1.23927 16.1587C1.23931 16.2186 1.23935 16.2784 1.23939 16.34C1.24397 17.9092 1.46858 19.3918 1.96876 20.8828C1.98868 20.9425 2.0086 21.0021 2.02912 21.0636C2.63532 22.8397 3.55349 24.4567 4.78126 25.875C4.83002 25.9316 4.87879 25.9881 4.92903 26.0464C7.0794 28.4861 9.8831 30.1513 13.065 30.854C13.1579 30.8746 13.1579 30.8746 13.2527 30.8956C14.2178 31.0964 15.1748 31.1777 16.1587 31.1748C16.2117 31.1748 16.2647 31.1747 16.3193 31.1746C20.3778 31.1592 24.09 29.4727 26.9561 26.6397C27.3264 26.265 27.6644 25.8716 27.9844 25.4532C28.0182 25.4095 28.052 25.3659 28.0868 25.3209C30.5173 22.1612 31.5655 18.1562 31.0687 14.2072C30.6582 11.3911 29.5163 8.68873 27.6328 6.53909C27.5842 6.48271 27.5355 6.42634 27.4853 6.36825C26.7598 5.54392 25.9921 4.79255 25.1016 4.14847C25.0551 4.11486 25.0087 4.08126 24.9608 4.04664C23.1826 2.7778 21.1949 1.91462 19.0547 1.47659C19.002 1.46518 18.9494 1.45377 18.8951 1.44202C16.4993 0.941584 13.8334 1.19653 11.5313 1.96878ZM28.3089 26.9484C28.2535 27.01 28.2535 27.01 28.197 27.0728C28.1558 27.1179 28.1147 27.1631 28.0723 27.2096C28.0288 27.2579 27.9853 27.3062 27.9404 27.356C27.5984 27.7299 27.2564 28.0894 26.8594 28.4063C26.9726 28.6927 27.1785 28.8819 27.3955 29.0918C27.4318 29.1274 27.468 29.1631 27.5054 29.1998C27.5944 29.2872 27.6839 29.3741 27.7734 29.461C28.1688 29.1323 28.5326 28.7805 28.8941 28.4151C28.9488 28.36 29.0036 28.3049 29.0601 28.2481C29.1939 28.1135 29.3275 27.9787 29.4609 27.8438C29.128 27.4504 29.128 27.4504 28.7754 27.0747C28.7352 27.0335 28.6949 26.9923 28.6535 26.9498C28.51 26.8282 28.4493 26.8201 28.3089 26.9484ZM30.1467 28.8998C30.0506 28.997 30.0506 28.997 29.9526 29.0962C29.9185 29.1306 29.8843 29.1649 29.8491 29.2003C29.7399 29.3103 29.6312 29.4208 29.5225 29.5313C29.4486 29.6058 29.3747 29.6804 29.3008 29.7548C29.1195 29.9378 28.9385 30.1211 28.7578 30.3047C28.87 30.5807 29.0597 30.768 29.2669 30.9749C29.3045 31.0129 29.342 31.0509 29.3806 31.09C29.5046 31.2153 29.6291 31.3401 29.7537 31.4649C29.8405 31.5521 29.9272 31.6393 30.0139 31.7265C30.1958 31.9092 30.3781 32.0917 30.5604 32.274C30.7933 32.5069 31.0252 32.7407 31.2569 32.9748C31.4358 33.1553 31.6154 33.3351 31.7951 33.5148C31.8808 33.6007 31.9663 33.6868 32.0516 33.7731C32.1713 33.8943 32.292 34.0145 32.4129 34.1345C32.4647 34.1876 32.4647 34.1876 32.5176 34.2417C32.8418 34.5602 33.1977 34.7805 33.6533 34.8355C34.1184 34.7752 34.3596 34.5701 34.6501 34.2224C34.834 33.9588 34.8302 33.7097 34.8047 33.3985C34.6552 32.9941 34.4241 32.6959 34.1194 32.3977C34.0798 32.3579 34.0402 32.318 33.9994 32.277C33.8699 32.1469 33.7394 32.0179 33.6088 31.8889C33.5181 31.7984 33.4274 31.7077 33.3368 31.6171C33.1475 31.428 32.9577 31.2394 32.7676 31.0512C32.5235 30.8095 32.2803 30.5668 32.0375 30.3239C31.8506 30.1371 31.6635 29.9507 31.4761 29.7644C31.3863 29.675 31.2965 29.5855 31.2068 29.4959C31.082 29.3713 30.9567 29.2472 30.8312 29.1233C30.794 29.086 30.7568 29.0488 30.7185 29.0104C30.4511 28.7212 30.4511 28.7212 30.1467 28.8998Z" fill="white"/>
<path d="M18.2768 6.71154C18.771 7.14835 19.1182 7.85872 19.1953 8.50781C19.2474 8.51497 19.2995 8.52213 19.3532 8.52951C19.7212 8.62188 19.9991 8.90373 20.2055 9.2156C20.4209 9.62984 20.47 9.99682 20.4653 10.4634C20.4647 10.545 20.4641 10.6267 20.4634 10.7108C20.4622 10.8037 20.4622 10.8037 20.4609 10.8984C20.5138 10.9178 20.5666 10.9372 20.6211 10.9572C21.0533 11.142 21.3277 11.4443 21.5348 11.8603C21.6097 12.0994 21.6297 12.3368 21.6562 12.5859C21.8393 12.5197 22.0201 12.4507 22.2012 12.3794C22.2525 12.3612 22.3038 12.343 22.3566 12.3243C22.5726 12.237 22.7376 12.1652 22.8618 11.9617C22.8828 11.9108 22.9038 11.8599 22.9254 11.8075C22.9487 11.751 22.972 11.6945 22.996 11.6363C23.0996 11.3632 23.1919 11.0876 23.28 10.8092C23.3194 10.6875 23.3589 10.5659 23.3984 10.4443C23.4594 10.2552 23.5201 10.0661 23.5803 9.87679C23.6391 9.69221 23.699 9.50801 23.759 9.32382C23.7855 9.239 23.7855 9.239 23.8125 9.15247C23.9122 8.84928 23.9992 8.64162 24.2578 8.4375C24.4584 8.33719 24.5977 8.34536 24.8203 8.36718C25.0101 8.49374 25.1397 8.58401 25.2422 8.78906C25.2378 9.24887 25.109 9.67526 24.9645 10.1074C24.9437 10.1706 24.923 10.2337 24.9016 10.2988C24.8578 10.4315 24.8136 10.5641 24.7692 10.6966C24.702 10.8975 24.6365 11.099 24.571 11.3005C24.528 11.4302 24.4848 11.5598 24.4415 11.6894C24.4224 11.7488 24.4033 11.8081 24.3836 11.8693C24.1972 12.4159 23.9178 12.9765 23.414 13.2891C23.1687 13.4083 22.919 13.5144 22.667 13.6186C22.5999 13.647 22.5328 13.6753 22.4637 13.7045C22.2195 13.8072 21.978 13.9084 21.7266 13.9922C21.7033 14.5027 21.6801 15.0131 21.6562 15.5391C21.7652 15.5383 21.8741 15.5376 21.9863 15.5368C22.3905 15.5343 22.7948 15.5327 23.199 15.5313C23.374 15.5306 23.5489 15.5297 23.7238 15.5285C23.9754 15.5267 24.2268 15.5259 24.4783 15.5253C24.5565 15.5246 24.6347 15.5239 24.7152 15.5231C24.7884 15.5231 24.8616 15.5231 24.9369 15.5231C25.0011 15.5228 25.0653 15.5225 25.1314 15.5221C25.3358 15.5412 25.482 15.585 25.6641 15.6797C25.823 15.9462 25.8903 16.0924 25.831 16.4004C25.7387 16.5851 25.6846 16.6805 25.5234 16.8047C25.3512 16.8301 25.3512 16.8301 25.1445 16.8286C25.0671 16.8286 24.9897 16.8286 24.9099 16.8286C24.8264 16.8275 24.7429 16.8264 24.6569 16.8253C24.5713 16.825 24.4858 16.8247 24.3977 16.8244C24.124 16.8232 23.8503 16.8205 23.5766 16.8179C23.3913 16.8168 23.206 16.8158 23.0206 16.815C22.5658 16.8127 22.111 16.809 21.6562 16.8047C21.6562 17.3384 21.6562 17.872 21.6562 18.4219C21.8651 18.4915 22.0739 18.5611 22.2891 18.6328C23.7425 19.1599 23.7425 19.1599 24.048 19.7568C24.2159 20.1409 24.364 20.5288 24.5006 20.9251C24.5328 21.018 24.5328 21.018 24.5656 21.1128C24.6104 21.2426 24.6551 21.3724 24.6996 21.5024C24.7676 21.7004 24.8368 21.8981 24.906 22.0957C24.9496 22.2226 24.9932 22.3495 25.0367 22.4764C25.0574 22.5349 25.078 22.5934 25.0993 22.6537C25.212 22.9874 25.2745 23.268 25.2422 23.625C25.1323 23.8271 25.1323 23.8271 24.9609 23.9766C24.6991 24.0527 24.5396 24.0699 24.2798 23.9853C23.9033 23.6394 23.7746 23.0457 23.6209 22.5692C23.5818 22.4511 23.5426 22.333 23.5035 22.2149C23.443 22.0316 23.3828 21.8482 23.3235 21.6646C23.2653 21.4853 23.2059 21.3065 23.1463 21.1278C23.129 21.0732 23.1117 21.0185 23.0938 20.9622C22.9638 20.5772 22.7981 20.3107 22.4336 20.101C22.3912 20.0852 22.3489 20.0694 22.3053 20.0531C22.2588 20.0352 22.2124 20.0173 22.1645 19.9988C22.1171 19.9816 22.0698 19.9645 22.021 19.9468C21.9479 19.919 21.9479 19.919 21.8734 19.8906C21.7544 19.8455 21.6351 19.8015 21.5156 19.7578C21.5053 19.8089 21.4949 19.86 21.4843 19.9127C21.1912 21.2267 20.411 22.3707 19.2832 23.1064C17.9221 23.9663 16.482 24.2453 14.901 23.9043C13.5275 23.5797 12.405 22.7367 11.6015 21.5859C11.2573 21.0057 11.0262 20.4223 10.8984 19.7578C10.7033 19.8348 10.5086 19.9125 10.314 19.9907C10.2587 20.0124 10.2035 20.0341 10.1465 20.0565C10.0933 20.078 10.04 20.0996 9.98518 20.1217C9.91173 20.151 9.91173 20.151 9.83678 20.1809C9.56948 20.3191 9.46572 20.4877 9.37587 20.7698C9.34558 20.863 9.34558 20.863 9.31468 20.9582C9.29359 21.0252 9.27249 21.0923 9.25075 21.1613C9.20465 21.3032 9.15856 21.4451 9.11246 21.587C9.04067 21.8107 8.96914 22.0344 8.89773 22.2582C8.82852 22.4743 8.75842 22.6901 8.68825 22.9059C8.66729 22.9727 8.64633 23.0394 8.62474 23.1082C8.51413 23.4476 8.41297 23.717 8.15624 23.9766C7.95562 24.0769 7.81631 24.0687 7.59374 24.0469C7.4039 23.9203 7.27438 23.83 7.17186 23.625C7.13709 23.1958 7.24046 22.8581 7.3773 22.4585C7.39849 22.395 7.41967 22.3315 7.44149 22.266C7.4863 22.1322 7.53147 21.9985 7.57698 21.8649C7.64607 21.6618 7.71392 21.4584 7.7816 21.2548C7.82547 21.1243 7.86942 20.9938 7.91344 20.8633C7.93352 20.8032 7.9536 20.743 7.97429 20.681C8.2086 19.9968 8.45809 19.3767 9.12513 19.0207C9.34636 18.9211 9.56927 18.8305 9.7954 18.7427C9.87248 18.7114 9.94957 18.68 10.029 18.6478C10.5915 18.4219 10.5915 18.4219 10.7578 18.4219C10.7578 17.8882 10.7578 17.3545 10.7578 16.8047C10.6421 16.8062 10.5264 16.8076 10.4073 16.8091C9.97852 16.8142 9.54977 16.8175 9.12101 16.8201C8.93536 16.8215 8.74971 16.8235 8.56407 16.8259C8.29738 16.8293 8.03073 16.8309 7.76402 16.8322C7.63932 16.8343 7.63932 16.8343 7.51209 16.8365C7.43469 16.8366 7.35728 16.8366 7.27754 16.8366C7.20946 16.8372 7.14138 16.8379 7.07125 16.8385C6.83731 16.7947 6.75585 16.7072 6.60936 16.5234C6.52368 16.2607 6.52733 16.1354 6.61815 15.873C6.77135 15.6483 6.84703 15.618 7.10155 15.5391C7.28263 15.5221 7.28263 15.5221 7.47709 15.5231C7.58685 15.5231 7.58685 15.5231 7.69883 15.5231C7.81607 15.5242 7.81607 15.5242 7.93568 15.5253C8.01634 15.5255 8.097 15.5257 8.1801 15.5259C8.43729 15.5267 8.69446 15.5285 8.95165 15.5303C9.12619 15.531 9.30074 15.5316 9.47528 15.5322C9.90279 15.5337 10.3303 15.5362 10.7578 15.5391C10.7346 15.0286 10.7114 14.5181 10.6875 13.9922C10.5807 13.9498 10.4739 13.9073 10.3639 13.8636C10.2228 13.8069 10.0816 13.7501 9.94042 13.6934C9.87017 13.6655 9.79993 13.6377 9.72756 13.609C9.08976 13.3514 8.52626 13.0633 8.21621 12.4181C8.14166 12.2252 8.07438 12.0312 8.00957 11.8347C7.97301 11.7278 7.97301 11.7278 7.93571 11.6186C7.88472 11.4685 7.83428 11.3182 7.78438 11.1678C7.70815 10.9384 7.6298 10.7099 7.55116 10.4814C7.50169 10.3349 7.45234 10.1884 7.40312 10.0418C7.37984 9.97394 7.35655 9.9061 7.33256 9.8362C7.20541 9.44847 7.13393 9.12726 7.17186 8.71875C7.30336 8.5478 7.40258 8.46276 7.59374 8.36718C7.83951 8.33988 7.97491 8.34341 8.19041 8.46929C8.43228 8.71442 8.50496 8.9627 8.60695 9.28674C8.62763 9.349 8.64832 9.41125 8.66963 9.47539C8.73544 9.67401 8.79967 9.87309 8.86375 10.0723C8.92834 10.2703 8.99326 10.4683 9.05863 10.6661C9.09914 10.789 9.13917 10.912 9.17862 11.0352C9.36944 11.6826 9.36944 11.6826 9.768 12.2028C9.81366 12.2205 9.85932 12.2381 9.90636 12.2563C9.95621 12.2767 10.0061 12.2971 10.0574 12.3181C10.1087 12.3369 10.16 12.3557 10.2129 12.375C10.2653 12.3959 10.3177 12.4169 10.3716 12.4384C10.4997 12.4893 10.6287 12.5379 10.7578 12.5859C10.7671 12.499 10.7765 12.4121 10.7861 12.3225C10.8574 11.7594 11.1047 11.4292 11.5312 11.0635C11.6743 10.9671 11.7845 10.9282 11.9531 10.8984C11.9494 10.8029 11.9494 10.8029 11.9457 10.7053C11.9271 9.86739 12.0132 9.40136 12.5835 8.77835C12.795 8.58626 12.9313 8.50781 13.2187 8.50781C13.2347 8.4179 13.2506 8.32799 13.2671 8.23535C13.4282 7.5311 13.7697 6.98208 14.3437 6.53906C15.6591 5.72308 17.0423 5.78562 18.2768 6.71154ZM14.7148 8.02496C14.6124 8.16168 14.6124 8.16168 14.5547 8.36718C15.622 8.36718 16.6894 8.36718 17.789 8.36718C17.6211 7.86346 17.4056 7.63467 16.9486 7.37512C16.0769 6.99953 15.294 7.32445 14.7148 8.02496ZM13.289 9.91406C13.1663 10.1333 13.1663 10.1333 13.2187 10.7578C15.191 10.7578 17.1633 10.7578 19.1953 10.7578C19.2176 10.2574 19.2176 10.2574 19.0547 9.84375C18.8112 9.60392 18.6096 9.60582 18.2759 9.6044C18.2264 9.60392 18.1768 9.60343 18.1258 9.60294C17.9623 9.60165 17.799 9.60192 17.6355 9.60232C17.5217 9.602 17.4078 9.60163 17.294 9.60121C17.0555 9.60058 16.817 9.60075 16.5785 9.60145C16.2732 9.60225 15.9679 9.60083 15.6626 9.59878C15.4275 9.59749 15.1925 9.59751 14.9574 9.59791C14.8449 9.59792 14.7323 9.5975 14.6198 9.59663C14.4622 9.59558 14.3048 9.59633 14.1472 9.59753C14.0577 9.59754 13.9681 9.59756 13.8759 9.59757C13.6004 9.63884 13.4849 9.71993 13.289 9.91406ZM12.0937 12.3047C11.9782 12.5357 12.0124 12.792 12.0121 13.0459C12.0117 13.1081 12.0114 13.1704 12.011 13.2345C12.01 13.4413 12.0095 13.6481 12.0091 13.8549C12.0087 13.9989 12.0083 14.143 12.0079 14.287C12.0072 14.5899 12.0068 14.8928 12.0065 15.1956C12.0061 15.5814 12.0045 15.9672 12.0025 16.353C12.0011 16.6512 12.0008 16.9493 12.0007 17.2474C12.0005 17.3895 11.9999 17.5315 11.999 17.6736C11.9897 19.2054 12.2051 20.461 13.3064 21.6101C13.9831 22.2597 14.627 22.4829 15.539 22.7109C15.539 19.1841 15.539 15.6572 15.539 12.0234C13.6901 11.8042 13.6901 11.8042 12.0937 12.3047ZM16.8047 12.0234C16.8047 15.5503 16.8047 19.0772 16.8047 22.7109C17.2869 22.6145 17.645 22.5402 18.0659 22.3242C18.1139 22.2997 18.162 22.2751 18.2115 22.2499C19.2528 21.6934 19.8806 20.7919 20.25 19.6875C20.4327 18.9118 20.4124 18.119 20.4118 17.3276C20.412 17.1895 20.4123 17.0513 20.4127 16.9132C20.4132 16.6255 20.4132 16.3378 20.4128 16.0502C20.4124 15.6817 20.4136 15.3133 20.4152 14.9449C20.4163 14.6604 20.4163 14.376 20.4161 14.0915C20.4161 13.9556 20.4165 13.8197 20.4172 13.6838C20.4181 13.4943 20.4176 13.3049 20.4168 13.1155C20.4173 13.0597 20.4179 13.0038 20.4184 12.9463C20.4154 12.6271 20.3854 12.4133 20.1797 12.1641C19.1726 11.6605 17.9307 12.0234 16.8047 12.0234Z" fill="white"/>
<path d="M15.7236 2.36426C15.7904 2.36242 15.8571 2.36058 15.9259 2.35869C16.2254 2.35796 16.4068 2.36472 16.672 2.51313C16.8598 2.73786 16.8507 2.87319 16.8349 3.15528C16.7912 3.37127 16.7028 3.46296 16.5234 3.58594C16.313 3.65609 16.1539 3.6709 15.9335 3.68153C12.6811 3.86316 9.83306 4.99425 7.45312 7.24219C7.40136 7.29023 7.34961 7.33827 7.29629 7.38776C5.16827 9.42916 3.79453 12.5268 3.708 15.4666C3.70361 15.7061 3.70328 15.9455 3.70458 16.1851C3.70481 16.2609 3.70481 16.2609 3.70504 16.3382C3.709 17.1649 3.75449 17.9652 3.93749 18.7734C3.95788 18.8647 3.95788 18.8647 3.97869 18.9579C4.71093 22.1241 6.65376 24.9956 9.41747 26.7319C9.60514 26.847 9.7942 26.9594 9.98437 27.0703C10.028 27.0958 10.0715 27.1213 10.1164 27.1475C12.8594 28.7286 16.2684 29.1399 19.3241 28.3395C22.7473 27.3928 25.4839 25.2401 27.242 22.1602C28.7641 19.3866 29.1319 15.9397 28.2876 12.898C27.3021 9.5632 25.1858 6.85945 22.14 5.16986C21.224 4.67457 20.2712 4.29702 19.2541 4.06831C19.0025 4.00668 18.8564 3.94992 18.6699 3.76667C18.5239 3.52092 18.5173 3.37495 18.5625 3.09376C18.6987 2.88721 18.6987 2.88721 18.9141 2.74219C19.3628 2.67522 19.7811 2.78309 20.206 2.91798C20.2666 2.93675 20.3271 2.95552 20.3894 2.97486C22.4928 3.64663 24.3256 4.78153 25.9174 6.30465C26.0012 6.38463 26.0859 6.46361 26.1708 6.54237C27.9566 8.24452 29.1266 10.6406 29.7026 13.0078C29.7274 13.1096 29.7274 13.1096 29.7527 13.2134C29.9747 14.1861 30.0507 15.1508 30.0454 16.1455C30.0453 16.1974 30.0451 16.2492 30.0449 16.3026C30.0293 19.6676 28.8347 22.9894 26.5078 25.4531C26.4328 25.5422 26.3581 25.6316 26.2837 25.7212C25.2644 26.8801 24.0007 27.7639 22.6406 28.4766C22.5608 28.5197 22.4809 28.5629 22.3986 28.6073C19.2759 30.2429 15.446 30.4786 12.0932 29.4589C10.0087 28.7828 8.21593 27.7092 6.60937 26.2266C6.57368 26.1937 6.53799 26.1608 6.50122 26.1269C5.95923 25.6213 5.50418 25.0611 5.06249 24.4688C5.01853 24.4104 4.97457 24.352 4.92928 24.2919C3.81469 22.757 3.0757 21.0213 2.65429 19.1777C2.64366 19.1314 2.63302 19.085 2.62207 19.0372C2.42193 18.1035 2.36419 17.1844 2.36864 16.2334C2.36877 16.1764 2.3689 16.1194 2.36903 16.0606C2.3724 15.1697 2.41056 14.3029 2.60155 13.4297C2.61909 13.3482 2.61909 13.3482 2.63698 13.265C3.37455 9.95758 5.26443 6.98448 8.01562 4.99219C8.05588 4.96287 8.09615 4.93355 8.13763 4.90334C9.84613 3.67491 11.7889 2.91454 13.8516 2.53126C13.9427 2.51404 14.0339 2.49681 14.1279 2.47907C14.6584 2.39432 15.187 2.37323 15.7236 2.36426Z" fill="white"/>
</g>
<defs>
<clipPath id="clip0_172_846">
<rect width="36" height="36" fill="white"/>
</clipPath>
</defs>
</svg>
