<svg width="88" height="88" viewBox="0 0 88 88" fill="none" xmlns="http://www.w3.org/2000/svg">
<path d="M46.6501 88.0001C69.4705 88.0001 87.9701 69.5005 87.9701 46.6801C87.9701 23.8597 69.4705 5.36011 46.6501 5.36011C23.8297 5.36011 5.33008 23.8597 5.33008 46.6801C5.33008 69.5005 23.8297 88.0001 46.6501 88.0001Z" fill="url(#paint0_radial_302_16)"/>
<path d="M3.46982 17.31L36.2698 3.16C36.5098 3.06 36.7898 3.14 36.9398 3.36L54.6798 28.58C54.9098 28.9 54.7598 29.37 54.3898 29.49L49.6398 31.03C49.2598 31.15 49.1198 31.64 49.3698 31.96L63.3798 49.6C63.6498 49.94 63.4798 50.44 63.0798 50.54L57.0098 52.03C56.5998 52.13 56.4398 52.64 56.6998 52.97L77.3198 79.1C77.7098 79.6 77.1598 80.3 76.6098 79.99L30.1998 53.2C29.7798 52.96 29.8198 52.32 30.2698 52.14L35.8598 49.93C36.2798 49.76 36.3498 49.17 35.9798 48.9L17.1398 35.3C16.7698 35.04 16.8298 34.46 17.2398 34.28L21.5398 32.39C21.9498 32.21 22.0098 31.63 21.6398 31.37L3.35982 18.33C2.98982 18.07 3.04982 17.48 3.45982 17.3L3.46982 17.31Z" fill="white"/>
<path d="M36.4799 3.12C36.6599 3.12 36.8299 3.21 36.9299 3.36L54.6699 28.58C54.8999 28.9 54.7499 29.37 54.3799 29.49L49.6299 31.03C49.2499 31.15 49.1099 31.64 49.3599 31.96L63.3699 49.6C63.6399 49.94 63.4699 50.44 63.0699 50.54L56.9999 52.03C56.5899 52.13 56.4299 52.64 56.6899 52.97L77.3099 79.1C77.6399 79.51 77.3099 80.06 76.8799 80.06C76.7899 80.06 76.6999 80.04 76.5999 79.98L30.1899 53.19C29.7699 52.95 29.8099 52.31 30.2599 52.13L35.8499 49.92C36.2699 49.75 36.3399 49.16 35.9699 48.89L17.1299 35.29C16.7599 35.03 16.8199 34.45 17.2299 34.27L21.5299 32.38C21.9399 32.2 21.9999 31.62 21.6299 31.36L3.35987 18.33C2.98987 18.07 3.04987 17.48 3.45987 17.3L36.2699 3.16C36.3399 3.13 36.4099 3.12 36.4899 3.12M36.4799 0C35.9799 0 35.4899 0.0999999 35.0299 0.3L2.22987 14.44C1.00987 14.97 0.159865 16.12 0.0198655 17.45C-0.120135 18.78 0.469865 20.09 1.54987 20.87L16.2099 31.31L15.9899 31.41C14.7799 31.94 13.9399 33.09 13.7999 34.41C13.6599 35.73 14.2399 37.04 15.3199 37.82L30.4199 48.72L29.1199 49.23C27.7899 49.76 26.8999 50.97 26.7999 52.41C26.6899 53.85 27.3999 55.18 28.6399 55.9L75.0499 82.69C75.6099 83.01 76.2499 83.19 76.8899 83.19C78.2799 83.19 79.5799 82.37 80.1999 81.1C80.8299 79.81 80.6599 78.31 79.7699 77.18L61.5799 54.12L63.8299 53.57C65.0499 53.27 66.0299 52.37 66.4399 51.17C66.8499 49.96 66.6299 48.65 65.8299 47.65L54.0799 32.86L55.3499 32.45C56.4599 32.09 57.3399 31.21 57.7099 30.1C58.0799 28.98 57.8999 27.74 57.2299 26.78L39.4899 1.56C38.7999 0.58 37.6799 0 36.4799 0Z" fill="black"/>
<defs>
<radialGradient id="paint0_radial_302_16" cx="0" cy="0" r="1" gradientUnits="userSpaceOnUse" gradientTransform="translate(46.6501 46.6801) scale(41.32)">
<stop stop-color="white"/>
<stop offset="1" stop-color="white"/>
</radialGradient>
</defs>
</svg>
